  0
SECTION
  2
HEADER
  9
$ACADVER
  1
AC1021
  9
$ACADMAINTVER
 70
    25
  9
$DWGCODEPAGE
  3
ANSI_1252
  9
$INSBASE
 10
0.0
 20
0.0
 30
0.0
  9
$EXTMIN
 10
-17.50229
 20
23.33443
 30
0.0
  9
$EXTMAX
 10
17.44514
 20
29.37878
 30
0.0
  9
$LIMMIN
 10
0.0
 20
0.0
  9
$LIMMAX
 10
12.0
 20
9.0
  9
$ORTHOMODE
 70
     0
  9
$REGENMODE
 70
     1
  9
$FILLMODE
 70
     1
  9
$QTEXTMODE
 70
     0
  9
$MIRRTEXT
 70
     1
  9
$LTSCALE
 40
1.0
  9
$ATTMODE
 70
     1
  9
$TEXTSIZE
 40
0.2
  9
$TRACEWID
 40
0.05
  9
$TEXTSTYLE
  7
Standard
  9
$CLAYER
  8
0
  9
$CELTYPE
  6
ByLayer
  9
$CECOLOR
 62
   256
  9
$CELTSCALE
 40
1.0
  9
$DISPSILH
 70
     0
  9
$DIMSCALE
 40
1.0
  9
$DIMASZ
 40
0.18
  9
$DIMEXO
 40
0.0625
  9
$DIMDLI
 40
0.38
  9
$DIMRND
 40
0.0
  9
$DIMDLE
 40
0.0
  9
$DIMEXE
 40
0.18
  9
$DIMTP
 40
0.0
  9
$DIMTM
 40
0.0
  9
$DIMTXT
 40
0.18
  9
$DIMCEN
 40
0.09
  9
$DIMTSZ
 40
0.0
  9
$DIMTOL
 70
     0
  9
$DIMLIM
 70
     0
  9
$DIMTIH
 70
     1
  9
$DIMTOH
 70
     1
  9
$DIMSE1
 70
     0
  9
$DIMSE2
 70
     0
  9
$DIMTAD
 70
     0
  9
$DIMZIN
 70
     0
  9
$DIMBLK
  1

  9
$DIMASO
 70
     1
  9
$DIMSHO
 70
     1
  9
$DIMPOST
  1

  9
$DIMAPOST
  1

  9
$DIMALT
 70
     0
  9
$DIMALTD
 70
     2
  9
$DIMALTF
 40
25.4
  9
$DIMLFAC
 40
1.0
  9
$DIMTOFL
 70
     0
  9
$DIMTVP
 40
0.0
  9
$DIMTIX
 70
     0
  9
$DIMSOXD
 70
     0
  9
$DIMSAH
 70
     0
  9
$DIMBLK1
  1

  9
$DIMBLK2
  1

  9
$DIMSTYLE
  2
Standard
  9
$DIMCLRD
 70
     0
  9
$DIMCLRE
 70
     0
  9
$DIMCLRT
 70
     0
  9
$DIMTFAC
 40
1.0
  9
$DIMGAP
 40
0.09
  9
$DIMJUST
 70
     0
  9
$DIMSD1
 70
     0
  9
$DIMSD2
 70
     0
  9
$DIMTOLJ
 70
     1
  9
$DIMTZIN
 70
     0
  9
$DIMALTZ
 70
     0
  9
$DIMALTTZ
 70
     0
  9
$DIMUPT
 70
     0
  9
$DIMDEC
 70
     4
  9
$DIMTDEC
 70
     4
  9
$DIMALTU
 70
     2
  9
$DIMALTTD
 70
     2
  9
$DIMTXSTY
  7
Standard
  9
$DIMAUNIT
 70
     0
  9
$DIMADEC
 70
     0
  9
$DIMALTRND
 40
0.0
  9
$DIMAZIN
 70
     0
  9
$DIMDSEP
 70
    46
  9
$DIMATFIT
 70
     3
  9
$DIMFRAC
 70
     0
  9
$DIMLDRBLK
  1

  9
$DIMLUNIT
 70
     2
  9
$DIMLWD
 70
    -2
  9
$DIMLWE
 70
    -2
  9
$DIMTMOVE
 70
     0
  9
$DIMFXL
 40
1.0
  9
$DIMFXLON
 70
     0
  9
$DIMJOGANG
 40
0.7853981633974483
  9
$DIMTFILL
 70
     0
  9
$DIMTFILLCLR
 70
     0
  9
$DIMARCSYM
 70
     0
  9
$DIMLTYPE
  6

  9
$DIMLTEX1
  6

  9
$DIMLTEX2
  6

  9
$LUNITS
 70
     2
  9
$LUPREC
 70
     4
  9
$SKETCHINC
 40
0.1
  9
$FILLETRAD
 40
0.5
  9
$AUNITS
 70
     0
  9
$AUPREC
 70
     0
  9
$MENU
  1
.
  9
$ELEVATION
 40
0.0
  9
$PELEVATION
 40
0.0
  9
$THICKNESS
 40
0.0
  9
$LIMCHECK
 70
     0
  9
$CHAMFERA
 40
0.5
  9
$CHAMFERB
 40
0.5
  9
$CHAMFERC
 40
1.0
  9
$CHAMFERD
 40
0.0
  9
$SKPOLY
 70
     0
  9
$TDCREATE
 40
2460347.540334688
  9
$TDUCREATE
 40
2460347.540334688
  9
$TDUPDATE
 40
2460347.540334919
  9
$TDUUPDATE
 40
2460347.540334919
  9
$TDINDWG
 40
0.0000000116
  9
$TDUSRTIMER
 40
0.0000000116
  9
$USRTIMER
 70
     1
  9
$ANGBASE
 50
0.0
  9
$ANGDIR
 70
     0
  9
$PDMODE
 70
     0
  9
$PDSIZE
 40
0.0
  9
$PLINEWID
 40
0.0
  9
$SPLFRAME
 70
     0
  9
$SPLINETYPE
 70
     6
  9
$SPLINESEGS
 70
     8
  9
$HANDSEED
  5
9C
  9
$SURFTAB1
 70
     6
  9
$SURFTAB2
 70
     6
  9
$SURFTYPE
 70
     6
  9
$SURFU
 70
     6
  9
$SURFV
 70
     6
  9
$UCSBASE
  2

  9
$UCSNAME
  2

  9
$UCSORG
 10
0.0
 20
0.0
 30
0.0
  9
$UCSXDIR
 10
1.0
 20
0.0
 30
0.0
  9
$UCSYDIR
 10
0.0
 20
1.0
 30
0.0
  9
$UCSORTHOREF
  2

  9
$UCSORTHOVIEW
 70
     0
  9
$UCSORGTOP
 10
0.0
 20
0.0
 30
0.0
  9
$UCSORGBOTTOM
 10
0.0
 20
0.0
 30
0.0
  9
$UCSORGLEFT
 10
0.0
 20
0.0
 30
0.0
  9
$UCSORGRIGHT
 10
0.0
 20
0.0
 30
0.0
  9
$UCSORGFRONT
 10
0.0
 20
0.0
 30
0.0
  9
$UCSORGBACK
 10
0.0
 20
0.0
 30
0.0
  9
$PUCSBASE
  2

  9
$PUCSNAME
  2

  9
$PUCSORG
 10
0.0
 20
0.0
 30
0.0
  9
$PUCSXDIR
 10
1.0
 20
0.0
 30
0.0
  9
$PUCSYDIR
 10
0.0
 20
1.0
 30
0.0
  9
$PUCSORTHOREF
  2

  9
$PUCSORTHOVIEW
 70
     0
  9
$PUCSORGTOP
 10
0.0
 20
0.0
 30
0.0
  9
$PUCSORGBOTTOM
 10
0.0
 20
0.0
 30
0.0
  9
$PUCSORGLEFT
 10
0.0
 20
0.0
 30
0.0
  9
$PUCSORGRIGHT
 10
0.0
 20
0.0
 30
0.0
  9
$PUCSORGFRONT
 10
0.0
 20
0.0
 30
0.0
  9
$PUCSORGBACK
 10
0.0
 20
0.0
 30
0.0
  9
$USERI1
 70
     0
  9
$USERI2
 70
     0
  9
$USERI3
 70
     0
  9
$USERI4
 70
     0
  9
$USERI5
 70
     0
  9
$USERR1
 40
0.0
  9
$USERR2
 40
0.0
  9
$USERR3
 40
0.0
  9
$USERR4
 40
0.0
  9
$USERR5
 40
0.0
  9
$WORLDVIEW
 70
     1
  9
$SHADEDGE
 70
     3
  9
$SHADEDIF
 70
    70
  9
$TILEMODE
 70
     1
  9
$MAXACTVP
 70
    64
  9
$PINSBASE
 10
0.0
 20
0.0
 30
0.0
  9
$PLIMCHECK
 70
     0
  9
$PEXTMIN
 10
1.000000000000000E+20
 20
1.000000000000000E+20
 30
1.000000000000000E+20
  9
$PEXTMAX
 10
-1.000000000000000E+20
 20
-1.000000000000000E+20
 30
-1.000000000000000E+20
  9
$PLIMMIN
 10
0.0
 20
0.0
  9
$PLIMMAX
 10
12.0
 20
9.0
  9
$UNITMODE
 70
     0
  9
$VISRETAIN
 70
     1
  9
$PLINEGEN
 70
     0
  9
$PSLTSCALE
 70
     1
  9
$TREEDEPTH
 70
  3020
  9
$CMLSTYLE
  2
Standard
  9
$CMLJUST
 70
     0
  9
$CMLSCALE
 40
1.0
  9
$PROXYGRAPHICS
 70
     1
  9
$MEASUREMENT
 70
     0
  9
$CELWEIGHT
370
    -1
  9
$ENDCAPS
280
     0
  9
$JOINSTYLE
280
     0
  9
$LWDISPLAY
290
     0
  9
$INSUNITS
 70
     5
  9
$HYPERLINKBASE
  1

  9
$STYLESHEET
  1

  9
$XEDIT
290
     1
  9
$CEPSNTYPE
380
     0
  9
$PSTYLEMODE
290
     1
  9
$FINGERPRINTGUID
  2
{6F6C917C-86B2-4555-895F-8B13730E35B1}
  9
$VERSIONGUID
  2
{FAEB1C32-E019-11D5-929B-00C0DF256EC4}
  9
$EXTNAMES
290
     1
  9
$PSVPSCALE
 40
0.0
  9
$OLESTARTUP
290
     0
  9
$SORTENTS
280
   127
  9
$INDEXCTL
280
     0
  9
$HIDETEXT
280
     1
  9
$XCLIPFRAME
290
     0
  9
$HALOGAP
280
     0
  9
$OBSCOLOR
 70
   257
  9
$OBSLTYPE
280
     0
  9
$INTERSECTIONDISPLAY
280
     0
  9
$INTERSECTIONCOLOR
 70
   257
  9
$DIMASSOC
280
     2
  9
$PROJECTNAME
  1

  9
$CAMERADISPLAY
290
     0
  9
$LENSLENGTH
 40
50.0
  9
$CAMERAHEIGHT
 40
0.0
  9
$STEPSPERSEC
 40
2.0
  9
$STEPSIZE
 40
6.0
  9
$3DDWFPREC
 40
2.0
  9
$PSOLWIDTH
 40
0.25
  9
$PSOLHEIGHT
 40
4.0
  9
$LOFTANG1
 40
1.570796326794897
  9
$LOFTANG2
 40
1.570796326794897
  9
$LOFTMAG1
 40
0.0
  9
$LOFTMAG2
 40
0.0
  9
$LOFTPARAM
 70
     7
  9
$LOFTNORMALS
280
     1
  9
$LATITUDE
 40
37.795
  9
$LONGITUDE
 40
-122.394
  9
$NORTHDIRECTION
 40
0.0
  9
$TIMEZONE
 70
 -8000
  9
$LIGHTGLYPHDISPLAY
280
     1
  9
$TILEMODELIGHTSYNCH
280
     1
  9
$SOLIDHIST
280
     1
  9
$SHOWHIST
280
     1
  9
$DWFFRAME
280
     2
  9
$DGNFRAME
280
     2
  9
$REALWORLDSCALE
290
     1
  9
$INTERFERECOLOR
 62
   256
  9
$CSHADOW
280
     0
  9
$SHADOWPLANELOCATION
 40
0.0
  0
ENDSEC
  0
SECTION
  2
CLASSES
  0
CLASS
  1
ACDBDICTIONARYWDFLT
  2
AcDbDictionaryWithDefault
  3
ObjectDBX Classes
 90
        0
 91
        4
280
     0
281
     0
  0
CLASS
  1
VISUALSTYLE
  2
AcDbVisualStyle
  3
ObjectDBX Classes
 90
     4095
 91
        4
280
     0
281
     0
  0
CLASS
  1
MATERIAL
  2
AcDbMaterial
  3
ObjectDBX Classes
 90
     1153
 91
        4
280
     0
281
     0
  0
ENDSEC
  0
SECTION
  2
TABLES
  0
TABLE
  2
VPORT
  5
8
330
0
100
AcDbSymbolTable
 70
     1
  0
VPORT
  5
29
330
8
100
AcDbSymbolTableRecord
100
AcDbViewportTableRecord
  2
*Active
 70
     0
 10
0.0
 20
0.0
 11
1.0
 21
1.0
 12
10.42990654205607
 22
4.5
 13
0.0
 23
0.0
 14
0.5
 24
0.5
 15
0.5
 25
0.5
 16
0.0
 26
0.0
 36
1.0
 17
0.0
 27
0.0
 37
0.0
 40
9.0
 41
1.972972972850329
 42
50.0
 43
0.0
 44
0.0
 50
0.0
 51
0.0
 71
     0
 72
   100
 73
     1
 74
     3
 75
     0
 76
     0
 77
     0
 78
     0
281
     0
 65
     1
110
0.0
120
0.0
130
0.0
111
1.0
121
0.0
131
0.0
112
0.0
122
1.0
132
0.0
 79
     0
146
0.0
 60
     3
 61
     5
292
     1
282
     1
141
0.0
142
0.0
 63
   250
  0
ENDTAB
  0
TABLE
  2
LTYPE
  5
5
330
0
100
AcDbSymbolTable
 70
     1
  0
LTYPE
  5
14
330
5
100
AcDbSymbolTableRecord
100
AcDbLinetypeTableRecord
  2
ByBlock
 70
     0
  3

 72
    65
 73
     0
 40
0.0
  0
LTYPE
  5
15
330
5
100
AcDbSymbolTableRecord
100
AcDbLinetypeTableRecord
  2
ByLayer
 70
     0
  3

 72
    65
 73
     0
 40
0.0
  0
LTYPE
  5
16
330
5
100
AcDbSymbolTableRecord
100
AcDbLinetypeTableRecord
  2
Continuous
 70
     0
  3
Solid line
 72
    65
 73
     0
 40
0.0
  0
ENDTAB
  0
TABLE
  2
LAYER
  5
2
330
0
100
AcDbSymbolTable
 70
     2
  0
LAYER
  5
10
330
2
100
AcDbSymbolTableRecord
100
AcDbLayerTableRecord
  2
0
 70
     0
 62
     7
  6
Continuous
370
    -3
390
F
347
3E
  0
LAYER
  5
40
330
2
100
AcDbSymbolTableRecord
100
AcDbLayerTableRecord
  2
Layer 1
 70
     0
 62
     7
  6
Continuous
370
    -3
390
F
347
3E
  0
ENDTAB
  0
TABLE
  2
STYLE
  5
3
330
0
100
AcDbSymbolTable
 70
     1
  0
STYLE
  5
11
330
3
100
AcDbSymbolTableRecord
100
AcDbTextStyleTableRecord
  2
Standard
 70
     0
 40
0.0
 41
1.0
 50
0.0
 71
     0
 42
0.2
  3
txt
  4

  0
ENDTAB
  0
TABLE
  2
VIEW
  5
6
330
0
100
AcDbSymbolTable
 70
     0
  0
ENDTAB
  0
TABLE
  2
UCS
  5
7
330
0
100
AcDbSymbolTable
 70
     0
  0
ENDTAB
  0
TABLE
  2
APPID
  5
9
330
0
100
AcDbSymbolTable
 70
     2
  0
APPID
  5
12
330
9
100
AcDbSymbolTableRecord
100
AcDbRegAppTableRecord
  2
ACAD
 70
     0
  0
APPID
  5
3F
330
9
100
AcDbSymbolTableRecord
100
AcDbRegAppTableRecord
  2
ODA
 70
     0
  0
ENDTAB
  0
TABLE
  2
DIMSTYLE
  5
A
330
0
100
AcDbSymbolTable
 70
     1
100
AcDbDimStyleTable
  0
DIMSTYLE
105
27
330
A
100
AcDbSymbolTableRecord
100
AcDbDimStyleTableRecord
  2
Standard
 70
     0
178
     0
340
11
  0
ENDTAB
  0
TABLE
  2
BLOCK_RECORD
  5
1
330
0
100
AcDbSymbolTable
 70
     1
  0
BLOCK_RECORD
  5
1F
330
1
100
AcDbSymbolTableRecord
100
AcDbBlockTableRecord
  2
*Model_Space
340
22
 70
     0
280
     1
281
     0
  0
BLOCK_RECORD
  5
1B
330
1
100
AcDbSymbolTableRecord
100
AcDbBlockTableRecord
  2
*Paper_Space
340
1E
 70
     0
280
     1
281
     0
  0
BLOCK_RECORD
  5
23
330
1
100
AcDbSymbolTableRecord
100
AcDbBlockTableRecord
  2
*Paper_Space0
340
26
 70
     0
280
     1
281
     0
  0
ENDTAB
  0
ENDSEC
  0
SECTION
  2
BLOCKS
  0
BLOCK
  5
20
330
1F
100
AcDbEntity
  8
0
100
AcDbBlockBegin
  2
*Model_Space
 70
     0
 10
0.0
 20
0.0
 30
0.0
  3
*Model_Space
  1

  0
ENDBLK
  5
21
330
1F
100
AcDbEntity
  8
0
100
AcDbBlockEnd
  0
BLOCK
  5
1C
330
1B
100
AcDbEntity
 67
     1
  8
0
100
AcDbBlockBegin
  2
*Paper_Space
 70
     0
 10
0.0
 20
0.0
 30
0.0
  3
*Paper_Space
  1

  0
ENDBLK
  5
1D
330
1B
100
AcDbEntity
 67
     1
  8
0
100
AcDbBlockEnd
  0
BLOCK
  5
24
330
23
100
AcDbEntity
  8
0
100
AcDbBlockBegin
  2
*Paper_Space0
 70
     0
 10
0.0
 20
0.0
 30
0.0
  3
*Paper_Space0
  1

  0
ENDBLK
  5
25
330
23
100
AcDbEntity
  8
0
100
AcDbBlockEnd
  0
ENDSEC
  0
SECTION
  2
ENTITIES
  0
SPLINE
  5
41
330
1F
100
AcDbEntity
  8
Layer 1
100
AcDbSpline
210
0.0
220
0.0
230
1.0
 70
    11
 71
     3
 72
    60
 73
    56
 74
     0
 42
0.0000000001
 43
0.0000000001
 12
1.0
 22
0.0
 32
0.0
 13
1.0
 23
0.0
 33
0.0
 40
0.0
 40
0.0
 40
0.0
 40
0.0
 40
0.0666666666666667
 40
0.0666666666666667
 40
0.0666666666666667
 40
0.0666666666666667
 40
0.1333333333333333
 40
0.1333333333333333
 40
0.1333333333333333
 40
0.1333333333333333
 40
0.2
 40
0.2
 40
0.2
 40
0.2
 40
0.2666666666666667
 40
0.2666666666666667
 40
0.2666666666666667
 40
0.2666666666666667
 40
0.3333333333333333
 40
0.3333333333333333
 40
0.3333333333333333
 40
0.3333333333333333
 40
0.4
 40
0.4
 40
0.4
 40
0.4
 40
0.4666666666666667
 40
0.4666666666666667
 40
0.4666666666666667
 40
0.4666666666666667
 40
0.5333333333333333
 40
0.5333333333333333
 40
0.5333333333333333
 40
0.5333333333333333
 40
0.6
 40
0.6
 40
0.6
 40
0.6
 40
0.6666666666666666
 40
0.6666666666666666
 40
0.6666666666666666
 40
0.6666666666666666
 40
0.7333333333333333
 40
0.7333333333333333
 40
0.7333333333333333
 40
0.7333333333333333
 40
0.8
 40
0.8
 40
0.8
 40
0.8
 40
0.8666666666666667
 40
0.8666666666666667
 40
0.8666666666666667
 40
0.8666666666666667
 40
1.0
 40
1.0
 40
1.0
 40
1.0
 10
-10.40214
 20
27.46108
 30
0.0
 10
-10.56004
 20
27.41367
 30
0.0
 10
-10.69636
 20
27.38996
 30
0.0
 10
-10.81108
 20
27.38996
 30
0.0
 10
-10.81108
 20
27.38996
 30
0.0
 10
-10.99311
 20
27.38996
 30
0.0
 10
-11.14382
 20
27.45727
 30
0.0
 10
-11.26362
 20
27.59147
 30
0.0
 10
-11.26362
 20
27.59147
 30
0.0
 10
-11.38343
 20
27.72609
 30
0.0
 10
-11.44354
 20
27.89584
 30
0.0
 10
-11.44354
 20
28.10031
 30
0.0
 10
-11.44354
 20
28.10031
 30
0.0
 10
-11.44354
 20
28.31875
 30
0.0
 10
-11.38427
 20
28.48936
 30
0.0
 10
-11.26574
 20
28.61128
 30
0.0
 10
-11.26574
 20
28.61128
 30
0.0
 10
-11.14721
 20
28.73362
 30
0.0
 10
-10.98168
 20
28.79458
 30
0.0
 10
-10.76917
 20
28.79458
 30
0.0
 10
-10.76917
 20
28.79458
 30
0.0
 10
-10.66461
 20
28.79458
 30
0.0
 10
-10.54692
 20
28.78019
 30
0.0
 10
-10.41738
 20
28.7514
 30
0.0
 10
-10.41738
 20
28.7514
 30
0.0
 10
-10.41738
 20
28.7514
 30
0.0
 10
-10.41738
 20
28.54566
 30
0.0
 10
-10.41738
 20
28.54566
 30
0.0
 10
-10.41738
 20
28.54566
 30
0.0
 10
-10.55496
 20
28.5863
 30
0.0
 10
-10.66715
 20
28.60662
 30
0.0
 10
-10.75351
 20
28.60662
 30
0.0
 10
-10.75351
 20
28.60662
 30
0.0
 10
-10.87881
 20
28.60662
 30
0.0
 10
-10.97914
 20
28.55963
 30
0.0
 10
-11.05407
 20
28.46607
 30
0.0
 10
-11.05407
 20
28.46607
 30
0.0
 10
-11.129
 20
28.37252
 30
0.0
 10
-11.16668
 20
28.24763
 30
0.0
 10
-11.16668
 20
28.09185
 30
0.0
 10
-11.16668
 20
28.09185
 30
0.0
 10
-11.16668
 20
27.94072
 30
0.0
 10
-11.12773
 20
27.8188
 30
0.0
 10
-11.05026
 20
27.72524
 30
0.0
 10
-11.05026
 20
27.72524
 30
0.0
 10
-10.97279
 20
27.63211
 30
0.0
 10
-10.87162
 20
27.58554
 30
0.0
 10
-10.74589
 20
27.58554
 30
0.0
 10
-10.74589
 20
27.58554
 30
0.0
 10
-10.63455
 20
27.58554
 30
0.0
 10
-10.52025
 20
27.61433
 30
0.0
 10
-10.40214
 20
27.6719
 30
0.0
 10
-10.40214
 20
27.6719
 30
0.0
 10
-10.40214
 20
27.6719
 30
0.0
 10
-10.40214
 20
27.46108
 30
0.0
 10
-10.40214
 20
27.46108
 30
0.0
  0
SPLINE
  5
42
330
1F
100
AcDbEntity
  8
Layer 1
100
AcDbSpline
210
0.0
220
0.0
230
1.0
 70
    11
 71
     3
 72
    36
 73
    32
 74
     0
 42
0.0000000001
 43
0.0000000001
 12
1.0
 22
0.0
 32
0.0
 13
1.0
 23
0.0
 33
0.0
 40
0.0
 40
0.0
 40
0.0
 40
0.0
 40
0.1111111111111111
 40
0.1111111111111111
 40
0.1111111111111111
 40
0.1111111111111111
 40
0.2222222222222222
 40
0.2222222222222222
 40
0.2222222222222222
 40
0.2222222222222222
 40
0.3333333333333333
 40
0.3333333333333333
 40
0.3333333333333333
 40
0.3333333333333333
 40
0.4444444444444444
 40
0.4444444444444444
 40
0.4444444444444444
 40
0.4444444444444444
 40
0.5555555555555556
 40
0.5555555555555556
 40
0.5555555555555556
 40
0.5555555555555556
 40
0.6666666666666666
 40
0.6666666666666666
 40
0.6666666666666666
 40
0.6666666666666666
 40
0.7777777777777778
 40
0.7777777777777778
 40
0.7777777777777778
 40
0.7777777777777778
 40
1.0
 40
1.0
 40
1.0
 40
1.0
 10
-9.50002
 20
27.38996
 30
0.0
 10
-9.69772
 20
27.38996
 30
0.0
 10
-9.85435
 20
27.45304
 30
0.0
 10
-9.9695
 20
27.57919
 30
0.0
 10
-9.9695
 20
27.57919
 30
0.0
 10
-10.08507
 20
27.70534
 30
0.0
 10
-10.14264
 20
27.87679
 30
0.0
 10
-10.14264
 20
28.09312
 30
0.0
 10
-10.14264
 20
28.09312
 30
0.0
 10
-10.14264
 20
28.30902
 30
0.0
 10
-10.08507
 20
28.48004
 30
0.0
 10
-9.9695
 20
28.60577
 30
0.0
 10
-9.9695
 20
28.60577
 30
0.0
 10
-9.85435
 20
28.7315
 30
0.0
 10
-9.69772
 20
28.79458
 30
0.0
 10
-9.50002
 20
28.79458
 30
0.0
 10
-9.50002
 20
28.79458
 30
0.0
 10
-9.30232
 20
28.79458
 30
0.0
 10
-9.14569
 20
28.7315
 30
0.0
 10
-9.03054
 20
28.60577
 30
0.0
 10
-9.03054
 20
28.60577
 30
0.0
 10
-8.91497
 20
28.48004
 30
0.0
 10
-8.8574
 20
28.30902
 30
0.0
 10
-8.8574
 20
28.09312
 30
0.0
 10
-8.8574
 20
28.09312
 30
0.0
 10
-8.8574
 20
27.87679
 30
0.0
 10
-8.91497
 20
27.70534
 30
0.0
 10
-9.03054
 20
27.57919
 30
0.0
 10
-9.03054
 20
27.57919
 30
0.0
 10
-9.14569
 20
27.45304
 30
0.0
 10
-9.30232
 20
27.38996
 30
0.0
 10
-9.50002
 20
27.38996
 30
0.0
  0
SPLINE
  5
43
330
1F
100
AcDbEntity
  8
Layer 1
100
AcDbSpline
210
0.0
220
0.0
230
1.0
 70
    11
 71
     3
 72
    36
 73
    32
 74
     0
 42
0.0000000001
 43
0.0000000001
 12
1.0
 22
0.0
 32
0.0
 13
1.0
 23
0.0
 33
0.0
 40
0.0
 40
0.0
 40
0.0
 40
0.0
 40
0.1111111111111111
 40
0.1111111111111111
 40
0.1111111111111111
 40
0.1111111111111111
 40
0.2222222222222222
 40
0.2222222222222222
 40
0.2222222222222222
 40
0.2222222222222222
 40
0.3333333333333333
 40
0.3333333333333333
 40
0.3333333333333333
 40
0.3333333333333333
 40
0.4444444444444444
 40
0.4444444444444444
 40
0.4444444444444444
 40
0.4444444444444444
 40
0.5555555555555556
 40
0.5555555555555556
 40
0.5555555555555556
 40
0.5555555555555556
 40
0.6666666666666666
 40
0.6666666666666666
 40
0.6666666666666666
 40
0.6666666666666666
 40
0.7777777777777778
 40
0.7777777777777778
 40
0.7777777777777778
 40
0.7777777777777778
 40
1.0
 40
1.0
 40
1.0
 40
1.0
 10
-9.50044
 20
27.57284
 30
0.0
 10
-9.37979
 20
27.57284
 30
0.0
 10
-9.28581
 20
27.61814
 30
0.0
 10
-9.21893
 20
27.70915
 30
0.0
 10
-9.21893
 20
27.70915
 30
0.0
 10
-9.15246
 20
27.79975
 30
0.0
 10
-9.11902
 20
27.92802
 30
0.0
 10
-9.11902
 20
28.09312
 30
0.0
 10
-9.11902
 20
28.09312
 30
0.0
 10
-9.11902
 20
28.25779
 30
0.0
 10
-9.15246
 20
28.38564
 30
0.0
 10
-9.21893
 20
28.47623
 30
0.0
 10
-9.21893
 20
28.47623
 30
0.0
 10
-9.28581
 20
28.5664
 30
0.0
 10
-9.37979
 20
28.6117
 30
0.0
 10
-9.50044
 20
28.6117
 30
0.0
 10
-9.50044
 20
28.6117
 30
0.0
 10
-9.62152
 20
28.6117
 30
0.0
 10
-9.7155
 20
28.5664
 30
0.0
 10
-9.78154
 20
28.47623
 30
0.0
 10
-9.78154
 20
28.47623
 30
0.0
 10
-9.848
 20
28.38564
 30
0.0
 10
-9.88102
 20
28.25779
 30
0.0
 10
-9.88102
 20
28.09312
 30
0.0
 10
-9.88102
 20
28.09312
 30
0.0
 10
-9.88102
 20
27.92802
 30
0.0
 10
-9.848
 20
27.79975
 30
0.0
 10
-9.78154
 20
27.70915
 30
0.0
 10
-9.78154
 20
27.70915
 30
0.0
 10
-9.7155
 20
27.61814
 30
0.0
 10
-9.62152
 20
27.57284
 30
0.0
 10
-9.50044
 20
27.57284
 30
0.0
  0
SPLINE
  5
44
330
1F
100
AcDbEntity
  8
Layer 1
100
AcDbSpline
210
0.0
220
0.0
230
1.0
 70
    11
 71
     3
 72
    84
 73
    80
 74
     0
 42
0.0000000001
 43
0.0000000001
 12
1.0
 22
0.0
 32
0.0
 13
1.0
 23
0.0
 33
0.0
 40
0.0
 40
0.0
 40
0.0
 40
0.0
 40
0.0476190476190476
 40
0.0476190476190476
 40
0.0476190476190476
 40
0.0476190476190476
 40
0.0952380952380952
 40
0.0952380952380952
 40
0.0952380952380952
 40
0.0952380952380952
 40
0.1428571428571428
 40
0.1428571428571428
 40
0.1428571428571428
 40
0.1428571428571428
 40
0.1904761904761905
 40
0.1904761904761905
 40
0.1904761904761905
 40
0.1904761904761905
 40
0.2380952380952381
 40
0.2380952380952381
 40
0.2380952380952381
 40
0.2380952380952381
 40
0.2857142857142857
 40
0.2857142857142857
 40
0.2857142857142857
 40
0.2857142857142857
 40
0.3333333333333333
 40
0.3333333333333333
 40
0.3333333333333333
 40
0.3333333333333333
 40
0.3809523809523809
 40
0.3809523809523809
 40
0.3809523809523809
 40
0.3809523809523809
 40
0.4285714285714285
 40
0.4285714285714285
 40
0.4285714285714285
 40
0.4285714285714285
 40
0.4761904761904762
 40
0.4761904761904762
 40
0.4761904761904762
 40
0.4761904761904762
 40
0.5238095238095238
 40
0.5238095238095238
 40
0.5238095238095238
 40
0.5238095238095238
 40
0.5714285714285714
 40
0.5714285714285714
 40
0.5714285714285714
 40
0.5714285714285714
 40
0.6190476190476191
 40
0.6190476190476191
 40
0.6190476190476191
 40
0.6190476190476191
 40
0.6666666666666666
 40
0.6666666666666666
 40
0.6666666666666666
 40
0.6666666666666666
 40
0.7142857142857143
 40
0.7142857142857143
 40
0.7142857142857143
 40
0.7142857142857143
 40
0.7619047619047619
 40
0.7619047619047619
 40
0.7619047619047619
 40
0.7619047619047619
 40
0.8095238095238095
 40
0.8095238095238095
 40
0.8095238095238095
 40
0.8095238095238095
 40
0.8571428571428571
 40
0.8571428571428571
 40
0.8571428571428571
 40
0.8571428571428571
 40
0.9047619047619048
 40
0.9047619047619048
 40
0.9047619047619048
 40
0.9047619047619048
 40
1.0
 40
1.0
 40
1.0
 40
1.0
 10
-8.47555
 20
27.42044
 30
0.0
 10
-8.47555
 20
27.42044
 30
0.0
 10
-8.47555
 20
28.76664
 30
0.0
 10
-8.47555
 20
28.76664
 30
0.0
 10
-8.47555
 20
28.76664
 30
0.0
 10
-8.47555
 20
28.76664
 30
0.0
 10
-8.23171
 20
28.76664
 30
0.0
 10
-8.23171
 20
28.76664
 30
0.0
 10
-8.23171
 20
28.76664
 30
0.0
 10
-8.23171
 20
28.76664
 30
0.0
 10
-8.23171
 20
28.51222
 30
0.0
 10
-8.23171
 20
28.51222
 30
0.0
 10
-8.23171
 20
28.51222
 30
0.0
 10
-8.11275
 20
28.7006
 30
0.0
 10
-7.96035
 20
28.79458
 30
0.0
 10
-7.77366
 20
28.79458
 30
0.0
 10
-7.77366
 20
28.79458
 30
0.0
 10
-7.59375
 20
28.79458
 30
0.0
 10
-7.4714
 20
28.7006
 30
0.0
 10
-7.40621
 20
28.51222
 30
0.0
 10
-7.40621
 20
28.51222
 30
0.0
 10
-7.29064
 20
28.70229
 30
0.0
 10
-7.13993
 20
28.79712
 30
0.0
 10
-6.95494
 20
28.79712
 30
0.0
 10
-6.95494
 20
28.79712
 30
0.0
 10
-6.83683
 20
28.79712
 30
0.0
 10
-6.74496
 20
28.76241
 30
0.0
 10
-6.67935
 20
28.69256
 30
0.0
 10
-6.67935
 20
28.69256
 30
0.0
 10
-6.61373
 20
28.62271
 30
0.0
 10
-6.58071
 20
28.52492
 30
0.0
 10
-6.58071
 20
28.39919
 30
0.0
 10
-6.58071
 20
28.39919
 30
0.0
 10
-6.58071
 20
28.39919
 30
0.0
 10
-6.58071
 20
27.42044
 30
0.0
 10
-6.58071
 20
27.42044
 30
0.0
 10
-6.58071
 20
27.42044
 30
0.0
 10
-6.58071
 20
27.42044
 30
0.0
 10
-6.82455
 20
27.42044
 30
0.0
 10
-6.82455
 20
27.42044
 30
0.0
 10
-6.82455
 20
27.42044
 30
0.0
 10
-6.82455
 20
27.42044
 30
0.0
 10
-6.82455
 20
28.35897
 30
0.0
 10
-6.82455
 20
28.35897
 30
0.0
 10
-6.82455
 20
28.35897
 30
0.0
 10
-6.82455
 20
28.51222
 30
0.0
 10
-6.88551
 20
28.58884
 30
0.0
 10
-7.00743
 20
28.58884
 30
0.0
 10
-7.00743
 20
28.58884
 30
0.0
 10
-7.13401
 20
28.58884
 30
0.0
 10
-7.26693
 20
28.49952
 30
0.0
 10
-7.40621
 20
28.32045
 30
0.0
 10
-7.40621
 20
28.32045
 30
0.0
 10
-7.40621
 20
28.32045
 30
0.0
 10
-7.40621
 20
27.42044
 30
0.0
 10
-7.40621
 20
27.42044
 30
0.0
 10
-7.40621
 20
27.42044
 30
0.0
 10
-7.40621
 20
27.42044
 30
0.0
 10
-7.65005
 20
27.42044
 30
0.0
 10
-7.65005
 20
27.42044
 30
0.0
 10
-7.65005
 20
27.42044
 30
0.0
 10
-7.65005
 20
27.42044
 30
0.0
 10
-7.65005
 20
28.35982
 30
0.0
 10
-7.65005
 20
28.35982
 30
0.0
 10
-7.65005
 20
28.35982
 30
0.0
 10
-7.65005
 20
28.51433
 30
0.0
 10
-7.71186
 20
28.59138
 30
0.0
 10
-7.83589
 20
28.59138
 30
0.0
 10
-7.83589
 20
28.59138
 30
0.0
 10
-7.95908
 20
28.59138
 30
0.0
 10
-8.09116
 20
28.50163
 30
0.0
 10
-8.23171
 20
28.32172
 30
0.0
 10
-8.23171
 20
28.32172
 30
0.0
 10
-8.23171
 20
28.32172
 30
0.0
 10
-8.23171
 20
27.42044
 30
0.0
 10
-8.23171
 20
27.42044
 30
0.0
 10
-8.23171
 20
27.42044
 30
0.0
 10
-8.23171
 20
27.42044
 30
0.0
 10
-8.47555
 20
27.42044
 30
0.0
 10
-8.47555
 20
27.42044
 30
0.0
  0
SPLINE
  5
45
330
1F
100
AcDbEntity
  8
Layer 1
100
AcDbSpline
210
0.0
220
0.0
230
1.0
 70
    11
 71
     3
 72
    48
 73
    44
 74
     0
 42
0.0000000001
 43
0.0000000001
 12
1.0
 22
0.0
 32
0.0
 13
1.0
 23
0.0
 33
0.0
 40
0.0
 40
0.0
 40
0.0
 40
0.0
 40
0.0833333333333333
 40
0.0833333333333333
 40
0.0833333333333333
 40
0.0833333333333333
 40
0.1666666666666667
 40
0.1666666666666667
 40
0.1666666666666667
 40
0.1666666666666667
 40
0.25
 40
0.25
 40
0.25
 40
0.25
 40
0.3333333333333333
 40
0.3333333333333333
 40
0.3333333333333333
 40
0.3333333333333333
 40
0.4166666666666667
 40
0.4166666666666667
 40
0.4166666666666667
 40
0.4166666666666667
 40
0.5
 40
0.5
 40
0.5
 40
0.5
 40
0.5833333333333334
 40
0.5833333333333334
 40
0.5833333333333334
 40
0.5833333333333334
 40
0.6666666666666666
 40
0.6666666666666666
 40
0.6666666666666666
 40
0.6666666666666666
 40
0.75
 40
0.75
 40
0.75
 40
0.75
 40
0.8333333333333334
 40
0.8333333333333334
 40
0.8333333333333334
 40
0.8333333333333334
 40
1.0
 40
1.0
 40
1.0
 40
1.0
 10
-6.10404
 20
26.93022
 30
0.0
 10
-6.10404
 20
26.93022
 30
0.0
 10
-6.10404
 20
28.76664
 30
0.0
 10
-6.10404
 20
28.76664
 30
0.0
 10
-6.10404
 20
28.76664
 30
0.0
 10
-6.10404
 20
28.76664
 30
0.0
 10
-5.8602
 20
28.76664
 30
0.0
 10
-5.8602
 20
28.76664
 30
0.0
 10
-5.8602
 20
28.76664
 30
0.0
 10
-5.8602
 20
28.76664
 30
0.0
 10
-5.8602
 20
28.51222
 30
0.0
 10
-5.8602
 20
28.51222
 30
0.0
 10
-5.8602
 20
28.51222
 30
0.0
 10
-5.76029
 20
28.7006
 30
0.0
 10
-5.61001
 20
28.79458
 30
0.0
 10
-5.40977
 20
28.79458
 30
0.0
 10
-5.40977
 20
28.79458
 30
0.0
 10
-5.24764
 20
28.79458
 30
0.0
 10
-5.12021
 20
28.73574
 30
0.0
 10
-5.02708
 20
28.61763
 30
0.0
 10
-5.02708
 20
28.61763
 30
0.0
 10
-4.93395
 20
28.49952
 30
0.0
 10
-4.88738
 20
28.33823
 30
0.0
 10
-4.88738
 20
28.13376
 30
0.0
 10
-4.88738
 20
28.13376
 30
0.0
 10
-4.88738
 20
27.91108
 30
0.0
 10
-4.9403
 20
27.73117
 30
0.0
 10
-5.04571
 20
27.59485
 30
0.0
 10
-5.04571
 20
27.59485
 30
0.0
 10
-5.15112
 20
27.45812
 30
0.0
 10
-5.28997
 20
27.38996
 30
0.0
 10
-5.46184
 20
27.38996
 30
0.0
 10
-5.46184
 20
27.38996
 30
0.0
 10
-5.62144
 20
27.38996
 30
0.0
 10
-5.75437
 20
27.45092
 30
0.0
 10
-5.8602
 20
27.57326
 30
0.0
 10
-5.8602
 20
27.57326
 30
0.0
 10
-5.8602
 20
27.57326
 30
0.0
 10
-5.8602
 20
26.93022
 30
0.0
 10
-5.8602
 20
26.93022
 30
0.0
 10
-5.8602
 20
26.93022
 30
0.0
 10
-5.8602
 20
26.93022
 30
0.0
 10
-6.10404
 20
26.93022
 30
0.0
 10
-6.10404
 20
26.93022
 30
0.0
  0
SPLINE
  5
46
330
1F
100
AcDbEntity
  8
Layer 1
100
AcDbSpline
210
0.0
220
0.0
230
1.0
 70
    11
 71
     3
 72
    28
 73
    24
 74
     0
 42
0.0000000001
 43
0.0000000001
 12
1.0
 22
0.0
 32
0.0
 13
1.0
 23
0.0
 33
0.0
 40
0.0
 40
0.0
 40
0.0
 40
0.0
 40
0.1428571428571428
 40
0.1428571428571428
 40
0.1428571428571428
 40
0.1428571428571428
 40
0.2857142857142857
 40
0.2857142857142857
 40
0.2857142857142857
 40
0.2857142857142857
 40
0.4285714285714285
 40
0.4285714285714285
 40
0.4285714285714285
 40
0.4285714285714285
 40
0.5714285714285714
 40
0.5714285714285714
 40
0.5714285714285714
 40
0.5714285714285714
 40
0.7142857142857143
 40
0.7142857142857143
 40
0.7142857142857143
 40
0.7142857142857143
 40
1.0
 40
1.0
 40
1.0
 40
1.0
 10
-5.8602
 20
27.74133
 30
0.0
 10
-5.73447
 20
27.62914
 30
0.0
 10
-5.61467
 20
27.57284
 30
0.0
 10
-5.50079
 20
27.57284
 30
0.0
 10
-5.50079
 20
27.57284
 30
0.0
 10
-5.38861
 20
27.57284
 30
0.0
 10
-5.30182
 20
27.61983
 30
0.0
 10
-5.24086
 20
27.71339
 30
0.0
 10
-5.24086
 20
27.71339
 30
0.0
 10
-5.17948
 20
27.80694
 30
0.0
 10
-5.149
 20
27.9386
 30
0.0
 10
-5.149
 20
28.10878
 30
0.0
 10
-5.149
 20
28.10878
 30
0.0
 10
-5.149
 20
28.42374
 30
0.0
 10
-5.25314
 20
28.58122
 30
0.0
 10
-5.46142
 20
28.58122
 30
0.0
 10
-5.46142
 20
28.58122
 30
0.0
 10
-5.59773
 20
28.58122
 30
0.0
 10
-5.73066
 20
28.50756
 30
0.0
 10
-5.8602
 20
28.35982
 30
0.0
 10
-5.8602
 20
28.35982
 30
0.0
 10
-5.8602
 20
28.35982
 30
0.0
 10
-5.8602
 20
27.74133
 30
0.0
 10
-5.8602
 20
27.74133
 30
0.0
  0
SPLINE
  5
47
330
1F
100
AcDbEntity
  8
Layer 1
100
AcDbSpline
210
0.0
220
0.0
230
1.0
 70
    11
 71
     3
 72
    60
 73
    56
 74
     0
 42
0.0000000001
 43
0.0000000001
 12
1.0
 22
0.0
 32
0.0
 13
1.0
 23
0.0
 33
0.0
 40
0.0
 40
0.0
 40
0.0
 40
0.0
 40
0.0666666666666667
 40
0.0666666666666667
 40
0.0666666666666667
 40
0.0666666666666667
 40
0.1333333333333333
 40
0.1333333333333333
 40
0.1333333333333333
 40
0.1333333333333333
 40
0.2
 40
0.2
 40
0.2
 40
0.2
 40
0.2666666666666667
 40
0.2666666666666667
 40
0.2666666666666667
 40
0.2666666666666667
 40
0.3333333333333333
 40
0.3333333333333333
 40
0.3333333333333333
 40
0.3333333333333333
 40
0.4
 40
0.4
 40
0.4
 40
0.4
 40
0.4666666666666667
 40
0.4666666666666667
 40
0.4666666666666667
 40
0.4666666666666667
 40
0.5333333333333333
 40
0.5333333333333333
 40
0.5333333333333333
 40
0.5333333333333333
 40
0.6
 40
0.6
 40
0.6
 40
0.6
 40
0.6666666666666666
 40
0.6666666666666666
 40
0.6666666666666666
 40
0.6666666666666666
 40
0.7333333333333333
 40
0.7333333333333333
 40
0.7333333333333333
 40
0.7333333333333333
 40
0.8
 40
0.8
 40
0.8
 40
0.8
 40
0.8666666666666667
 40
0.8666666666666667
 40
0.8666666666666667
 40
0.8666666666666667
 40
1.0
 40
1.0
 40
1.0
 40
1.0
 10
-3.66225
 20
27.42044
 30
0.0
 10
-3.66225
 20
27.42044
 30
0.0
 10
-3.66225
 20
27.67359
 30
0.0
 10
-3.66225
 20
27.67359
 30
0.0
 10
-3.66225
 20
27.67359
 30
0.0
 10
-3.79221
 20
27.48436
 30
0.0
 10
-3.95012
 20
27.38996
 30
0.0
 10
-4.13554
 20
27.38996
 30
0.0
 10
-4.13554
 20
27.38996
 30
0.0
 10
-4.25322
 20
27.38996
 30
0.0
 10
-4.34678
 20
27.42679
 30
0.0
 10
-4.41621
 20
27.50087
 30
0.0
 10
-4.41621
 20
27.50087
 30
0.0
 10
-4.48606
 20
27.57496
 30
0.0
 10
-4.52077
 20
27.67444
 30
0.0
 10
-4.52077
 20
27.80017
 30
0.0
 10
-4.52077
 20
27.80017
 30
0.0
 10
-4.52077
 20
27.80017
 30
0.0
 10
-4.52077
 20
28.76664
 30
0.0
 10
-4.52077
 20
28.76664
 30
0.0
 10
-4.52077
 20
28.76664
 30
0.0
 10
-4.52077
 20
28.76664
 30
0.0
 10
-4.27693
 20
28.76664
 30
0.0
 10
-4.27693
 20
28.76664
 30
0.0
 10
-4.27693
 20
28.76664
 30
0.0
 10
-4.27693
 20
28.76664
 30
0.0
 10
-4.27693
 20
27.87976
 30
0.0
 10
-4.27693
 20
27.87976
 30
0.0
 10
-4.27693
 20
27.87976
 30
0.0
 10
-4.27693
 20
27.77858
 30
0.0
 10
-4.26211
 20
27.70704
 30
0.0
 10
-4.2329
 20
27.6647
 30
0.0
 10
-4.2329
 20
27.6647
 30
0.0
 10
-4.20327
 20
27.62195
 30
0.0
 10
-4.15416
 20
27.60078
 30
0.0
 10
-4.08516
 20
27.60078
 30
0.0
 10
-4.08516
 20
27.60078
 30
0.0
 10
-3.93615
 20
27.60078
 30
0.0
 10
-3.79475
 20
27.69857
 30
0.0
 10
-3.66225
 20
27.89457
 30
0.0
 10
-3.66225
 20
27.89457
 30
0.0
 10
-3.66225
 20
27.89457
 30
0.0
 10
-3.66225
 20
28.76664
 30
0.0
 10
-3.66225
 20
28.76664
 30
0.0
 10
-3.66225
 20
28.76664
 30
0.0
 10
-3.66225
 20
28.76664
 30
0.0
 10
-3.41841
 20
28.76664
 30
0.0
 10
-3.41841
 20
28.76664
 30
0.0
 10
-3.41841
 20
28.76664
 30
0.0
 10
-3.41841
 20
28.76664
 30
0.0
 10
-3.41841
 20
27.42044
 30
0.0
 10
-3.41841
 20
27.42044
 30
0.0
 10
-3.41841
 20
27.42044
 30
0.0
 10
-3.41841
 20
27.42044
 30
0.0
 10
-3.66225
 20
27.42044
 30
0.0
 10
-3.66225
 20
27.42044
 30
0.0
  0
SPLINE
  5
48
330
1F
100
AcDbEntity
  8
Layer 1
100
AcDbSpline
210
0.0
220
0.0
230
1.0
 70
    11
 71
     3
 72
    72
 73
    68
 74
     0
 42
0.0000000001
 43
0.0000000001
 12
1.0
 22
0.0
 32
0.0
 13
1.0
 23
0.0
 33
0.0
 40
0.0
 40
0.0
 40
0.0
 40
0.0
 40
0.0555555555555556
 40
0.0555555555555556
 40
0.0555555555555556
 40
0.0555555555555556
 40
0.1111111111111111
 40
0.1111111111111111
 40
0.1111111111111111
 40
0.1111111111111111
 40
0.1666666666666667
 40
0.1666666666666667
 40
0.1666666666666667
 40
0.1666666666666667
 40
0.2222222222222222
 40
0.2222222222222222
 40
0.2222222222222222
 40
0.2222222222222222
 40
0.2777777777777778
 40
0.2777777777777778
 40
0.2777777777777778
 40
0.2777777777777778
 40
0.3333333333333333
 40
0.3333333333333333
 40
0.3333333333333333
 40
0.3333333333333333
 40
0.3888888888888889
 40
0.3888888888888889
 40
0.3888888888888889
 40
0.3888888888888889
 40
0.4444444444444444
 40
0.4444444444444444
 40
0.4444444444444444
 40
0.4444444444444444
 40
0.5
 40
0.5
 40
0.5
 40
0.5
 40
0.5555555555555556
 40
0.5555555555555556
 40
0.5555555555555556
 40
0.5555555555555556
 40
0.6111111111111112
 40
0.6111111111111112
 40
0.6111111111111112
 40
0.6111111111111112
 40
0.6666666666666666
 40
0.6666666666666666
 40
0.6666666666666666
 40
0.6666666666666666
 40
0.7222222222222222
 40
0.7222222222222222
 40
0.7222222222222222
 40
0.7222222222222222
 40
0.7777777777777778
 40
0.7777777777777778
 40
0.7777777777777778
 40
0.7777777777777778
 40
0.8333333333333334
 40
0.8333333333333334
 40
0.8333333333333334
 40
0.8333333333333334
 40
0.8888888888888888
 40
0.8888888888888888
 40
0.8888888888888888
 40
0.8888888888888888
 40
1.0
 40
1.0
 40
1.0
 40
1.0
 10
-2.32706
 20
27.42086
 30
0.0
 10
-2.40241
 20
27.40012
 30
0.0
 10
-2.46803
 20
27.38996
 30
0.0
 10
-2.52349
 20
27.38996
 30
0.0
 10
-2.52349
 20
27.38996
 30
0.0
 10
-2.64795
 20
27.38996
 30
0.0
 10
-2.74489
 20
27.42552
 30
0.0
 10
-2.81432
 20
27.49664
 30
0.0
 10
-2.81432
 20
27.49664
 30
0.0
 10
-2.88417
 20
27.56776
 30
0.0
 10
-2.91888
 20
27.6664
 30
0.0
 10
-2.91888
 20
27.79297
 30
0.0
 10
-2.91888
 20
27.79297
 30
0.0
 10
-2.91888
 20
27.79297
 30
0.0
 10
-2.91888
 20
28.58376
 30
0.0
 10
-2.91888
 20
28.58376
 30
0.0
 10
-2.91888
 20
28.58376
 30
0.0
 10
-2.91888
 20
28.58376
 30
0.0
 10
-3.08737
 20
28.58376
 30
0.0
 10
-3.08737
 20
28.58376
 30
0.0
 10
-3.08737
 20
28.58376
 30
0.0
 10
-3.08737
 20
28.58376
 30
0.0
 10
-3.08737
 20
28.76664
 30
0.0
 10
-3.08737
 20
28.76664
 30
0.0
 10
-3.08737
 20
28.76664
 30
0.0
 10
-3.08737
 20
28.76664
 30
0.0
 10
-2.91888
 20
28.76664
 30
0.0
 10
-2.91888
 20
28.76664
 30
0.0
 10
-2.91888
 20
28.76664
 30
0.0
 10
-2.91888
 20
28.76664
 30
0.0
 10
-2.91888
 20
29.01006
 30
0.0
 10
-2.91888
 20
29.01006
 30
0.0
 10
-2.91888
 20
29.01006
 30
0.0
 10
-2.91888
 20
29.01006
 30
0.0
 10
-2.67504
 20
29.03334
 30
0.0
 10
-2.67504
 20
29.03334
 30
0.0
 10
-2.67504
 20
29.03334
 30
0.0
 10
-2.67504
 20
29.03334
 30
0.0
 10
-2.67504
 20
28.76664
 30
0.0
 10
-2.67504
 20
28.76664
 30
0.0
 10
-2.67504
 20
28.76664
 30
0.0
 10
-2.67504
 20
28.76664
 30
0.0
 10
-2.32198
 20
28.76664
 30
0.0
 10
-2.32198
 20
28.76664
 30
0.0
 10
-2.32198
 20
28.76664
 30
0.0
 10
-2.32198
 20
28.76664
 30
0.0
 10
-2.32198
 20
28.58376
 30
0.0
 10
-2.32198
 20
28.58376
 30
0.0
 10
-2.32198
 20
28.58376
 30
0.0
 10
-2.32198
 20
28.58376
 30
0.0
 10
-2.67504
 20
28.58376
 30
0.0
 10
-2.67504
 20
28.58376
 30
0.0
 10
-2.67504
 20
28.58376
 30
0.0
 10
-2.67504
 20
28.58376
 30
0.0
 10
-2.67504
 20
27.837
 30
0.0
 10
-2.67504
 20
27.837
 30
0.0
 10
-2.67504
 20
27.837
 30
0.0
 10
-2.67504
 20
27.66089
 30
0.0
 10
-2.59842
 20
27.57284
 30
0.0
 10
-2.44559
 20
27.57284
 30
0.0
 10
-2.44559
 20
27.57284
 30
0.0
 10
-2.413
 20
27.57284
 30
0.0
 10
-2.37363
 20
27.57834
 30
0.0
 10
-2.32706
 20
27.58893
 30
0.0
 10
-2.32706
 20
27.58893
 30
0.0
 10
-2.32706
 20
27.58893
 30
0.0
 10
-2.32706
 20
27.42086
 30
0.0
 10
-2.32706
 20
27.42086
 30
0.0
  0
SPLINE
  5
49
330
1F
100
AcDbEntity
  8
Layer 1
100
AcDbSpline
210
0.0
220
0.0
230
1.0
 70
    11
 71
     3
 72
    52
 73
    48
 74
     0
 42
0.0000000001
 43
0.0000000001
 12
1.0
 22
0.0
 32
0.0
 13
1.0
 23
0.0
 33
0.0
 40
0.0
 40
0.0
 40
0.0
 40
0.0
 40
0.0769230769230769
 40
0.0769230769230769
 40
0.0769230769230769
 40
0.0769230769230769
 40
0.1538461538461539
 40
0.1538461538461539
 40
0.1538461538461539
 40
0.1538461538461539
 40
0.2307692307692308
 40
0.2307692307692308
 40
0.2307692307692308
 40
0.2307692307692308
 40
0.3076923076923077
 40
0.3076923076923077
 40
0.3076923076923077
 40
0.3076923076923077
 40
0.3846153846153846
 40
0.3846153846153846
 40
0.3846153846153846
 40
0.3846153846153846
 40
0.4615384615384616
 40
0.4615384615384616
 40
0.4615384615384616
 40
0.4615384615384616
 40
0.5384615384615384
 40
0.5384615384615384
 40
0.5384615384615384
 40
0.5384615384615384
 40
0.6153846153846154
 40
0.6153846153846154
 40
0.6153846153846154
 40
0.6153846153846154
 40
0.6923076923076923
 40
0.6923076923076923
 40
0.6923076923076923
 40
0.6923076923076923
 40
0.7692307692307693
 40
0.7692307692307693
 40
0.7692307692307693
 40
0.7692307692307693
 40
0.8461538461538461
 40
0.8461538461538461
 40
0.8461538461538461
 40
0.8461538461538461
 40
1.0
 40
1.0
 40
1.0
 40
1.0
 10
-0.99102
 20
27.46362
 30
0.0
 10
-1.15485
 20
27.41451
 30
0.0
 10
-1.29497
 20
27.38996
 30
0.0
 10
-1.41181
 20
27.38996
 30
0.0
 10
-1.41181
 20
27.38996
 30
0.0
 10
-1.6112
 20
27.38996
 30
0.0
 10
-1.77334
 20
27.456
 30
0.0
 10
-1.89822
 20
27.58766
 30
0.0
 10
-1.89822
 20
27.58766
 30
0.0
 10
-2.02311
 20
27.71931
 30
0.0
 10
-2.08576
 20
27.88992
 30
0.0
 10
-2.08576
 20
28.09989
 30
0.0
 10
-2.08576
 20
28.09989
 30
0.0
 10
-2.08576
 20
28.30351
 30
0.0
 10
-2.03073
 20
28.47073
 30
0.0
 10
-1.92024
 20
28.60154
 30
0.0
 10
-1.92024
 20
28.60154
 30
0.0
 10
-1.80975
 20
28.73193
 30
0.0
 10
-1.66835
 20
28.79712
 30
0.0
 10
-1.49606
 20
28.79712
 30
0.0
 10
-1.49606
 20
28.79712
 30
0.0
 10
-1.33307
 20
28.79712
 30
0.0
 10
-1.20692
 20
28.73912
 30
0.0
 10
-1.11802
 20
28.62313
 30
0.0
 10
-1.11802
 20
28.62313
 30
0.0
 10
-1.02912
 20
28.50714
 30
0.0
 10
-0.98467
 20
28.34288
 30
0.0
 10
-0.98467
 20
28.12995
 30
0.0
 10
-0.98467
 20
28.12995
 30
0.0
 10
-0.98467
 20
28.12995
 30
0.0
 10
-0.98594
 20
28.05544
 30
0.0
 10
-0.98594
 20
28.05544
 30
0.0
 10
-0.98594
 20
28.05544
 30
0.0
 10
-0.98594
 20
28.05544
 30
0.0
 10
-1.83684
 20
28.05544
 30
0.0
 10
-1.83684
 20
28.05544
 30
0.0
 10
-1.83684
 20
28.05544
 30
0.0
 10
-1.80128
 20
27.73371
 30
0.0
 10
-1.64422
 20
27.57284
 30
0.0
 10
-1.36609
 20
27.57284
 30
0.0
 10
-1.36609
 20
27.57284
 30
0.0
 10
-1.26407
 20
27.57284
 30
0.0
 10
-1.13919
 20
27.60163
 30
0.0
 10
-0.99102
 20
27.6592
 30
0.0
 10
-0.99102
 20
27.6592
 30
0.0
 10
-0.99102
 20
27.6592
 30
0.0
 10
-0.99102
 20
27.46362
 30
0.0
 10
-0.99102
 20
27.46362
 30
0.0
  0
SPLINE
  5
4A
330
1F
100
AcDbEntity
  8
Layer 1
100
AcDbSpline
210
0.0
220
0.0
230
1.0
 70
    11
 71
     3
 72
    16
 73
    12
 74
     0
 42
0.0000000001
 43
0.0000000001
 12
1.0
 22
0.0
 32
0.0
 13
1.0
 23
0.0
 33
0.0
 40
0.0
 40
0.0
 40
0.0
 40
0.0
 40
0.25
 40
0.25
 40
0.25
 40
0.25
 40
0.5
 40
0.5
 40
0.5
 40
0.5
 40
1.0
 40
1.0
 40
1.0
 40
1.0
 10
-1.82414
 20
28.23832
 30
0.0
 10
-1.82414
 20
28.23832
 30
0.0
 10
-1.22978
 20
28.23832
 30
0.0
 10
-1.22978
 20
28.23832
 30
0.0
 10
-1.22978
 20
28.23832
 30
0.0
 10
-1.22978
 20
28.48893
 30
0.0
 10
-1.32334
 20
28.61424
 30
0.0
 10
-1.51003
 20
28.61424
 30
0.0
 10
-1.51003
 20
28.61424
 30
0.0
 10
-1.69799
 20
28.61424
 30
0.0
 10
-1.80255
 20
28.48893
 30
0.0
 10
-1.82414
 20
28.23832
 30
0.0
  0
SPLINE
  5
4B
330
1F
100
AcDbEntity
  8
Layer 1
100
AcDbSpline
210
0.0
220
0.0
230
1.0
 70
    11
 71
     3
 72
    44
 73
    40
 74
     0
 42
0.0000000001
 43
0.0000000001
 12
1.0
 22
0.0
 32
0.0
 13
1.0
 23
0.0
 33
0.0
 40
0.0
 40
0.0
 40
0.0
 40
0.0
 40
0.0909090909090909
 40
0.0909090909090909
 40
0.0909090909090909
 40
0.0909090909090909
 40
0.1818181818181818
 40
0.1818181818181818
 40
0.1818181818181818
 40
0.1818181818181818
 40
0.2727272727272727
 40
0.2727272727272727
 40
0.2727272727272727
 40
0.2727272727272727
 40
0.3636363636363636
 40
0.3636363636363636
 40
0.3636363636363636
 40
0.3636363636363636
 40
0.4545454545454545
 40
0.4545454545454545
 40
0.4545454545454545
 40
0.4545454545454545
 40
0.5454545454545454
 40
0.5454545454545454
 40
0.5454545454545454
 40
0.5454545454545454
 40
0.6363636363636364
 40
0.6363636363636364
 40
0.6363636363636364
 40
0.6363636363636364
 40
0.7272727272727273
 40
0.7272727272727273
 40
0.7272727272727273
 40
0.7272727272727273
 40
0.8181818181818182
 40
0.8181818181818182
 40
0.8181818181818182
 40
0.8181818181818182
 40
1.0
 40
1.0
 40
1.0
 40
1.0
 10
-0.56388
 20
27.42044
 30
0.0
 10
-0.56388
 20
27.42044
 30
0.0
 10
-0.56388
 20
28.76664
 30
0.0
 10
-0.56388
 20
28.76664
 30
0.0
 10
-0.56388
 20
28.76664
 30
0.0
 10
-0.56388
 20
28.76664
 30
0.0
 10
-0.32004
 20
28.76664
 30
0.0
 10
-0.32004
 20
28.76664
 30
0.0
 10
-0.32004
 20
28.76664
 30
0.0
 10
-0.32004
 20
28.76664
 30
0.0
 10
-0.32004
 20
28.51222
 30
0.0
 10
-0.32004
 20
28.51222
 30
0.0
 10
-0.32004
 20
28.51222
 30
0.0
 10
-0.2231
 20
28.7006
 30
0.0
 10
-0.08255
 20
28.79458
 30
0.0
 10
0.10202
 20
28.79458
 30
0.0
 10
0.10202
 20
28.79458
 30
0.0
 10
0.127
 20
28.79458
 30
0.0
 10
0.15325
 20
28.79246
 30
0.0
 10
0.18034
 20
28.78823
 30
0.0
 10
0.18034
 20
28.78823
 30
0.0
 10
0.18034
 20
28.78823
 30
0.0
 10
0.18034
 20
28.56005
 30
0.0
 10
0.18034
 20
28.56005
 30
0.0
 10
0.18034
 20
28.56005
 30
0.0
 10
0.13801
 20
28.57402
 30
0.0
 10
0.10075
 20
28.58122
 30
0.0
 10
0.06858
 20
28.58122
 30
0.0
 10
0.06858
 20
28.58122
 30
0.0
 10
-0.08636
 20
28.58122
 30
0.0
 10
-0.2159
 20
28.48978
 30
0.0
 10
-0.32004
 20
28.30648
 30
0.0
 10
-0.32004
 20
28.30648
 30
0.0
 10
-0.32004
 20
28.30648
 30
0.0
 10
-0.32004
 20
27.42044
 30
0.0
 10
-0.32004
 20
27.42044
 30
0.0
 10
-0.32004
 20
27.42044
 30
0.0
 10
-0.32004
 20
27.42044
 30
0.0
 10
-0.56388
 20
27.42044
 30
0.0
 10
-0.56388
 20
27.42044
 30
0.0
  0
SPLINE
  5
4C
330
1F
100
AcDbEntity
  8
Layer 1
100
AcDbSpline
210
0.0
220
0.0
230
1.0
 70
    11
 71
     3
 72
    20
 73
    16
 74
     0
 42
0.0000000001
 43
0.0000000001
 12
1.0
 22
0.0
 32
0.0
 13
1.0
 23
0.0
 33
0.0
 40
0.0
 40
0.0
 40
0.0
 40
0.0
 40
0.2
 40
0.2
 40
0.2
 40
0.2
 40
0.4
 40
0.4
 40
0.4
 40
0.4
 40
0.6
 40
0.6
 40
0.6
 40
0.6
 40
1.0
 40
1.0
 40
1.0
 40
1.0
 10
0.33824
 20
27.23756
 30
0.0
 10
0.33824
 20
27.23756
 30
0.0
 10
0.33824
 20
27.42044
 30
0.0
 10
0.33824
 20
27.42044
 30
0.0
 10
0.33824
 20
27.42044
 30
0.0
 10
0.33824
 20
27.42044
 30
0.0
 10
1.39488
 20
27.42044
 30
0.0
 10
1.39488
 20
27.42044
 30
0.0
 10
1.39488
 20
27.42044
 30
0.0
 10
1.39488
 20
27.42044
 30
0.0
 10
1.39488
 20
27.23756
 30
0.0
 10
1.39488
 20
27.23756
 30
0.0
 10
1.39488
 20
27.23756
 30
0.0
 10
1.39488
 20
27.23756
 30
0.0
 10
0.33824
 20
27.23756
 30
0.0
 10
0.33824
 20
27.23756
 30
0.0
  0
SPLINE
  5
4D
330
1F
100
AcDbEntity
  8
Layer 1
100
AcDbSpline
210
0.0
220
0.0
230
1.0
 70
    11
 71
     3
 72
    56
 73
    52
 74
     0
 42
0.0000000001
 43
0.0000000001
 12
1.0
 22
0.0
 32
0.0
 13
1.0
 23
0.0
 33
0.0
 40
0.0
 40
0.0
 40
0.0
 40
0.0
 40
0.0714285714285714
 40
0.0714285714285714
 40
0.0714285714285714
 40
0.0714285714285714
 40
0.1428571428571428
 40
0.1428571428571428
 40
0.1428571428571428
 40
0.1428571428571428
 40
0.2142857142857143
 40
0.2142857142857143
 40
0.2142857142857143
 40
0.2142857142857143
 40
0.2857142857142857
 40
0.2857142857142857
 40
0.2857142857142857
 40
0.2857142857142857
 40
0.3571428571428572
 40
0.3571428571428572
 40
0.3571428571428572
 40
0.3571428571428572
 40
0.4285714285714285
 40
0.4285714285714285
 40
0.4285714285714285
 40
0.4285714285714285
 40
0.5
 40
0.5
 40
0.5
 40
0.5
 40
0.5714285714285714
 40
0.5714285714285714
 40
0.5714285714285714
 40
0.5714285714285714
 40
0.6428571428571429
 40
0.6428571428571429
 40
0.6428571428571429
 40
0.6428571428571429
 40
0.7142857142857143
 40
0.7142857142857143
 40
0.7142857142857143
 40
0.7142857142857143
 40
0.7857142857142857
 40
0.7857142857142857
 40
0.7857142857142857
 40
0.7857142857142857
 40
0.8571428571428571
 40
0.8571428571428571
 40
0.8571428571428571
 40
0.8571428571428571
 40
1.0
 40
1.0
 40
1.0
 40
1.0
 10
1.90288
 20
27.42044
 30
0.0
 10
1.90288
 20
27.42044
 30
0.0
 10
1.5168
 20
28.76664
 30
0.0
 10
1.5168
 20
28.76664
 30
0.0
 10
1.5168
 20
28.76664
 30
0.0
 10
1.5168
 20
28.76664
 30
0.0
 10
1.75471
 20
28.76664
 30
0.0
 10
1.75471
 20
28.76664
 30
0.0
 10
1.75471
 20
28.76664
 30
0.0
 10
1.75471
 20
28.76664
 30
0.0
 10
2.05062
 20
27.72143
 30
0.0
 10
2.05062
 20
27.72143
 30
0.0
 10
2.05062
 20
27.72143
 30
0.0
 10
2.05062
 20
27.72143
 30
0.0
 10
2.36982
 20
28.76664
 30
0.0
 10
2.36982
 20
28.76664
 30
0.0
 10
2.36982
 20
28.76664
 30
0.0
 10
2.36982
 20
28.76664
 30
0.0
 10
2.61366
 20
28.76664
 30
0.0
 10
2.61366
 20
28.76664
 30
0.0
 10
2.61366
 20
28.76664
 30
0.0
 10
2.61366
 20
28.76664
 30
0.0
 10
2.89433
 20
27.72312
 30
0.0
 10
2.89433
 20
27.72312
 30
0.0
 10
2.89433
 20
27.72312
 30
0.0
 10
2.89433
 20
27.72312
 30
0.0
 10
3.23384
 20
28.76664
 30
0.0
 10
3.23384
 20
28.76664
 30
0.0
 10
3.23384
 20
28.76664
 30
0.0
 10
3.23384
 20
28.76664
 30
0.0
 10
3.44212
 20
28.76664
 30
0.0
 10
3.44212
 20
28.76664
 30
0.0
 10
3.44212
 20
28.76664
 30
0.0
 10
3.44212
 20
28.76664
 30
0.0
 10
3.0027
 20
27.42044
 30
0.0
 10
3.0027
 20
27.42044
 30
0.0
 10
3.0027
 20
27.42044
 30
0.0
 10
3.0027
 20
27.42044
 30
0.0
 10
2.75886
 20
27.42044
 30
0.0
 10
2.75886
 20
27.42044
 30
0.0
 10
2.75886
 20
27.42044
 30
0.0
 10
2.75886
 20
27.42044
 30
0.0
 10
2.47015
 20
28.47031
 30
0.0
 10
2.47015
 20
28.47031
 30
0.0
 10
2.47015
 20
28.47031
 30
0.0
 10
2.47015
 20
28.47031
 30
0.0
 10
2.14672
 20
27.42044
 30
0.0
 10
2.14672
 20
27.42044
 30
0.0
 10
2.14672
 20
27.42044
 30
0.0
 10
2.14672
 20
27.42044
 30
0.0
 10
1.90288
 20
27.42044
 30
0.0
 10
1.90288
 20
27.42044
 30
0.0
  0
SPLINE
  5
4E
330
1F
100
AcDbEntity
  8
Layer 1
100
AcDbSpline
210
0.0
220
0.0
230
1.0
 70
    11
 71
     3
 72
    52
 73
    48
 74
     0
 42
0.0000000001
 43
0.0000000001
 12
1.0
 22
0.0
 32
0.0
 13
1.0
 23
0.0
 33
0.0
 40
0.0
 40
0.0
 40
0.0
 40
0.0
 40
0.0769230769230769
 40
0.0769230769230769
 40
0.0769230769230769
 40
0.0769230769230769
 40
0.1538461538461539
 40
0.1538461538461539
 40
0.1538461538461539
 40
0.1538461538461539
 40
0.2307692307692308
 40
0.2307692307692308
 40
0.2307692307692308
 40
0.2307692307692308
 40
0.3076923076923077
 40
0.3076923076923077
 40
0.3076923076923077
 40
0.3076923076923077
 40
0.3846153846153846
 40
0.3846153846153846
 40
0.3846153846153846
 40
0.3846153846153846
 40
0.4615384615384616
 40
0.4615384615384616
 40
0.4615384615384616
 40
0.4615384615384616
 40
0.5384615384615384
 40
0.5384615384615384
 40
0.5384615384615384
 40
0.5384615384615384
 40
0.6153846153846154
 40
0.6153846153846154
 40
0.6153846153846154
 40
0.6153846153846154
 40
0.6923076923076923
 40
0.6923076923076923
 40
0.6923076923076923
 40
0.6923076923076923
 40
0.7692307692307693
 40
0.7692307692307693
 40
0.7692307692307693
 40
0.7692307692307693
 40
0.8461538461538461
 40
0.8461538461538461
 40
0.8461538461538461
 40
0.8461538461538461
 40
1.0
 40
1.0
 40
1.0
 40
1.0
 10
4.69053
 20
27.46362
 30
0.0
 10
4.5267
 20
27.41451
 30
0.0
 10
4.38658
 20
27.38996
 30
0.0
 10
4.26974
 20
27.38996
 30
0.0
 10
4.26974
 20
27.38996
 30
0.0
 10
4.07035
 20
27.38996
 30
0.0
 10
3.90821
 20
27.456
 30
0.0
 10
3.78333
 20
27.58766
 30
0.0
 10
3.78333
 20
27.58766
 30
0.0
 10
3.65844
 20
27.71931
 30
0.0
 10
3.59579
 20
27.88992
 30
0.0
 10
3.59579
 20
28.09989
 30
0.0
 10
3.59579
 20
28.09989
 30
0.0
 10
3.59579
 20
28.30351
 30
0.0
 10
3.65082
 20
28.47073
 30
0.0
 10
3.76131
 20
28.60154
 30
0.0
 10
3.76131
 20
28.60154
 30
0.0
 10
3.8718
 20
28.73193
 30
0.0
 10
4.0132
 20
28.79712
 30
0.0
 10
4.18549
 20
28.79712
 30
0.0
 10
4.18549
 20
28.79712
 30
0.0
 10
4.34848
 20
28.79712
 30
0.0
 10
4.47463
 20
28.73912
 30
0.0
 10
4.56353
 20
28.62313
 30
0.0
 10
4.56353
 20
28.62313
 30
0.0
 10
4.65243
 20
28.50714
 30
0.0
 10
4.69688
 20
28.34288
 30
0.0
 10
4.69688
 20
28.12995
 30
0.0
 10
4.69688
 20
28.12995
 30
0.0
 10
4.69688
 20
28.12995
 30
0.0
 10
4.69561
 20
28.05544
 30
0.0
 10
4.69561
 20
28.05544
 30
0.0
 10
4.69561
 20
28.05544
 30
0.0
 10
4.69561
 20
28.05544
 30
0.0
 10
3.84471
 20
28.05544
 30
0.0
 10
3.84471
 20
28.05544
 30
0.0
 10
3.84471
 20
28.05544
 30
0.0
 10
3.88027
 20
27.73371
 30
0.0
 10
4.03733
 20
27.57284
 30
0.0
 10
4.31546
 20
27.57284
 30
0.0
 10
4.31546
 20
27.57284
 30
0.0
 10
4.41748
 20
27.57284
 30
0.0
 10
4.54236
 20
27.60163
 30
0.0
 10
4.69053
 20
27.6592
 30
0.0
 10
4.69053
 20
27.6592
 30
0.0
 10
4.69053
 20
27.6592
 30
0.0
 10
4.69053
 20
27.46362
 30
0.0
 10
4.69053
 20
27.46362
 30
0.0
  0
SPLINE
  5
4F
330
1F
100
AcDbEntity
  8
Layer 1
100
AcDbSpline
210
0.0
220
0.0
230
1.0
 70
    11
 71
     3
 72
    16
 73
    12
 74
     0
 42
0.0000000001
 43
0.0000000001
 12
1.0
 22
0.0
 32
0.0
 13
1.0
 23
0.0
 33
0.0
 40
0.0
 40
0.0
 40
0.0
 40
0.0
 40
0.25
 40
0.25
 40
0.25
 40
0.25
 40
0.5
 40
0.5
 40
0.5
 40
0.5
 40
1.0
 40
1.0
 40
1.0
 40
1.0
 10
3.85741
 20
28.23832
 30
0.0
 10
3.85741
 20
28.23832
 30
0.0
 10
4.45177
 20
28.23832
 30
0.0
 10
4.45177
 20
28.23832
 30
0.0
 10
4.45177
 20
28.23832
 30
0.0
 10
4.45177
 20
28.48893
 30
0.0
 10
4.35821
 20
28.61424
 30
0.0
 10
4.17152
 20
28.61424
 30
0.0
 10
4.17152
 20
28.61424
 30
0.0
 10
3.98356
 20
28.61424
 30
0.0
 10
3.879
 20
28.48893
 30
0.0
 10
3.85741
 20
28.23832
 30
0.0
  0
SPLINE
  5
50
330
1F
100
AcDbEntity
  8
Layer 1
100
AcDbSpline
210
0.0
220
0.0
230
1.0
 70
    11
 71
     3
 72
    48
 73
    44
 74
     0
 42
0.0000000001
 43
0.0000000001
 12
1.0
 22
0.0
 32
0.0
 13
1.0
 23
0.0
 33
0.0
 40
0.0
 40
0.0
 40
0.0
 40
0.0
 40
0.0833333333333333
 40
0.0833333333333333
 40
0.0833333333333333
 40
0.0833333333333333
 40
0.1666666666666667
 40
0.1666666666666667
 40
0.1666666666666667
 40
0.1666666666666667
 40
0.25
 40
0.25
 40
0.25
 40
0.25
 40
0.3333333333333333
 40
0.3333333333333333
 40
0.3333333333333333
 40
0.3333333333333333
 40
0.4166666666666667
 40
0.4166666666666667
 40
0.4166666666666667
 40
0.4166666666666667
 40
0.5
 40
0.5
 40
0.5
 40
0.5
 40
0.5833333333333334
 40
0.5833333333333334
 40
0.5833333333333334
 40
0.5833333333333334
 40
0.6666666666666666
 40
0.6666666666666666
 40
0.6666666666666666
 40
0.6666666666666666
 40
0.75
 40
0.75
 40
0.75
 40
0.75
 40
0.8333333333333334
 40
0.8333333333333334
 40
0.8333333333333334
 40
0.8333333333333334
 40
1.0
 40
1.0
 40
1.0
 40
1.0
 10
5.11767
 20
27.4052
 30
0.0
 10
5.11767
 20
27.4052
 30
0.0
 10
5.11767
 20
29.37878
 30
0.0
 10
5.11767
 20
29.37878
 30
0.0
 10
5.11767
 20
29.37878
 30
0.0
 10
5.11767
 20
29.37878
 30
0.0
 10
5.36151
 20
29.37878
 30
0.0
 10
5.36151
 20
29.37878
 30
0.0
 10
5.36151
 20
29.37878
 30
0.0
 10
5.36151
 20
29.37878
 30
0.0
 10
5.36151
 20
28.51222
 30
0.0
 10
5.36151
 20
28.51222
 30
0.0
 10
5.36151
 20
28.51222
 30
0.0
 10
5.46142
 20
28.7006
 30
0.0
 10
5.6117
 20
28.79458
 30
0.0
 10
5.81194
 20
28.79458
 30
0.0
 10
5.81194
 20
28.79458
 30
0.0
 10
5.97407
 20
28.79458
 30
0.0
 10
6.1015
 20
28.73574
 30
0.0
 10
6.19463
 20
28.61763
 30
0.0
 10
6.19463
 20
28.61763
 30
0.0
 10
6.28776
 20
28.49952
 30
0.0
 10
6.33433
 20
28.33823
 30
0.0
 10
6.33433
 20
28.13376
 30
0.0
 10
6.33433
 20
28.13376
 30
0.0
 10
6.33433
 20
27.91108
 30
0.0
 10
6.28141
 20
27.73117
 30
0.0
 10
6.176
 20
27.59485
 30
0.0
 10
6.176
 20
27.59485
 30
0.0
 10
6.07059
 20
27.45812
 30
0.0
 10
5.93174
 20
27.38996
 30
0.0
 10
5.75987
 20
27.38996
 30
0.0
 10
5.75987
 20
27.38996
 30
0.0
 10
5.60027
 20
27.38996
 30
0.0
 10
5.46734
 20
27.45092
 30
0.0
 10
5.36151
 20
27.57326
 30
0.0
 10
5.36151
 20
27.57326
 30
0.0
 10
5.36151
 20
27.57326
 30
0.0
 10
5.33188
 20
27.4052
 30
0.0
 10
5.33188
 20
27.4052
 30
0.0
 10
5.33188
 20
27.4052
 30
0.0
 10
5.33188
 20
27.4052
 30
0.0
 10
5.11767
 20
27.4052
 30
0.0
 10
5.11767
 20
27.4052
 30
0.0
  0
SPLINE
  5
51
330
1F
100
AcDbEntity
  8
Layer 1
100
AcDbSpline
210
0.0
220
0.0
230
1.0
 70
    11
 71
     3
 72
    28
 73
    24
 74
     0
 42
0.0000000001
 43
0.0000000001
 12
1.0
 22
0.0
 32
0.0
 13
1.0
 23
0.0
 33
0.0
 40
0.0
 40
0.0
 40
0.0
 40
0.0
 40
0.1428571428571428
 40
0.1428571428571428
 40
0.1428571428571428
 40
0.1428571428571428
 40
0.2857142857142857
 40
0.2857142857142857
 40
0.2857142857142857
 40
0.2857142857142857
 40
0.4285714285714285
 40
0.4285714285714285
 40
0.4285714285714285
 40
0.4285714285714285
 40
0.5714285714285714
 40
0.5714285714285714
 40
0.5714285714285714
 40
0.5714285714285714
 40
0.7142857142857143
 40
0.7142857142857143
 40
0.7142857142857143
 40
0.7142857142857143
 40
1.0
 40
1.0
 40
1.0
 40
1.0
 10
5.36151
 20
27.74133
 30
0.0
 10
5.48724
 20
27.62914
 30
0.0
 10
5.60704
 20
27.57284
 30
0.0
 10
5.72092
 20
27.57284
 30
0.0
 10
5.72092
 20
27.57284
 30
0.0
 10
5.8331
 20
27.57284
 30
0.0
 10
5.91989
 20
27.61983
 30
0.0
 10
5.98085
 20
27.71339
 30
0.0
 10
5.98085
 20
27.71339
 30
0.0
 10
6.04223
 20
27.80694
 30
0.0
 10
6.07271
 20
27.9386
 30
0.0
 10
6.07271
 20
28.10878
 30
0.0
 10
6.07271
 20
28.10878
 30
0.0
 10
6.07271
 20
28.42374
 30
0.0
 10
5.96857
 20
28.58122
 30
0.0
 10
5.76029
 20
28.58122
 30
0.0
 10
5.76029
 20
28.58122
 30
0.0
 10
5.62398
 20
28.58122
 30
0.0
 10
5.49105
 20
28.50756
 30
0.0
 10
5.36151
 20
28.35982
 30
0.0
 10
5.36151
 20
28.35982
 30
0.0
 10
5.36151
 20
28.35982
 30
0.0
 10
5.36151
 20
27.74133
 30
0.0
 10
5.36151
 20
27.74133
 30
0.0
  0
SPLINE
  5
52
330
1F
100
AcDbEntity
  8
Layer 1
100
AcDbSpline
210
0.0
220
0.0
230
1.0
 70
    11
 71
     3
 72
    60
 73
    56
 74
     0
 42
0.0000000001
 43
0.0000000001
 12
1.0
 22
0.0
 32
0.0
 13
1.0
 23
0.0
 33
0.0
 40
0.0
 40
0.0
 40
0.0
 40
0.0
 40
0.0666666666666667
 40
0.0666666666666667
 40
0.0666666666666667
 40
0.0666666666666667
 40
0.1333333333333333
 40
0.1333333333333333
 40
0.1333333333333333
 40
0.1333333333333333
 40
0.2
 40
0.2
 40
0.2
 40
0.2
 40
0.2666666666666667
 40
0.2666666666666667
 40
0.2666666666666667
 40
0.2666666666666667
 40
0.3333333333333333
 40
0.3333333333333333
 40
0.3333333333333333
 40
0.3333333333333333
 40
0.4
 40
0.4
 40
0.4
 40
0.4
 40
0.4666666666666667
 40
0.4666666666666667
 40
0.4666666666666667
 40
0.4666666666666667
 40
0.5333333333333333
 40
0.5333333333333333
 40
0.5333333333333333
 40
0.5333333333333333
 40
0.6
 40
0.6
 40
0.6
 40
0.6
 40
0.6666666666666666
 40
0.6666666666666666
 40
0.6666666666666666
 40
0.6666666666666666
 40
0.7333333333333333
 40
0.7333333333333333
 40
0.7333333333333333
 40
0.7333333333333333
 40
0.8
 40
0.8
 40
0.8
 40
0.8
 40
0.8666666666666667
 40
0.8666666666666667
 40
0.8666666666666667
 40
0.8666666666666667
 40
1.0
 40
1.0
 40
1.0
 40
1.0
 10
7.6509
 20
27.46108
 30
0.0
 10
7.493
 20
27.41367
 30
0.0
 10
7.35668
 20
27.38996
 30
0.0
 10
7.24196
 20
27.38996
 30
0.0
 10
7.24196
 20
27.38996
 30
0.0
 10
7.05993
 20
27.38996
 30
0.0
 10
6.90922
 20
27.45727
 30
0.0
 10
6.78942
 20
27.59147
 30
0.0
 10
6.78942
 20
27.59147
 30
0.0
 10
6.66961
 20
27.72609
 30
0.0
 10
6.6095
 20
27.89584
 30
0.0
 10
6.6095
 20
28.10031
 30
0.0
 10
6.6095
 20
28.10031
 30
0.0
 10
6.6095
 20
28.31875
 30
0.0
 10
6.66877
 20
28.48936
 30
0.0
 10
6.7873
 20
28.61128
 30
0.0
 10
6.7873
 20
28.61128
 30
0.0
 10
6.90583
 20
28.73362
 30
0.0
 10
7.07136
 20
28.79458
 30
0.0
 10
7.28387
 20
28.79458
 30
0.0
 10
7.28387
 20
28.79458
 30
0.0
 10
7.38843
 20
28.79458
 30
0.0
 10
7.50612
 20
28.78019
 30
0.0
 10
7.63566
 20
28.7514
 30
0.0
 10
7.63566
 20
28.7514
 30
0.0
 10
7.63566
 20
28.7514
 30
0.0
 10
7.63566
 20
28.54566
 30
0.0
 10
7.63566
 20
28.54566
 30
0.0
 10
7.63566
 20
28.54566
 30
0.0
 10
7.49808
 20
28.5863
 30
0.0
 10
7.38589
 20
28.60662
 30
0.0
 10
7.29953
 20
28.60662
 30
0.0
 10
7.29953
 20
28.60662
 30
0.0
 10
7.17423
 20
28.60662
 30
0.0
 10
7.0739
 20
28.55963
 30
0.0
 10
6.99897
 20
28.46607
 30
0.0
 10
6.99897
 20
28.46607
 30
0.0
 10
6.92404
 20
28.37252
 30
0.0
 10
6.88636
 20
28.24763
 30
0.0
 10
6.88636
 20
28.09185
 30
0.0
 10
6.88636
 20
28.09185
 30
0.0
 10
6.88636
 20
27.94072
 30
0.0
 10
6.92531
 20
27.8188
 30
0.0
 10
7.00278
 20
27.72524
 30
0.0
 10
7.00278
 20
27.72524
 30
0.0
 10
7.08025
 20
27.63211
 30
0.0
 10
7.18142
 20
27.58554
 30
0.0
 10
7.30715
 20
27.58554
 30
0.0
 10
7.30715
 20
27.58554
 30
0.0
 10
7.41849
 20
27.58554
 30
0.0
 10
7.53279
 20
27.61433
 30
0.0
 10
7.6509
 20
27.6719
 30
0.0
 10
7.6509
 20
27.6719
 30
0.0
 10
7.6509
 20
27.6719
 30
0.0
 10
7.6509
 20
27.46108
 30
0.0
 10
7.6509
 20
27.46108
 30
0.0
  0
SPLINE
  5
53
330
1F
100
AcDbEntity
  8
Layer 1
100
AcDbSpline
210
0.0
220
0.0
230
1.0
 70
    11
 71
     3
 72
    80
 73
    76
 74
     0
 42
0.0000000001
 43
0.0000000001
 12
1.0
 22
0.0
 32
0.0
 13
1.0
 23
0.0
 33
0.0
 40
0.0
 40
0.0
 40
0.0
 40
0.0
 40
0.05
 40
0.05
 40
0.05
 40
0.05
 40
0.1
 40
0.1
 40
0.1
 40
0.1
 40
0.15
 40
0.15
 40
0.15
 40
0.15
 40
0.2
 40
0.2
 40
0.2
 40
0.2
 40
0.25
 40
0.25
 40
0.25
 40
0.25
 40
0.3
 40
0.3
 40
0.3
 40
0.3
 40
0.35
 40
0.35
 40
0.35
 40
0.35
 40
0.4
 40
0.4
 40
0.4
 40
0.4
 40
0.45
 40
0.45
 40
0.45
 40
0.45
 40
0.5
 40
0.5
 40
0.5
 40
0.5
 40
0.55
 40
0.55
 40
0.55
 40
0.55
 40
0.6
 40
0.6
 40
0.6
 40
0.6
 40
0.65
 40
0.65
 40
0.65
 40
0.65
 40
0.7
 40
0.7
 40
0.7
 40
0.7
 40
0.75
 40
0.75
 40
0.75
 40
0.75
 40
0.8
 40
0.8
 40
0.8
 40
0.8
 40
0.85
 40
0.85
 40
0.85
 40
0.85
 40
0.9
 40
0.9
 40
0.9
 40
0.9
 40
1.0
 40
1.0
 40
1.0
 40
1.0
 10
8.71092
 20
27.59189
 30
0.0
 10
8.56445
 20
27.45727
 30
0.0
 10
8.42348
 20
27.38996
 30
0.0
 10
8.28801
 20
27.38996
 30
0.0
 10
8.28801
 20
27.38996
 30
0.0
 10
8.17668
 20
27.38996
 30
0.0
 10
8.08397
 20
27.42467
 30
0.0
 10
8.01073
 20
27.49452
 30
0.0
 10
8.01073
 20
27.49452
 30
0.0
 10
7.93707
 20
27.56437
 30
0.0
 10
7.90024
 20
27.65243
 30
0.0
 10
7.90024
 20
27.75868
 30
0.0
 10
7.90024
 20
27.75868
 30
0.0
 10
7.90024
 20
27.90558
 30
0.0
 10
7.96205
 20
28.01861
 30
0.0
 10
8.08566
 20
28.09735
 30
0.0
 10
8.08566
 20
28.09735
 30
0.0
 10
8.20927
 20
28.17609
 30
0.0
 10
8.38665
 20
28.21546
 30
0.0
 10
8.61779
 20
28.21546
 30
0.0
 10
8.61779
 20
28.21546
 30
0.0
 10
8.61779
 20
28.21546
 30
0.0
 10
8.67494
 20
28.21546
 30
0.0
 10
8.67494
 20
28.21546
 30
0.0
 10
8.67494
 20
28.21546
 30
0.0
 10
8.67494
 20
28.21546
 30
0.0
 10
8.67494
 20
28.3776
 30
0.0
 10
8.67494
 20
28.3776
 30
0.0
 10
8.67494
 20
28.3776
 30
0.0
 10
8.67494
 20
28.53381
 30
0.0
 10
8.59366
 20
28.6117
 30
0.0
 10
8.43068
 20
28.6117
 30
0.0
 10
8.43068
 20
28.6117
 30
0.0
 10
8.30452
 20
28.6117
 30
0.0
 10
8.16652
 20
28.57191
 30
0.0
 10
8.01708
 20
28.49232
 30
0.0
 10
8.01708
 20
28.49232
 30
0.0
 10
8.01708
 20
28.49232
 30
0.0
 10
8.01708
 20
28.69298
 30
0.0
 10
8.01708
 20
28.69298
 30
0.0
 10
8.01708
 20
28.69298
 30
0.0
 10
8.18133
 20
28.76071
 30
0.0
 10
8.33627
 20
28.79458
 30
0.0
 10
8.48148
 20
28.79458
 30
0.0
 10
8.48148
 20
28.79458
 30
0.0
 10
8.63091
 20
28.79458
 30
0.0
 10
8.7414
 20
28.76071
 30
0.0
 10
8.8121
 20
28.69256
 30
0.0
 10
8.8121
 20
28.69256
 30
0.0
 10
8.88322
 20
28.6244
 30
0.0
 10
8.91878
 20
28.51941
 30
0.0
 10
8.91878
 20
28.3776
 30
0.0
 10
8.91878
 20
28.3776
 30
0.0
 10
8.91878
 20
28.3776
 30
0.0
 10
8.91878
 20
27.76927
 30
0.0
 10
8.91878
 20
27.76927
 30
0.0
 10
8.91878
 20
27.76927
 30
0.0
 10
8.91878
 20
27.62999
 30
0.0
 10
8.96154
 20
27.56014
 30
0.0
 10
9.04747
 20
27.56014
 30
0.0
 10
9.04747
 20
27.56014
 30
0.0
 10
9.05806
 20
27.56014
 30
0.0
 10
9.07372
 20
27.56183
 30
0.0
 10
9.09446
 20
27.56522
 30
0.0
 10
9.09446
 20
27.56522
 30
0.0
 10
9.09446
 20
27.56522
 30
0.0
 10
9.11182
 20
27.42975
 30
0.0
 10
9.11182
 20
27.42975
 30
0.0
 10
9.11182
 20
27.42975
 30
0.0
 10
9.05636
 20
27.40308
 30
0.0
 10
8.9954
 20
27.38996
 30
0.0
 10
8.92852
 20
27.38996
 30
0.0
 10
8.92852
 20
27.38996
 30
0.0
 10
8.81464
 20
27.38996
 30
0.0
 10
8.74225
 20
27.45727
 30
0.0
 10
8.71092
 20
27.59189
 30
0.0
  0
SPLINE
  5
54
330
1F
100
AcDbEntity
  8
Layer 1
100
AcDbSpline
210
0.0
220
0.0
230
1.0
 70
    11
 71
     3
 72
    32
 73
    28
 74
     0
 42
0.0000000001
 43
0.0000000001
 12
1.0
 22
0.0
 32
0.0
 13
1.0
 23
0.0
 33
0.0
 40
0.0
 40
0.0
 40
0.0
 40
0.0
 40
0.125
 40
0.125
 40
0.125
 40
0.125
 40
0.25
 40
0.25
 40
0.25
 40
0.25
 40
0.375
 40
0.375
 40
0.375
 40
0.375
 40
0.5
 40
0.5
 40
0.5
 40
0.5
 40
0.625
 40
0.625
 40
0.625
 40
0.625
 40
0.75
 40
0.75
 40
0.75
 40
0.75
 40
1.0
 40
1.0
 40
1.0
 40
1.0
 10
8.67494
 20
27.72482
 30
0.0
 10
8.67494
 20
27.72482
 30
0.0
 10
8.67494
 20
28.07068
 30
0.0
 10
8.67494
 20
28.07068
 30
0.0
 10
8.67494
 20
28.07068
 30
0.0
 10
8.67494
 20
28.07068
 30
0.0
 10
8.59662
 20
28.07322
 30
0.0
 10
8.59662
 20
28.07322
 30
0.0
 10
8.59662
 20
28.07322
 30
0.0
 10
8.46116
 20
28.07322
 30
0.0
 10
8.35194
 20
28.04824
 30
0.0
 10
8.26854
 20
27.99829
 30
0.0
 10
8.26854
 20
27.99829
 30
0.0
 10
8.18557
 20
27.94791
 30
0.0
 10
8.14408
 20
27.88145
 30
0.0
 10
8.14408
 20
27.79848
 30
0.0
 10
8.14408
 20
27.79848
 30
0.0
 10
8.14408
 20
27.74048
 30
0.0
 10
8.16482
 20
27.69137
 30
0.0
 10
8.20589
 20
27.65116
 30
0.0
 10
8.20589
 20
27.65116
 30
0.0
 10
8.24737
 20
27.61094
 30
0.0
 10
8.29775
 20
27.59062
 30
0.0
 10
8.35744
 20
27.59062
 30
0.0
 10
8.35744
 20
27.59062
 30
0.0
 10
8.45904
 20
27.59062
 30
0.0
 10
8.56487
 20
27.63549
 30
0.0
 10
8.67494
 20
27.72482
 30
0.0
  0
SPLINE
  5
55
330
1F
100
AcDbEntity
  8
Layer 1
100
AcDbSpline
210
0.0
220
0.0
230
1.0
 70
    11
 71
     3
 72
    84
 73
    80
 74
     0
 42
0.0000000001
 43
0.0000000001
 12
1.0
 22
0.0
 32
0.0
 13
1.0
 23
0.0
 33
0.0
 40
0.0
 40
0.0
 40
0.0
 40
0.0
 40
0.0476190476190476
 40
0.0476190476190476
 40
0.0476190476190476
 40
0.0476190476190476
 40
0.0952380952380952
 40
0.0952380952380952
 40
0.0952380952380952
 40
0.0952380952380952
 40
0.1428571428571428
 40
0.1428571428571428
 40
0.1428571428571428
 40
0.1428571428571428
 40
0.1904761904761905
 40
0.1904761904761905
 40
0.1904761904761905
 40
0.1904761904761905
 40
0.2380952380952381
 40
0.2380952380952381
 40
0.2380952380952381
 40
0.2380952380952381
 40
0.2857142857142857
 40
0.2857142857142857
 40
0.2857142857142857
 40
0.2857142857142857
 40
0.3333333333333333
 40
0.3333333333333333
 40
0.3333333333333333
 40
0.3333333333333333
 40
0.3809523809523809
 40
0.3809523809523809
 40
0.3809523809523809
 40
0.3809523809523809
 40
0.4285714285714285
 40
0.4285714285714285
 40
0.4285714285714285
 40
0.4285714285714285
 40
0.4761904761904762
 40
0.4761904761904762
 40
0.4761904761904762
 40
0.4761904761904762
 40
0.5238095238095238
 40
0.5238095238095238
 40
0.5238095238095238
 40
0.5238095238095238
 40
0.5714285714285714
 40
0.5714285714285714
 40
0.5714285714285714
 40
0.5714285714285714
 40
0.6190476190476191
 40
0.6190476190476191
 40
0.6190476190476191
 40
0.6190476190476191
 40
0.6666666666666666
 40
0.6666666666666666
 40
0.6666666666666666
 40
0.6666666666666666
 40
0.7142857142857143
 40
0.7142857142857143
 40
0.7142857142857143
 40
0.7142857142857143
 40
0.7619047619047619
 40
0.7619047619047619
 40
0.7619047619047619
 40
0.7619047619047619
 40
0.8095238095238095
 40
0.8095238095238095
 40
0.8095238095238095
 40
0.8095238095238095
 40
0.8571428571428571
 40
0.8571428571428571
 40
0.8571428571428571
 40
0.8571428571428571
 40
0.9047619047619048
 40
0.9047619047619048
 40
0.9047619047619048
 40
0.9047619047619048
 40
1.0
 40
1.0
 40
1.0
 40
1.0
 10
9.41958
 20
27.42044
 30
0.0
 10
9.41958
 20
27.42044
 30
0.0
 10
9.41958
 20
28.76664
 30
0.0
 10
9.41958
 20
28.76664
 30
0.0
 10
9.41958
 20
28.76664
 30
0.0
 10
9.41958
 20
28.76664
 30
0.0
 10
9.66342
 20
28.76664
 30
0.0
 10
9.66342
 20
28.76664
 30
0.0
 10
9.66342
 20
28.76664
 30
0.0
 10
9.66342
 20
28.76664
 30
0.0
 10
9.66342
 20
28.51222
 30
0.0
 10
9.66342
 20
28.51222
 30
0.0
 10
9.66342
 20
28.51222
 30
0.0
 10
9.78238
 20
28.7006
 30
0.0
 10
9.93478
 20
28.79458
 30
0.0
 10
10.12147
 20
28.79458
 30
0.0
 10
10.12147
 20
28.79458
 30
0.0
 10
10.30138
 20
28.79458
 30
0.0
 10
10.42373
 20
28.7006
 30
0.0
 10
10.48892
 20
28.51222
 30
0.0
 10
10.48892
 20
28.51222
 30
0.0
 10
10.60449
 20
28.70229
 30
0.0
 10
10.7552
 20
28.79712
 30
0.0
 10
10.94019
 20
28.79712
 30
0.0
 10
10.94019
 20
28.79712
 30
0.0
 10
11.0583
 20
28.79712
 30
0.0
 10
11.15017
 20
28.76241
 30
0.0
 10
11.21578
 20
28.69256
 30
0.0
 10
11.21578
 20
28.69256
 30
0.0
 10
11.2814
 20
28.62271
 30
0.0
 10
11.31442
 20
28.52492
 30
0.0
 10
11.31442
 20
28.39919
 30
0.0
 10
11.31442
 20
28.39919
 30
0.0
 10
11.31442
 20
28.39919
 30
0.0
 10
11.31442
 20
27.42044
 30
0.0
 10
11.31442
 20
27.42044
 30
0.0
 10
11.31442
 20
27.42044
 30
0.0
 10
11.31442
 20
27.42044
 30
0.0
 10
11.07058
 20
27.42044
 30
0.0
 10
11.07058
 20
27.42044
 30
0.0
 10
11.07058
 20
27.42044
 30
0.0
 10
11.07058
 20
27.42044
 30
0.0
 10
11.07058
 20
28.35897
 30
0.0
 10
11.07058
 20
28.35897
 30
0.0
 10
11.07058
 20
28.35897
 30
0.0
 10
11.07058
 20
28.51222
 30
0.0
 10
11.00962
 20
28.58884
 30
0.0
 10
10.8877
 20
28.58884
 30
0.0
 10
10.8877
 20
28.58884
 30
0.0
 10
10.76112
 20
28.58884
 30
0.0
 10
10.6282
 20
28.49952
 30
0.0
 10
10.48892
 20
28.32045
 30
0.0
 10
10.48892
 20
28.32045
 30
0.0
 10
10.48892
 20
28.32045
 30
0.0
 10
10.48892
 20
27.42044
 30
0.0
 10
10.48892
 20
27.42044
 30
0.0
 10
10.48892
 20
27.42044
 30
0.0
 10
10.48892
 20
27.42044
 30
0.0
 10
10.24508
 20
27.42044
 30
0.0
 10
10.24508
 20
27.42044
 30
0.0
 10
10.24508
 20
27.42044
 30
0.0
 10
10.24508
 20
27.42044
 30
0.0
 10
10.24508
 20
28.35982
 30
0.0
 10
10.24508
 20
28.35982
 30
0.0
 10
10.24508
 20
28.35982
 30
0.0
 10
10.24508
 20
28.51433
 30
0.0
 10
10.18327
 20
28.59138
 30
0.0
 10
10.05924
 20
28.59138
 30
0.0
 10
10.05924
 20
28.59138
 30
0.0
 10
9.93605
 20
28.59138
 30
0.0
 10
9.80397
 20
28.50163
 30
0.0
 10
9.66342
 20
28.32172
 30
0.0
 10
9.66342
 20
28.32172
 30
0.0
 10
9.66342
 20
28.32172
 30
0.0
 10
9.66342
 20
27.42044
 30
0.0
 10
9.66342
 20
27.42044
 30
0.0
 10
9.66342
 20
27.42044
 30
0.0
 10
9.66342
 20
27.42044
 30
0.0
 10
9.41958
 20
27.42044
 30
0.0
 10
9.41958
 20
27.42044
 30
0.0
  0
SPLINE
  5
56
330
1F
100
AcDbEntity
  8
Layer 1
100
AcDbSpline
210
0.0
220
0.0
230
1.0
 70
    11
 71
     3
 72
    52
 73
    48
 74
     0
 42
0.0000000001
 43
0.0000000001
 12
1.0
 22
0.0
 32
0.0
 13
1.0
 23
0.0
 33
0.0
 40
0.0
 40
0.0
 40
0.0
 40
0.0
 40
0.0769230769230769
 40
0.0769230769230769
 40
0.0769230769230769
 40
0.0769230769230769
 40
0.1538461538461539
 40
0.1538461538461539
 40
0.1538461538461539
 40
0.1538461538461539
 40
0.2307692307692308
 40
0.2307692307692308
 40
0.2307692307692308
 40
0.2307692307692308
 40
0.3076923076923077
 40
0.3076923076923077
 40
0.3076923076923077
 40
0.3076923076923077
 40
0.3846153846153846
 40
0.3846153846153846
 40
0.3846153846153846
 40
0.3846153846153846
 40
0.4615384615384616
 40
0.4615384615384616
 40
0.4615384615384616
 40
0.4615384615384616
 40
0.5384615384615384
 40
0.5384615384615384
 40
0.5384615384615384
 40
0.5384615384615384
 40
0.6153846153846154
 40
0.6153846153846154
 40
0.6153846153846154
 40
0.6153846153846154
 40
0.6923076923076923
 40
0.6923076923076923
 40
0.6923076923076923
 40
0.6923076923076923
 40
0.7692307692307693
 40
0.7692307692307693
 40
0.7692307692307693
 40
0.7692307692307693
 40
0.8461538461538461
 40
0.8461538461538461
 40
0.8461538461538461
 40
0.8461538461538461
 40
1.0
 40
1.0
 40
1.0
 40
1.0
 10
-16.40755
 20
23.56049
 30
0.0
 10
-16.57138
 20
23.51138
 30
0.0
 10
-16.7115
 20
23.48683
 30
0.0
 10
-16.82834
 20
23.48683
 30
0.0
 10
-16.82834
 20
23.48683
 30
0.0
 10
-17.02773
 20
23.48683
 30
0.0
 10
-17.18987
 20
23.55287
 30
0.0
 10
-17.31475
 20
23.68453
 30
0.0
 10
-17.31475
 20
23.68453
 30
0.0
 10
-17.43964
 20
23.81618
 30
0.0
 10
-17.50229
 20
23.98679
 30
0.0
 10
-17.50229
 20
24.19676
 30
0.0
 10
-17.50229
 20
24.19676
 30
0.0
 10
-17.50229
 20
24.40038
 30
0.0
 10
-17.44726
 20
24.5676
 30
0.0
 10
-17.33677
 20
24.69841
 30
0.0
 10
-17.33677
 20
24.69841
 30
0.0
 10
-17.22628
 20
24.8288
 30
0.0
 10
-17.08488
 20
24.89399
 30
0.0
 10
-16.91259
 20
24.89399
 30
0.0
 10
-16.91259
 20
24.89399
 30
0.0
 10
-16.7496
 20
24.89399
 30
0.0
 10
-16.62345
 20
24.83599
 30
0.0
 10
-16.53455
 20
24.72
 30
0.0
 10
-16.53455
 20
24.72
 30
0.0
 10
-16.44565
 20
24.60401
 30
0.0
 10
-16.4012
 20
24.43975
 30
0.0
 10
-16.4012
 20
24.22682
 30
0.0
 10
-16.4012
 20
24.22682
 30
0.0
 10
-16.4012
 20
24.22682
 30
0.0
 10
-16.40247
 20
24.15231
 30
0.0
 10
-16.40247
 20
24.15231
 30
0.0
 10
-16.40247
 20
24.15231
 30
0.0
 10
-16.40247
 20
24.15231
 30
0.0
 10
-17.25337
 20
24.15231
 30
0.0
 10
-17.25337
 20
24.15231
 30
0.0
 10
-17.25337
 20
24.15231
 30
0.0
 10
-17.21781
 20
23.83058
 30
0.0
 10
-17.06075
 20
23.66971
 30
0.0
 10
-16.78262
 20
23.66971
 30
0.0
 10
-16.78262
 20
23.66971
 30
0.0
 10
-16.6806
 20
23.66971
 30
0.0
 10
-16.55572
 20
23.6985
 30
0.0
 10
-16.40755
 20
23.75607
 30
0.0
 10
-16.40755
 20
23.75607
 30
0.0
 10
-16.40755
 20
23.75607
 30
0.0
 10
-16.40755
 20
23.56049
 30
0.0
 10
-16.40755
 20
23.56049
 30
0.0
  0
SPLINE
  5
57
330
1F
100
AcDbEntity
  8
Layer 1
100
AcDbSpline
210
0.0
220
0.0
230
1.0
 70
    11
 71
     3
 72
    16
 73
    12
 74
     0
 42
0.0000000001
 43
0.0000000001
 12
1.0
 22
0.0
 32
0.0
 13
1.0
 23
0.0
 33
0.0
 40
0.0
 40
0.0
 40
0.0
 40
0.0
 40
0.25
 40
0.25
 40
0.25
 40
0.25
 40
0.5
 40
0.5
 40
0.5
 40
0.5
 40
1.0
 40
1.0
 40
1.0
 40
1.0
 10
-17.24067
 20
24.33519
 30
0.0
 10
-17.24067
 20
24.33519
 30
0.0
 10
-16.64631
 20
24.33519
 30
0.0
 10
-16.64631
 20
24.33519
 30
0.0
 10
-16.64631
 20
24.33519
 30
0.0
 10
-16.64631
 20
24.5858
 30
0.0
 10
-16.73987
 20
24.71111
 30
0.0
 10
-16.92656
 20
24.71111
 30
0.0
 10
-16.92656
 20
24.71111
 30
0.0
 10
-17.11452
 20
24.71111
 30
0.0
 10
-17.21908
 20
24.5858
 30
0.0
 10
-17.24067
 20
24.33519
 30
0.0
  0
SPLINE
  5
58
330
1F
100
AcDbEntity
  8
Layer 1
100
AcDbSpline
210
0.0
220
0.0
230
1.0
 70
    11
 71
     3
 72
    52
 73
    48
 74
     0
 42
0.0000000001
 43
0.0000000001
 12
1.0
 22
0.0
 32
0.0
 13
1.0
 23
0.0
 33
0.0
 40
0.0
 40
0.0
 40
0.0
 40
0.0
 40
0.0769230769230769
 40
0.0769230769230769
 40
0.0769230769230769
 40
0.0769230769230769
 40
0.1538461538461539
 40
0.1538461538461539
 40
0.1538461538461539
 40
0.1538461538461539
 40
0.2307692307692308
 40
0.2307692307692308
 40
0.2307692307692308
 40
0.2307692307692308
 40
0.3076923076923077
 40
0.3076923076923077
 40
0.3076923076923077
 40
0.3076923076923077
 40
0.3846153846153846
 40
0.3846153846153846
 40
0.3846153846153846
 40
0.3846153846153846
 40
0.4615384615384616
 40
0.4615384615384616
 40
0.4615384615384616
 40
0.4615384615384616
 40
0.5384615384615384
 40
0.5384615384615384
 40
0.5384615384615384
 40
0.5384615384615384
 40
0.6153846153846154
 40
0.6153846153846154
 40
0.6153846153846154
 40
0.6153846153846154
 40
0.6923076923076923
 40
0.6923076923076923
 40
0.6923076923076923
 40
0.6923076923076923
 40
0.7692307692307693
 40
0.7692307692307693
 40
0.7692307692307693
 40
0.7692307692307693
 40
0.8461538461538461
 40
0.8461538461538461
 40
0.8461538461538461
 40
0.8461538461538461
 40
1.0
 40
1.0
 40
1.0
 40
1.0
 10
-16.11503
 20
23.51731
 30
0.0
 10
-16.11503
 20
23.51731
 30
0.0
 10
-15.60237
 20
24.212
 30
0.0
 10
-15.60237
 20
24.212
 30
0.0
 10
-15.60237
 20
24.212
 30
0.0
 10
-15.60237
 20
24.212
 30
0.0
 10
-16.09979
 20
24.86351
 30
0.0
 10
-16.09979
 20
24.86351
 30
0.0
 10
-16.09979
 20
24.86351
 30
0.0
 10
-16.09979
 20
24.86351
 30
0.0
 10
-15.80896
 20
24.86351
 30
0.0
 10
-15.80896
 20
24.86351
 30
0.0
 10
-15.80896
 20
24.86351
 30
0.0
 10
-15.80896
 20
24.86351
 30
0.0
 10
-15.41611
 20
24.34493
 30
0.0
 10
-15.41611
 20
24.34493
 30
0.0
 10
-15.41611
 20
24.34493
 30
0.0
 10
-15.41611
 20
24.34493
 30
0.0
 10
-15.06051
 20
24.86351
 30
0.0
 10
-15.06051
 20
24.86351
 30
0.0
 10
-15.06051
 20
24.86351
 30
0.0
 10
-15.06051
 20
24.86351
 30
0.0
 10
-14.82217
 20
24.86351
 30
0.0
 10
-14.82217
 20
24.86351
 30
0.0
 10
-14.82217
 20
24.86351
 30
0.0
 10
-14.82217
 20
24.86351
 30
0.0
 10
-15.28784
 20
24.18067
 30
0.0
 10
-15.28784
 20
24.18067
 30
0.0
 10
-15.28784
 20
24.18067
 30
0.0
 10
-15.28784
 20
24.18067
 30
0.0
 10
-14.78153
 20
23.51731
 30
0.0
 10
-14.78153
 20
23.51731
 30
0.0
 10
-14.78153
 20
23.51731
 30
0.0
 10
-14.78153
 20
23.51731
 30
0.0
 10
-15.07236
 20
23.51731
 30
0.0
 10
-15.07236
 20
23.51731
 30
0.0
 10
-15.07236
 20
23.51731
 30
0.0
 10
-15.07236
 20
23.51731
 30
0.0
 10
-15.47791
 20
24.05071
 30
0.0
 10
-15.47791
 20
24.05071
 30
0.0
 10
-15.47791
 20
24.05071
 30
0.0
 10
-15.47791
 20
24.05071
 30
0.0
 10
-15.87034
 20
23.51731
 30
0.0
 10
-15.87034
 20
23.51731
 30
0.0
 10
-15.87034
 20
23.51731
 30
0.0
 10
-15.87034
 20
23.51731
 30
0.0
 10
-16.11503
 20
23.51731
 30
0.0
 10
-16.11503
 20
23.51731
 30
0.0
  0
SPLINE
  5
59
330
1F
100
AcDbEntity
  8
Layer 1
100
AcDbSpline
210
0.0
220
0.0
230
1.0
 70
    11
 71
     3
 72
    72
 73
    68
 74
     0
 42
0.0000000001
 43
0.0000000001
 12
1.0
 22
0.0
 32
0.0
 13
1.0
 23
0.0
 33
0.0
 40
0.0
 40
0.0
 40
0.0
 40
0.0
 40
0.0555555555555556
 40
0.0555555555555556
 40
0.0555555555555556
 40
0.0555555555555556
 40
0.1111111111111111
 40
0.1111111111111111
 40
0.1111111111111111
 40
0.1111111111111111
 40
0.1666666666666667
 40
0.1666666666666667
 40
0.1666666666666667
 40
0.1666666666666667
 40
0.2222222222222222
 40
0.2222222222222222
 40
0.2222222222222222
 40
0.2222222222222222
 40
0.2777777777777778
 40
0.2777777777777778
 40
0.2777777777777778
 40
0.2777777777777778
 40
0.3333333333333333
 40
0.3333333333333333
 40
0.3333333333333333
 40
0.3333333333333333
 40
0.3888888888888889
 40
0.3888888888888889
 40
0.3888888888888889
 40
0.3888888888888889
 40
0.4444444444444444
 40
0.4444444444444444
 40
0.4444444444444444
 40
0.4444444444444444
 40
0.5
 40
0.5
 40
0.5
 40
0.5
 40
0.5555555555555556
 40
0.5555555555555556
 40
0.5555555555555556
 40
0.5555555555555556
 40
0.6111111111111112
 40
0.6111111111111112
 40
0.6111111111111112
 40
0.6111111111111112
 40
0.6666666666666666
 40
0.6666666666666666
 40
0.6666666666666666
 40
0.6666666666666666
 40
0.7222222222222222
 40
0.7222222222222222
 40
0.7222222222222222
 40
0.7222222222222222
 40
0.7777777777777778
 40
0.7777777777777778
 40
0.7777777777777778
 40
0.7777777777777778
 40
0.8333333333333334
 40
0.8333333333333334
 40
0.8333333333333334
 40
0.8333333333333334
 40
0.8888888888888888
 40
0.8888888888888888
 40
0.8888888888888888
 40
0.8888888888888888
 40
1.0
 40
1.0
 40
1.0
 40
1.0
 10
-13.82056
 20
23.51773
 30
0.0
 10
-13.89591
 20
23.49699
 30
0.0
 10
-13.96153
 20
23.48683
 30
0.0
 10
-14.01699
 20
23.48683
 30
0.0
 10
-14.01699
 20
23.48683
 30
0.0
 10
-14.14145
 20
23.48683
 30
0.0
 10
-14.23839
 20
23.52239
 30
0.0
 10
-14.30782
 20
23.59351
 30
0.0
 10
-14.30782
 20
23.59351
 30
0.0
 10
-14.37767
 20
23.66463
 30
0.0
 10
-14.41238
 20
23.76327
 30
0.0
 10
-14.41238
 20
23.88984
 30
0.0
 10
-14.41238
 20
23.88984
 30
0.0
 10
-14.41238
 20
23.88984
 30
0.0
 10
-14.41238
 20
24.68063
 30
0.0
 10
-14.41238
 20
24.68063
 30
0.0
 10
-14.41238
 20
24.68063
 30
0.0
 10
-14.41238
 20
24.68063
 30
0.0
 10
-14.58087
 20
24.68063
 30
0.0
 10
-14.58087
 20
24.68063
 30
0.0
 10
-14.58087
 20
24.68063
 30
0.0
 10
-14.58087
 20
24.68063
 30
0.0
 10
-14.58087
 20
24.86351
 30
0.0
 10
-14.58087
 20
24.86351
 30
0.0
 10
-14.58087
 20
24.86351
 30
0.0
 10
-14.58087
 20
24.86351
 30
0.0
 10
-14.41238
 20
24.86351
 30
0.0
 10
-14.41238
 20
24.86351
 30
0.0
 10
-14.41238
 20
24.86351
 30
0.0
 10
-14.41238
 20
24.86351
 30
0.0
 10
-14.41238
 20
25.10693
 30
0.0
 10
-14.41238
 20
25.10693
 30
0.0
 10
-14.41238
 20
25.10693
 30
0.0
 10
-14.41238
 20
25.10693
 30
0.0
 10
-14.16854
 20
25.13021
 30
0.0
 10
-14.16854
 20
25.13021
 30
0.0
 10
-14.16854
 20
25.13021
 30
0.0
 10
-14.16854
 20
25.13021
 30
0.0
 10
-14.16854
 20
24.86351
 30
0.0
 10
-14.16854
 20
24.86351
 30
0.0
 10
-14.16854
 20
24.86351
 30
0.0
 10
-14.16854
 20
24.86351
 30
0.0
 10
-13.81548
 20
24.86351
 30
0.0
 10
-13.81548
 20
24.86351
 30
0.0
 10
-13.81548
 20
24.86351
 30
0.0
 10
-13.81548
 20
24.86351
 30
0.0
 10
-13.81548
 20
24.68063
 30
0.0
 10
-13.81548
 20
24.68063
 30
0.0
 10
-13.81548
 20
24.68063
 30
0.0
 10
-13.81548
 20
24.68063
 30
0.0
 10
-14.16854
 20
24.68063
 30
0.0
 10
-14.16854
 20
24.68063
 30
0.0
 10
-14.16854
 20
24.68063
 30
0.0
 10
-14.16854
 20
24.68063
 30
0.0
 10
-14.16854
 20
23.93387
 30
0.0
 10
-14.16854
 20
23.93387
 30
0.0
 10
-14.16854
 20
23.93387
 30
0.0
 10
-14.16854
 20
23.75776
 30
0.0
 10
-14.09192
 20
23.66971
 30
0.0
 10
-13.93909
 20
23.66971
 30
0.0
 10
-13.93909
 20
23.66971
 30
0.0
 10
-13.9065
 20
23.66971
 30
0.0
 10
-13.86713
 20
23.67521
 30
0.0
 10
-13.82056
 20
23.6858
 30
0.0
 10
-13.82056
 20
23.6858
 30
0.0
 10
-13.82056
 20
23.6858
 30
0.0
 10
-13.82056
 20
23.51773
 30
0.0
 10
-13.82056
 20
23.51773
 30
0.0
  0
SPLINE
  5
5A
330
1F
100
AcDbEntity
  8
Layer 1
100
AcDbSpline
210
0.0
220
0.0
230
1.0
 70
    11
 71
     3
 72
    52
 73
    48
 74
     0
 42
0.0000000001
 43
0.0000000001
 12
1.0
 22
0.0
 32
0.0
 13
1.0
 23
0.0
 33
0.0
 40
0.0
 40
0.0
 40
0.0
 40
0.0
 40
0.0769230769230769
 40
0.0769230769230769
 40
0.0769230769230769
 40
0.0769230769230769
 40
0.1538461538461539
 40
0.1538461538461539
 40
0.1538461538461539
 40
0.1538461538461539
 40
0.2307692307692308
 40
0.2307692307692308
 40
0.2307692307692308
 40
0.2307692307692308
 40
0.3076923076923077
 40
0.3076923076923077
 40
0.3076923076923077
 40
0.3076923076923077
 40
0.3846153846153846
 40
0.3846153846153846
 40
0.3846153846153846
 40
0.3846153846153846
 40
0.4615384615384616
 40
0.4615384615384616
 40
0.4615384615384616
 40
0.4615384615384616
 40
0.5384615384615384
 40
0.5384615384615384
 40
0.5384615384615384
 40
0.5384615384615384
 40
0.6153846153846154
 40
0.6153846153846154
 40
0.6153846153846154
 40
0.6153846153846154
 40
0.6923076923076923
 40
0.6923076923076923
 40
0.6923076923076923
 40
0.6923076923076923
 40
0.7692307692307693
 40
0.7692307692307693
 40
0.7692307692307693
 40
0.7692307692307693
 40
0.8461538461538461
 40
0.8461538461538461
 40
0.8461538461538461
 40
0.8461538461538461
 40
1.0
 40
1.0
 40
1.0
 40
1.0
 10
-12.48452
 20
23.56049
 30
0.0
 10
-12.64835
 20
23.51138
 30
0.0
 10
-12.78847
 20
23.48683
 30
0.0
 10
-12.90531
 20
23.48683
 30
0.0
 10
-12.90531
 20
23.48683
 30
0.0
 10
-13.1047
 20
23.48683
 30
0.0
 10
-13.26684
 20
23.55287
 30
0.0
 10
-13.39172
 20
23.68453
 30
0.0
 10
-13.39172
 20
23.68453
 30
0.0
 10
-13.51661
 20
23.81618
 30
0.0
 10
-13.57926
 20
23.98679
 30
0.0
 10
-13.57926
 20
24.19676
 30
0.0
 10
-13.57926
 20
24.19676
 30
0.0
 10
-13.57926
 20
24.40038
 30
0.0
 10
-13.52423
 20
24.5676
 30
0.0
 10
-13.41374
 20
24.69841
 30
0.0
 10
-13.41374
 20
24.69841
 30
0.0
 10
-13.30325
 20
24.8288
 30
0.0
 10
-13.16185
 20
24.89399
 30
0.0
 10
-12.98956
 20
24.89399
 30
0.0
 10
-12.98956
 20
24.89399
 30
0.0
 10
-12.82657
 20
24.89399
 30
0.0
 10
-12.70042
 20
24.83599
 30
0.0
 10
-12.61152
 20
24.72
 30
0.0
 10
-12.61152
 20
24.72
 30
0.0
 10
-12.52262
 20
24.60401
 30
0.0
 10
-12.47817
 20
24.43975
 30
0.0
 10
-12.47817
 20
24.22682
 30
0.0
 10
-12.47817
 20
24.22682
 30
0.0
 10
-12.47817
 20
24.22682
 30
0.0
 10
-12.47944
 20
24.15231
 30
0.0
 10
-12.47944
 20
24.15231
 30
0.0
 10
-12.47944
 20
24.15231
 30
0.0
 10
-12.47944
 20
24.15231
 30
0.0
 10
-13.33034
 20
24.15231
 30
0.0
 10
-13.33034
 20
24.15231
 30
0.0
 10
-13.33034
 20
24.15231
 30
0.0
 10
-13.29478
 20
23.83058
 30
0.0
 10
-13.13772
 20
23.66971
 30
0.0
 10
-12.85959
 20
23.66971
 30
0.0
 10
-12.85959
 20
23.66971
 30
0.0
 10
-12.75757
 20
23.66971
 30
0.0
 10
-12.63269
 20
23.6985
 30
0.0
 10
-12.48452
 20
23.75607
 30
0.0
 10
-12.48452
 20
23.75607
 30
0.0
 10
-12.48452
 20
23.75607
 30
0.0
 10
-12.48452
 20
23.56049
 30
0.0
 10
-12.48452
 20
23.56049
 30
0.0
  0
SPLINE
  5
5B
330
1F
100
AcDbEntity
  8
Layer 1
100
AcDbSpline
210
0.0
220
0.0
230
1.0
 70
    11
 71
     3
 72
    16
 73
    12
 74
     0
 42
0.0000000001
 43
0.0000000001
 12
1.0
 22
0.0
 32
0.0
 13
1.0
 23
0.0
 33
0.0
 40
0.0
 40
0.0
 40
0.0
 40
0.0
 40
0.25
 40
0.25
 40
0.25
 40
0.25
 40
0.5
 40
0.5
 40
0.5
 40
0.5
 40
1.0
 40
1.0
 40
1.0
 40
1.0
 10
-13.31764
 20
24.33519
 30
0.0
 10
-13.31764
 20
24.33519
 30
0.0
 10
-12.72328
 20
24.33519
 30
0.0
 10
-12.72328
 20
24.33519
 30
0.0
 10
-12.72328
 20
24.33519
 30
0.0
 10
-12.72328
 20
24.5858
 30
0.0
 10
-12.81684
 20
24.71111
 30
0.0
 10
-13.00353
 20
24.71111
 30
0.0
 10
-13.00353
 20
24.71111
 30
0.0
 10
-13.19149
 20
24.71111
 30
0.0
 10
-13.29605
 20
24.5858
 30
0.0
 10
-13.31764
 20
24.33519
 30
0.0
  0
SPLINE
  5
5C
330
1F
100
AcDbEntity
  8
Layer 1
100
AcDbSpline
210
0.0
220
0.0
230
1.0
 70
    11
 71
     3
 72
    44
 73
    40
 74
     0
 42
0.0000000001
 43
0.0000000001
 12
1.0
 22
0.0
 32
0.0
 13
1.0
 23
0.0
 33
0.0
 40
0.0
 40
0.0
 40
0.0
 40
0.0
 40
0.0909090909090909
 40
0.0909090909090909
 40
0.0909090909090909
 40
0.0909090909090909
 40
0.1818181818181818
 40
0.1818181818181818
 40
0.1818181818181818
 40
0.1818181818181818
 40
0.2727272727272727
 40
0.2727272727272727
 40
0.2727272727272727
 40
0.2727272727272727
 40
0.3636363636363636
 40
0.3636363636363636
 40
0.3636363636363636
 40
0.3636363636363636
 40
0.4545454545454545
 40
0.4545454545454545
 40
0.4545454545454545
 40
0.4545454545454545
 40
0.5454545454545454
 40
0.5454545454545454
 40
0.5454545454545454
 40
0.5454545454545454
 40
0.6363636363636364
 40
0.6363636363636364
 40
0.6363636363636364
 40
0.6363636363636364
 40
0.7272727272727273
 40
0.7272727272727273
 40
0.7272727272727273
 40
0.7272727272727273
 40
0.8181818181818182
 40
0.8181818181818182
 40
0.8181818181818182
 40
0.8181818181818182
 40
1.0
 40
1.0
 40
1.0
 40
1.0
 10
-12.05738
 20
23.51731
 30
0.0
 10
-12.05738
 20
23.51731
 30
0.0
 10
-12.05738
 20
24.86351
 30
0.0
 10
-12.05738
 20
24.86351
 30
0.0
 10
-12.05738
 20
24.86351
 30
0.0
 10
-12.05738
 20
24.86351
 30
0.0
 10
-11.81354
 20
24.86351
 30
0.0
 10
-11.81354
 20
24.86351
 30
0.0
 10
-11.81354
 20
24.86351
 30
0.0
 10
-11.81354
 20
24.86351
 30
0.0
 10
-11.81354
 20
24.60909
 30
0.0
 10
-11.81354
 20
24.60909
 30
0.0
 10
-11.81354
 20
24.60909
 30
0.0
 10
-11.7166
 20
24.79747
 30
0.0
 10
-11.57605
 20
24.89145
 30
0.0
 10
-11.39148
 20
24.89145
 30
0.0
 10
-11.39148
 20
24.89145
 30
0.0
 10
-11.3665
 20
24.89145
 30
0.0
 10
-11.34025
 20
24.88933
 30
0.0
 10
-11.31316
 20
24.8851
 30
0.0
 10
-11.31316
 20
24.8851
 30
0.0
 10
-11.31316
 20
24.8851
 30
0.0
 10
-11.31316
 20
24.65692
 30
0.0
 10
-11.31316
 20
24.65692
 30
0.0
 10
-11.31316
 20
24.65692
 30
0.0
 10
-11.35549
 20
24.67089
 30
0.0
 10
-11.39275
 20
24.67809
 30
0.0
 10
-11.42492
 20
24.67809
 30
0.0
 10
-11.42492
 20
24.67809
 30
0.0
 10
-11.57986
 20
24.67809
 30
0.0
 10
-11.7094
 20
24.58665
 30
0.0
 10
-11.81354
 20
24.40335
 30
0.0
 10
-11.81354
 20
24.40335
 30
0.0
 10
-11.81354
 20
24.40335
 30
0.0
 10
-11.81354
 20
23.51731
 30
0.0
 10
-11.81354
 20
23.51731
 30
0.0
 10
-11.81354
 20
23.51731
 30
0.0
 10
-11.81354
 20
23.51731
 30
0.0
 10
-12.05738
 20
23.51731
 30
0.0
 10
-12.05738
 20
23.51731
 30
0.0
  0
SPLINE
  5
5D
330
1F
100
AcDbEntity
  8
Layer 1
100
AcDbSpline
210
0.0
220
0.0
230
1.0
 70
    11
 71
     3
 72
    60
 73
    56
 74
     0
 42
0.0000000001
 43
0.0000000001
 12
1.0
 22
0.0
 32
0.0
 13
1.0
 23
0.0
 33
0.0
 40
0.0
 40
0.0
 40
0.0
 40
0.0
 40
0.0666666666666667
 40
0.0666666666666667
 40
0.0666666666666667
 40
0.0666666666666667
 40
0.1333333333333333
 40
0.1333333333333333
 40
0.1333333333333333
 40
0.1333333333333333
 40
0.2
 40
0.2
 40
0.2
 40
0.2
 40
0.2666666666666667
 40
0.2666666666666667
 40
0.2666666666666667
 40
0.2666666666666667
 40
0.3333333333333333
 40
0.3333333333333333
 40
0.3333333333333333
 40
0.3333333333333333
 40
0.4
 40
0.4
 40
0.4
 40
0.4
 40
0.4666666666666667
 40
0.4666666666666667
 40
0.4666666666666667
 40
0.4666666666666667
 40
0.5333333333333333
 40
0.5333333333333333
 40
0.5333333333333333
 40
0.5333333333333333
 40
0.6
 40
0.6
 40
0.6
 40
0.6
 40
0.6666666666666666
 40
0.6666666666666666
 40
0.6666666666666666
 40
0.6666666666666666
 40
0.7333333333333333
 40
0.7333333333333333
 40
0.7333333333333333
 40
0.7333333333333333
 40
0.8
 40
0.8
 40
0.8
 40
0.8
 40
0.8666666666666667
 40
0.8666666666666667
 40
0.8666666666666667
 40
0.8666666666666667
 40
1.0
 40
1.0
 40
1.0
 40
1.0
 10
-11.0181
 20
23.51731
 30
0.0
 10
-11.0181
 20
23.51731
 30
0.0
 10
-11.0181
 20
24.86351
 30
0.0
 10
-11.0181
 20
24.86351
 30
0.0
 10
-11.0181
 20
24.86351
 30
0.0
 10
-11.0181
 20
24.86351
 30
0.0
 10
-10.77426
 20
24.86351
 30
0.0
 10
-10.77426
 20
24.86351
 30
0.0
 10
-10.77426
 20
24.86351
 30
0.0
 10
-10.77426
 20
24.86351
 30
0.0
 10
-10.77426
 20
24.60909
 30
0.0
 10
-10.77426
 20
24.60909
 30
0.0
 10
-10.77426
 20
24.60909
 30
0.0
 10
-10.64514
 20
24.79747
 30
0.0
 10
-10.48682
 20
24.89145
 30
0.0
 10
-10.2997
 20
24.89145
 30
0.0
 10
-10.2997
 20
24.89145
 30
0.0
 10
-10.18202
 20
24.89145
 30
0.0
 10
-10.08846
 20
24.85462
 30
0.0
 10
-10.01946
 20
24.78054
 30
0.0
 10
-10.01946
 20
24.78054
 30
0.0
 10
-9.95045
 20
24.70688
 30
0.0
 10
-9.91574
 20
24.60739
 30
0.0
 10
-9.91574
 20
24.48293
 30
0.0
 10
-9.91574
 20
24.48293
 30
0.0
 10
-9.91574
 20
24.48293
 30
0.0
 10
-9.91574
 20
23.51731
 30
0.0
 10
-9.91574
 20
23.51731
 30
0.0
 10
-9.91574
 20
23.51731
 30
0.0
 10
-9.91574
 20
23.51731
 30
0.0
 10
-10.15958
 20
23.51731
 30
0.0
 10
-10.15958
 20
23.51731
 30
0.0
 10
-10.15958
 20
23.51731
 30
0.0
 10
-10.15958
 20
23.51731
 30
0.0
 10
-10.15958
 20
24.40335
 30
0.0
 10
-10.15958
 20
24.40335
 30
0.0
 10
-10.15958
 20
24.40335
 30
0.0
 10
-10.15958
 20
24.50325
 30
0.0
 10
-10.1744
 20
24.57437
 30
0.0
 10
-10.20361
 20
24.61671
 30
0.0
 10
-10.20361
 20
24.61671
 30
0.0
 10
-10.23324
 20
24.65946
 30
0.0
 10
-10.28192
 20
24.68063
 30
0.0
 10
-10.35008
 20
24.68063
 30
0.0
 10
-10.35008
 20
24.68063
 30
0.0
 10
-10.49994
 20
24.68063
 30
0.0
 10
-10.64133
 20
24.58284
 30
0.0
 10
-10.77426
 20
24.38726
 30
0.0
 10
-10.77426
 20
24.38726
 30
0.0
 10
-10.77426
 20
24.38726
 30
0.0
 10
-10.77426
 20
23.51731
 30
0.0
 10
-10.77426
 20
23.51731
 30
0.0
 10
-10.77426
 20
23.51731
 30
0.0
 10
-10.77426
 20
23.51731
 30
0.0
 10
-11.0181
 20
23.51731
 30
0.0
 10
-11.0181
 20
23.51731
 30
0.0
  0
SPLINE
  5
5E
330
1F
100
AcDbEntity
  8
Layer 1
100
AcDbSpline
210
0.0
220
0.0
230
1.0
 70
    11
 71
     3
 72
    80
 73
    76
 74
     0
 42
0.0000000001
 43
0.0000000001
 12
1.0
 22
0.0
 32
0.0
 13
1.0
 23
0.0
 33
0.0
 40
0.0
 40
0.0
 40
0.0
 40
0.0
 40
0.05
 40
0.05
 40
0.05
 40
0.05
 40
0.1
 40
0.1
 40
0.1
 40
0.1
 40
0.15
 40
0.15
 40
0.15
 40
0.15
 40
0.2
 40
0.2
 40
0.2
 40
0.2
 40
0.25
 40
0.25
 40
0.25
 40
0.25
 40
0.3
 40
0.3
 40
0.3
 40
0.3
 40
0.35
 40
0.35
 40
0.35
 40
0.35
 40
0.4
 40
0.4
 40
0.4
 40
0.4
 40
0.45
 40
0.45
 40
0.45
 40
0.45
 40
0.5
 40
0.5
 40
0.5
 40
0.5
 40
0.55
 40
0.55
 40
0.55
 40
0.55
 40
0.6
 40
0.6
 40
0.6
 40
0.6
 40
0.65
 40
0.65
 40
0.65
 40
0.65
 40
0.7
 40
0.7
 40
0.7
 40
0.7
 40
0.75
 40
0.75
 40
0.75
 40
0.75
 40
0.8
 40
0.8
 40
0.8
 40
0.8
 40
0.85
 40
0.85
 40
0.85
 40
0.85
 40
0.9
 40
0.9
 40
0.9
 40
0.9
 40
1.0
 40
1.0
 40
1.0
 40
1.0
 10
-8.74777
 20
23.68876
 30
0.0
 10
-8.89424
 20
23.55414
 30
0.0
 10
-9.03521
 20
23.48683
 30
0.0
 10
-9.17068
 20
23.48683
 30
0.0
 10
-9.17068
 20
23.48683
 30
0.0
 10
-9.28201
 20
23.48683
 30
0.0
 10
-9.37472
 20
23.52154
 30
0.0
 10
-9.44796
 20
23.59139
 30
0.0
 10
-9.44796
 20
23.59139
 30
0.0
 10
-9.52162
 20
23.66124
 30
0.0
 10
-9.55845
 20
23.7493
 30
0.0
 10
-9.55845
 20
23.85555
 30
0.0
 10
-9.55845
 20
23.85555
 30
0.0
 10
-9.55845
 20
24.00245
 30
0.0
 10
-9.49664
 20
24.11548
 30
0.0
 10
-9.37303
 20
24.19422
 30
0.0
 10
-9.37303
 20
24.19422
 30
0.0
 10
-9.24942
 20
24.27296
 30
0.0
 10
-9.07204
 20
24.31233
 30
0.0
 10
-8.8409
 20
24.31233
 30
0.0
 10
-8.8409
 20
24.31233
 30
0.0
 10
-8.8409
 20
24.31233
 30
0.0
 10
-8.78375
 20
24.31233
 30
0.0
 10
-8.78375
 20
24.31233
 30
0.0
 10
-8.78375
 20
24.31233
 30
0.0
 10
-8.78375
 20
24.31233
 30
0.0
 10
-8.78375
 20
24.47447
 30
0.0
 10
-8.78375
 20
24.47447
 30
0.0
 10
-8.78375
 20
24.47447
 30
0.0
 10
-8.78375
 20
24.63068
 30
0.0
 10
-8.86503
 20
24.70857
 30
0.0
 10
-9.02801
 20
24.70857
 30
0.0
 10
-9.02801
 20
24.70857
 30
0.0
 10
-9.15417
 20
24.70857
 30
0.0
 10
-9.29217
 20
24.66878
 30
0.0
 10
-9.44161
 20
24.58919
 30
0.0
 10
-9.44161
 20
24.58919
 30
0.0
 10
-9.44161
 20
24.58919
 30
0.0
 10
-9.44161
 20
24.78985
 30
0.0
 10
-9.44161
 20
24.78985
 30
0.0
 10
-9.44161
 20
24.78985
 30
0.0
 10
-9.27736
 20
24.85758
 30
0.0
 10
-9.12242
 20
24.89145
 30
0.0
 10
-8.97721
 20
24.89145
 30
0.0
 10
-8.97721
 20
24.89145
 30
0.0
 10
-8.82778
 20
24.89145
 30
0.0
 10
-8.71729
 20
24.85758
 30
0.0
 10
-8.64659
 20
24.78943
 30
0.0
 10
-8.64659
 20
24.78943
 30
0.0
 10
-8.57547
 20
24.72127
 30
0.0
 10
-8.53991
 20
24.61628
 30
0.0
 10
-8.53991
 20
24.47447
 30
0.0
 10
-8.53991
 20
24.47447
 30
0.0
 10
-8.53991
 20
24.47447
 30
0.0
 10
-8.53991
 20
23.86614
 30
0.0
 10
-8.53991
 20
23.86614
 30
0.0
 10
-8.53991
 20
23.86614
 30
0.0
 10
-8.53991
 20
23.72686
 30
0.0
 10
-8.49715
 20
23.65701
 30
0.0
 10
-8.41122
 20
23.65701
 30
0.0
 10
-8.41122
 20
23.65701
 30
0.0
 10
-8.40063
 20
23.65701
 30
0.0
 10
-8.38497
 20
23.6587
 30
0.0
 10
-8.36423
 20
23.66209
 30
0.0
 10
-8.36423
 20
23.66209
 30
0.0
 10
-8.36423
 20
23.66209
 30
0.0
 10
-8.34687
 20
23.52662
 30
0.0
 10
-8.34687
 20
23.52662
 30
0.0
 10
-8.34687
 20
23.52662
 30
0.0
 10
-8.40233
 20
23.49995
 30
0.0
 10
-8.46329
 20
23.48683
 30
0.0
 10
-8.53017
 20
23.48683
 30
0.0
 10
-8.53017
 20
23.48683
 30
0.0
 10
-8.64405
 20
23.48683
 30
0.0
 10
-8.71644
 20
23.55414
 30
0.0
 10
-8.74777
 20
23.68876
 30
0.0
  0
SPLINE
  5
5F
330
1F
100
AcDbEntity
  8
Layer 1
100
AcDbSpline
210
0.0
220
0.0
230
1.0
 70
    11
 71
     3
 72
    32
 73
    28
 74
     0
 42
0.0000000001
 43
0.0000000001
 12
1.0
 22
0.0
 32
0.0
 13
1.0
 23
0.0
 33
0.0
 40
0.0
 40
0.0
 40
0.0
 40
0.0
 40
0.125
 40
0.125
 40
0.125
 40
0.125
 40
0.25
 40
0.25
 40
0.25
 40
0.25
 40
0.375
 40
0.375
 40
0.375
 40
0.375
 40
0.5
 40
0.5
 40
0.5
 40
0.5
 40
0.625
 40
0.625
 40
0.625
 40
0.625
 40
0.75
 40
0.75
 40
0.75
 40
0.75
 40
1.0
 40
1.0
 40
1.0
 40
1.0
 10
-8.78375
 20
23.82169
 30
0.0
 10
-8.78375
 20
23.82169
 30
0.0
 10
-8.78375
 20
24.16755
 30
0.0
 10
-8.78375
 20
24.16755
 30
0.0
 10
-8.78375
 20
24.16755
 30
0.0
 10
-8.78375
 20
24.16755
 30
0.0
 10
-8.86207
 20
24.17009
 30
0.0
 10
-8.86207
 20
24.17009
 30
0.0
 10
-8.86207
 20
24.17009
 30
0.0
 10
-8.99753
 20
24.17009
 30
0.0
 10
-9.10675
 20
24.14511
 30
0.0
 10
-9.19015
 20
24.09516
 30
0.0
 10
-9.19015
 20
24.09516
 30
0.0
 10
-9.27312
 20
24.04478
 30
0.0
 10
-9.31461
 20
23.97832
 30
0.0
 10
-9.31461
 20
23.89535
 30
0.0
 10
-9.31461
 20
23.89535
 30
0.0
 10
-9.31461
 20
23.83735
 30
0.0
 10
-9.29387
 20
23.78824
 30
0.0
 10
-9.2528
 20
23.74803
 30
0.0
 10
-9.2528
 20
23.74803
 30
0.0
 10
-9.21132
 20
23.70781
 30
0.0
 10
-9.16094
 20
23.68749
 30
0.0
 10
-9.10125
 20
23.68749
 30
0.0
 10
-9.10125
 20
23.68749
 30
0.0
 10
-8.99965
 20
23.68749
 30
0.0
 10
-8.89382
 20
23.73236
 30
0.0
 10
-8.78375
 20
23.82169
 30
0.0
  0
SPLINE
  5
60
330
1F
100
AcDbEntity
  8
Layer 1
100
AcDbSpline
210
0.0
220
0.0
230
1.0
 70
    11
 71
     3
 72
    20
 73
    16
 74
     0
 42
0.0000000001
 43
0.0000000001
 12
1.0
 22
0.0
 32
0.0
 13
1.0
 23
0.0
 33
0.0
 40
0.0
 40
0.0
 40
0.0
 40
0.0
 40
0.2
 40
0.2
 40
0.2
 40
0.2
 40
0.4
 40
0.4
 40
0.4
 40
0.4
 40
0.6
 40
0.6
 40
0.6
 40
0.6
 40
1.0
 40
1.0
 40
1.0
 40
1.0
 10
-8.03911
 20
23.51731
 30
0.0
 10
-8.03911
 20
23.51731
 30
0.0
 10
-8.03911
 20
25.47565
 30
0.0
 10
-8.03911
 20
25.47565
 30
0.0
 10
-8.03911
 20
25.47565
 30
0.0
 10
-8.03911
 20
25.47565
 30
0.0
 10
-7.79527
 20
25.47565
 30
0.0
 10
-7.79527
 20
25.47565
 30
0.0
 10
-7.79527
 20
25.47565
 30
0.0
 10
-7.79527
 20
25.47565
 30
0.0
 10
-7.79527
 20
23.51731
 30
0.0
 10
-7.79527
 20
23.51731
 30
0.0
 10
-7.79527
 20
23.51731
 30
0.0
 10
-7.79527
 20
23.51731
 30
0.0
 10
-8.03911
 20
23.51731
 30
0.0
 10
-8.03911
 20
23.51731
 30
0.0
  0
SPLINE
  5
61
330
1F
100
AcDbEntity
  8
Layer 1
100
AcDbSpline
210
0.0
220
0.0
230
1.0
 70
    11
 71
     3
 72
    20
 73
    16
 74
     0
 42
0.0000000001
 43
0.0000000001
 12
1.0
 22
0.0
 32
0.0
 13
1.0
 23
0.0
 33
0.0
 40
0.0
 40
0.0
 40
0.0
 40
0.0
 40
0.2
 40
0.2
 40
0.2
 40
0.2
 40
0.4
 40
0.4
 40
0.4
 40
0.4
 40
0.6
 40
0.6
 40
0.6
 40
0.6
 40
1.0
 40
1.0
 40
1.0
 40
1.0
 10
-7.44221
 20
23.33443
 30
0.0
 10
-7.44221
 20
23.33443
 30
0.0
 10
-7.44221
 20
23.51731
 30
0.0
 10
-7.44221
 20
23.51731
 30
0.0
 10
-7.44221
 20
23.51731
 30
0.0
 10
-7.44221
 20
23.51731
 30
0.0
 10
-6.38557
 20
23.51731
 30
0.0
 10
-6.38557
 20
23.51731
 30
0.0
 10
-6.38557
 20
23.51731
 30
0.0
 10
-6.38557
 20
23.51731
 30
0.0
 10
-6.38557
 20
23.33443
 30
0.0
 10
-6.38557
 20
23.33443
 30
0.0
 10
-6.38557
 20
23.33443
 30
0.0
 10
-6.38557
 20
23.33443
 30
0.0
 10
-7.44221
 20
23.33443
 30
0.0
 10
-7.44221
 20
23.33443
 30
0.0
  0
SPLINE
  5
62
330
1F
100
AcDbEntity
  8
Layer 1
100
AcDbSpline
210
0.0
220
0.0
230
1.0
 70
    11
 71
     3
 72
    84
 73
    80
 74
     0
 42
0.0000000001
 43
0.0000000001
 12
1.0
 22
0.0
 32
0.0
 13
1.0
 23
0.0
 33
0.0
 40
0.0
 40
0.0
 40
0.0
 40
0.0
 40
0.0476190476190476
 40
0.0476190476190476
 40
0.0476190476190476
 40
0.0476190476190476
 40
0.0952380952380952
 40
0.0952380952380952
 40
0.0952380952380952
 40
0.0952380952380952
 40
0.1428571428571428
 40
0.1428571428571428
 40
0.1428571428571428
 40
0.1428571428571428
 40
0.1904761904761905
 40
0.1904761904761905
 40
0.1904761904761905
 40
0.1904761904761905
 40
0.2380952380952381
 40
0.2380952380952381
 40
0.2380952380952381
 40
0.2380952380952381
 40
0.2857142857142857
 40
0.2857142857142857
 40
0.2857142857142857
 40
0.2857142857142857
 40
0.3333333333333333
 40
0.3333333333333333
 40
0.3333333333333333
 40
0.3333333333333333
 40
0.3809523809523809
 40
0.3809523809523809
 40
0.3809523809523809
 40
0.3809523809523809
 40
0.4285714285714285
 40
0.4285714285714285
 40
0.4285714285714285
 40
0.4285714285714285
 40
0.4761904761904762
 40
0.4761904761904762
 40
0.4761904761904762
 40
0.4761904761904762
 40
0.5238095238095238
 40
0.5238095238095238
 40
0.5238095238095238
 40
0.5238095238095238
 40
0.5714285714285714
 40
0.5714285714285714
 40
0.5714285714285714
 40
0.5714285714285714
 40
0.6190476190476191
 40
0.6190476190476191
 40
0.6190476190476191
 40
0.6190476190476191
 40
0.6666666666666666
 40
0.6666666666666666
 40
0.6666666666666666
 40
0.6666666666666666
 40
0.7142857142857143
 40
0.7142857142857143
 40
0.7142857142857143
 40
0.7142857142857143
 40
0.7619047619047619
 40
0.7619047619047619
 40
0.7619047619047619
 40
0.7619047619047619
 40
0.8095238095238095
 40
0.8095238095238095
 40
0.8095238095238095
 40
0.8095238095238095
 40
0.8571428571428571
 40
0.8571428571428571
 40
0.8571428571428571
 40
0.8571428571428571
 40
0.9047619047619048
 40
0.9047619047619048
 40
0.9047619047619048
 40
0.9047619047619048
 40
1.0
 40
1.0
 40
1.0
 40
1.0
 10
-6.03505
 20
23.51731
 30
0.0
 10
-6.03505
 20
23.51731
 30
0.0
 10
-6.03505
 20
24.86351
 30
0.0
 10
-6.03505
 20
24.86351
 30
0.0
 10
-6.03505
 20
24.86351
 30
0.0
 10
-6.03505
 20
24.86351
 30
0.0
 10
-5.79121
 20
24.86351
 30
0.0
 10
-5.79121
 20
24.86351
 30
0.0
 10
-5.79121
 20
24.86351
 30
0.0
 10
-5.79121
 20
24.86351
 30
0.0
 10
-5.79121
 20
24.60909
 30
0.0
 10
-5.79121
 20
24.60909
 30
0.0
 10
-5.79121
 20
24.60909
 30
0.0
 10
-5.67225
 20
24.79747
 30
0.0
 10
-5.51985
 20
24.89145
 30
0.0
 10
-5.33316
 20
24.89145
 30
0.0
 10
-5.33316
 20
24.89145
 30
0.0
 10
-5.15325
 20
24.89145
 30
0.0
 10
-5.0309
 20
24.79747
 30
0.0
 10
-4.96571
 20
24.60909
 30
0.0
 10
-4.96571
 20
24.60909
 30
0.0
 10
-4.85014
 20
24.79916
 30
0.0
 10
-4.69943
 20
24.89399
 30
0.0
 10
-4.51444
 20
24.89399
 30
0.0
 10
-4.51444
 20
24.89399
 30
0.0
 10
-4.39633
 20
24.89399
 30
0.0
 10
-4.30446
 20
24.85928
 30
0.0
 10
-4.23885
 20
24.78943
 30
0.0
 10
-4.23885
 20
24.78943
 30
0.0
 10
-4.17323
 20
24.71958
 30
0.0
 10
-4.14021
 20
24.62179
 30
0.0
 10
-4.14021
 20
24.49606
 30
0.0
 10
-4.14021
 20
24.49606
 30
0.0
 10
-4.14021
 20
24.49606
 30
0.0
 10
-4.14021
 20
23.51731
 30
0.0
 10
-4.14021
 20
23.51731
 30
0.0
 10
-4.14021
 20
23.51731
 30
0.0
 10
-4.14021
 20
23.51731
 30
0.0
 10
-4.38405
 20
23.51731
 30
0.0
 10
-4.38405
 20
23.51731
 30
0.0
 10
-4.38405
 20
23.51731
 30
0.0
 10
-4.38405
 20
23.51731
 30
0.0
 10
-4.38405
 20
24.45584
 30
0.0
 10
-4.38405
 20
24.45584
 30
0.0
 10
-4.38405
 20
24.45584
 30
0.0
 10
-4.38405
 20
24.60909
 30
0.0
 10
-4.44501
 20
24.68571
 30
0.0
 10
-4.56693
 20
24.68571
 30
0.0
 10
-4.56693
 20
24.68571
 30
0.0
 10
-4.69351
 20
24.68571
 30
0.0
 10
-4.82643
 20
24.59639
 30
0.0
 10
-4.96571
 20
24.41732
 30
0.0
 10
-4.96571
 20
24.41732
 30
0.0
 10
-4.96571
 20
24.41732
 30
0.0
 10
-4.96571
 20
23.51731
 30
0.0
 10
-4.96571
 20
23.51731
 30
0.0
 10
-4.96571
 20
23.51731
 30
0.0
 10
-4.96571
 20
23.51731
 30
0.0
 10
-5.20955
 20
23.51731
 30
0.0
 10
-5.20955
 20
23.51731
 30
0.0
 10
-5.20955
 20
23.51731
 30
0.0
 10
-5.20955
 20
23.51731
 30
0.0
 10
-5.20955
 20
24.45669
 30
0.0
 10
-5.20955
 20
24.45669
 30
0.0
 10
-5.20955
 20
24.45669
 30
0.0
 10
-5.20955
 20
24.6112
 30
0.0
 10
-5.27136
 20
24.68825
 30
0.0
 10
-5.39539
 20
24.68825
 30
0.0
 10
-5.39539
 20
24.68825
 30
0.0
 10
-5.51858
 20
24.68825
 30
0.0
 10
-5.65066
 20
24.5985
 30
0.0
 10
-5.79121
 20
24.41859
 30
0.0
 10
-5.79121
 20
24.41859
 30
0.0
 10
-5.79121
 20
24.41859
 30
0.0
 10
-5.79121
 20
23.51731
 30
0.0
 10
-5.79121
 20
23.51731
 30
0.0
 10
-5.79121
 20
23.51731
 30
0.0
 10
-5.79121
 20
23.51731
 30
0.0
 10
-6.03505
 20
23.51731
 30
0.0
 10
-6.03505
 20
23.51731
 30
0.0
  0
SPLINE
  5
63
330
1F
100
AcDbEntity
  8
Layer 1
100
AcDbSpline
210
0.0
220
0.0
230
1.0
 70
    11
 71
     3
 72
    20
 73
    16
 74
     0
 42
0.0000000001
 43
0.0000000001
 12
1.0
 22
0.0
 32
0.0
 13
1.0
 23
0.0
 33
0.0
 40
0.0
 40
0.0
 40
0.0
 40
0.0
 40
0.2
 40
0.2
 40
0.2
 40
0.2
 40
0.4
 40
0.4
 40
0.4
 40
0.4
 40
0.6
 40
0.6
 40
0.6
 40
0.6
 40
1.0
 40
1.0
 40
1.0
 40
1.0
 10
-3.66354
 20
23.51731
 30
0.0
 10
-3.66354
 20
23.51731
 30
0.0
 10
-3.66354
 20
24.86351
 30
0.0
 10
-3.66354
 20
24.86351
 30
0.0
 10
-3.66354
 20
24.86351
 30
0.0
 10
-3.66354
 20
24.86351
 30
0.0
 10
-3.4197
 20
24.86351
 30
0.0
 10
-3.4197
 20
24.86351
 30
0.0
 10
-3.4197
 20
24.86351
 30
0.0
 10
-3.4197
 20
24.86351
 30
0.0
 10
-3.4197
 20
23.51731
 30
0.0
 10
-3.4197
 20
23.51731
 30
0.0
 10
-3.4197
 20
23.51731
 30
0.0
 10
-3.4197
 20
23.51731
 30
0.0
 10
-3.66354
 20
23.51731
 30
0.0
 10
-3.66354
 20
23.51731
 30
0.0
  0
SPLINE
  5
64
330
1F
100
AcDbEntity
  8
Layer 1
100
AcDbSpline
210
0.0
220
0.0
230
1.0
 70
    11
 71
     3
 72
    20
 73
    16
 74
     0
 42
0.0000000001
 43
0.0000000001
 12
1.0
 22
0.0
 32
0.0
 13
1.0
 23
0.0
 33
0.0
 40
0.0
 40
0.0
 40
0.0
 40
0.0
 40
0.2
 40
0.2
 40
0.2
 40
0.2
 40
0.4
 40
0.4
 40
0.4
 40
0.4
 40
0.6
 40
0.6
 40
0.6
 40
0.6
 40
1.0
 40
1.0
 40
1.0
 40
1.0
 10
-3.66354
 20
25.10989
 30
0.0
 10
-3.66354
 20
25.10989
 30
0.0
 10
-3.66354
 20
25.35373
 30
0.0
 10
-3.66354
 20
25.35373
 30
0.0
 10
-3.66354
 20
25.35373
 30
0.0
 10
-3.66354
 20
25.35373
 30
0.0
 10
-3.4197
 20
25.35373
 30
0.0
 10
-3.4197
 20
25.35373
 30
0.0
 10
-3.4197
 20
25.35373
 30
0.0
 10
-3.4197
 20
25.35373
 30
0.0
 10
-3.4197
 20
25.10989
 30
0.0
 10
-3.4197
 20
25.10989
 30
0.0
 10
-3.4197
 20
25.10989
 30
0.0
 10
-3.4197
 20
25.10989
 30
0.0
 10
-3.66354
 20
25.10989
 30
0.0
 10
-3.66354
 20
25.10989
 30
0.0
  0
SPLINE
  5
65
330
1F
100
AcDbEntity
  8
Layer 1
100
AcDbSpline
210
0.0
220
0.0
230
1.0
 70
    11
 71
     3
 72
    60
 73
    56
 74
     0
 42
0.0000000001
 43
0.0000000001
 12
1.0
 22
0.0
 32
0.0
 13
1.0
 23
0.0
 33
0.0
 40
0.0
 40
0.0
 40
0.0
 40
0.0
 40
0.0666666666666667
 40
0.0666666666666667
 40
0.0666666666666667
 40
0.0666666666666667
 40
0.1333333333333333
 40
0.1333333333333333
 40
0.1333333333333333
 40
0.1333333333333333
 40
0.2
 40
0.2
 40
0.2
 40
0.2
 40
0.2666666666666667
 40
0.2666666666666667
 40
0.2666666666666667
 40
0.2666666666666667
 40
0.3333333333333333
 40
0.3333333333333333
 40
0.3333333333333333
 40
0.3333333333333333
 40
0.4
 40
0.4
 40
0.4
 40
0.4
 40
0.4666666666666667
 40
0.4666666666666667
 40
0.4666666666666667
 40
0.4666666666666667
 40
0.5333333333333333
 40
0.5333333333333333
 40
0.5333333333333333
 40
0.5333333333333333
 40
0.6
 40
0.6
 40
0.6
 40
0.6
 40
0.6666666666666666
 40
0.6666666666666666
 40
0.6666666666666666
 40
0.6666666666666666
 40
0.7333333333333333
 40
0.7333333333333333
 40
0.7333333333333333
 40
0.7333333333333333
 40
0.8
 40
0.8
 40
0.8
 40
0.8
 40
0.8666666666666667
 40
0.8666666666666667
 40
0.8666666666666667
 40
0.8666666666666667
 40
1.0
 40
1.0
 40
1.0
 40
1.0
 10
-1.99476
 20
23.55795
 30
0.0
 10
-2.15266
 20
23.51054
 30
0.0
 10
-2.28898
 20
23.48683
 30
0.0
 10
-2.4037
 20
23.48683
 30
0.0
 10
-2.4037
 20
23.48683
 30
0.0
 10
-2.58573
 20
23.48683
 30
0.0
 10
-2.73644
 20
23.55414
 30
0.0
 10
-2.85624
 20
23.68834
 30
0.0
 10
-2.85624
 20
23.68834
 30
0.0
 10
-2.97605
 20
23.82296
 30
0.0
 10
-3.03616
 20
23.99271
 30
0.0
 10
-3.03616
 20
24.19718
 30
0.0
 10
-3.03616
 20
24.19718
 30
0.0
 10
-3.03616
 20
24.41562
 30
0.0
 10
-2.97689
 20
24.58623
 30
0.0
 10
-2.85836
 20
24.70815
 30
0.0
 10
-2.85836
 20
24.70815
 30
0.0
 10
-2.73983
 20
24.83049
 30
0.0
 10
-2.5743
 20
24.89145
 30
0.0
 10
-2.36179
 20
24.89145
 30
0.0
 10
-2.36179
 20
24.89145
 30
0.0
 10
-2.25723
 20
24.89145
 30
0.0
 10
-2.13954
 20
24.87706
 30
0.0
 10
-2.01
 20
24.84827
 30
0.0
 10
-2.01
 20
24.84827
 30
0.0
 10
-2.01
 20
24.84827
 30
0.0
 10
-2.01
 20
24.64253
 30
0.0
 10
-2.01
 20
24.64253
 30
0.0
 10
-2.01
 20
24.64253
 30
0.0
 10
-2.14758
 20
24.68317
 30
0.0
 10
-2.25977
 20
24.70349
 30
0.0
 10
-2.34613
 20
24.70349
 30
0.0
 10
-2.34613
 20
24.70349
 30
0.0
 10
-2.47143
 20
24.70349
 30
0.0
 10
-2.57176
 20
24.6565
 30
0.0
 10
-2.64669
 20
24.56294
 30
0.0
 10
-2.64669
 20
24.56294
 30
0.0
 10
-2.72162
 20
24.46939
 30
0.0
 10
-2.7593
 20
24.3445
 30
0.0
 10
-2.7593
 20
24.18872
 30
0.0
 10
-2.7593
 20
24.18872
 30
0.0
 10
-2.7593
 20
24.03759
 30
0.0
 10
-2.72035
 20
23.91567
 30
0.0
 10
-2.64288
 20
23.82211
 30
0.0
 10
-2.64288
 20
23.82211
 30
0.0
 10
-2.56541
 20
23.72898
 30
0.0
 10
-2.46424
 20
23.68241
 30
0.0
 10
-2.33851
 20
23.68241
 30
0.0
 10
-2.33851
 20
23.68241
 30
0.0
 10
-2.22717
 20
23.68241
 30
0.0
 10
-2.11287
 20
23.7112
 30
0.0
 10
-1.99476
 20
23.76877
 30
0.0
 10
-1.99476
 20
23.76877
 30
0.0
 10
-1.99476
 20
23.76877
 30
0.0
 10
-1.99476
 20
23.55795
 30
0.0
 10
-1.99476
 20
23.55795
 30
0.0
  0
SPLINE
  5
66
330
1F
100
AcDbEntity
  8
Layer 1
100
AcDbSpline
210
0.0
220
0.0
230
1.0
 70
    11
 71
     3
 72
    44
 73
    40
 74
     0
 42
0.0000000001
 43
0.0000000001
 12
1.0
 22
0.0
 32
0.0
 13
1.0
 23
0.0
 33
0.0
 40
0.0
 40
0.0
 40
0.0
 40
0.0
 40
0.0909090909090909
 40
0.0909090909090909
 40
0.0909090909090909
 40
0.0909090909090909
 40
0.1818181818181818
 40
0.1818181818181818
 40
0.1818181818181818
 40
0.1818181818181818
 40
0.2727272727272727
 40
0.2727272727272727
 40
0.2727272727272727
 40
0.2727272727272727
 40
0.3636363636363636
 40
0.3636363636363636
 40
0.3636363636363636
 40
0.3636363636363636
 40
0.4545454545454545
 40
0.4545454545454545
 40
0.4545454545454545
 40
0.4545454545454545
 40
0.5454545454545454
 40
0.5454545454545454
 40
0.5454545454545454
 40
0.5454545454545454
 40
0.6363636363636364
 40
0.6363636363636364
 40
0.6363636363636364
 40
0.6363636363636364
 40
0.7272727272727273
 40
0.7272727272727273
 40
0.7272727272727273
 40
0.7272727272727273
 40
0.8181818181818182
 40
0.8181818181818182
 40
0.8181818181818182
 40
0.8181818181818182
 40
1.0
 40
1.0
 40
1.0
 40
1.0
 10
-1.62858
 20
23.51731
 30
0.0
 10
-1.62858
 20
23.51731
 30
0.0
 10
-1.62858
 20
24.86351
 30
0.0
 10
-1.62858
 20
24.86351
 30
0.0
 10
-1.62858
 20
24.86351
 30
0.0
 10
-1.62858
 20
24.86351
 30
0.0
 10
-1.38474
 20
24.86351
 30
0.0
 10
-1.38474
 20
24.86351
 30
0.0
 10
-1.38474
 20
24.86351
 30
0.0
 10
-1.38474
 20
24.86351
 30
0.0
 10
-1.38474
 20
24.60909
 30
0.0
 10
-1.38474
 20
24.60909
 30
0.0
 10
-1.38474
 20
24.60909
 30
0.0
 10
-1.2878
 20
24.79747
 30
0.0
 10
-1.14725
 20
24.89145
 30
0.0
 10
-0.96268
 20
24.89145
 30
0.0
 10
-0.96268
 20
24.89145
 30
0.0
 10
-0.9377
 20
24.89145
 30
0.0
 10
-0.91145
 20
24.88933
 30
0.0
 10
-0.88436
 20
24.8851
 30
0.0
 10
-0.88436
 20
24.8851
 30
0.0
 10
-0.88436
 20
24.8851
 30
0.0
 10
-0.88436
 20
24.65692
 30
0.0
 10
-0.88436
 20
24.65692
 30
0.0
 10
-0.88436
 20
24.65692
 30
0.0
 10
-0.92669
 20
24.67089
 30
0.0
 10
-0.96395
 20
24.67809
 30
0.0
 10
-0.99612
 20
24.67809
 30
0.0
 10
-0.99612
 20
24.67809
 30
0.0
 10
-1.15106
 20
24.67809
 30
0.0
 10
-1.2806
 20
24.58665
 30
0.0
 10
-1.38474
 20
24.40335
 30
0.0
 10
-1.38474
 20
24.40335
 30
0.0
 10
-1.38474
 20
24.40335
 30
0.0
 10
-1.38474
 20
23.51731
 30
0.0
 10
-1.38474
 20
23.51731
 30
0.0
 10
-1.38474
 20
23.51731
 30
0.0
 10
-1.38474
 20
23.51731
 30
0.0
 10
-1.62858
 20
23.51731
 30
0.0
 10
-1.62858
 20
23.51731
 30
0.0
  0
SPLINE
  5
67
330
1F
100
AcDbEntity
  8
Layer 1
100
AcDbSpline
210
0.0
220
0.0
230
1.0
 70
    11
 71
     3
 72
    36
 73
    32
 74
     0
 42
0.0000000001
 43
0.0000000001
 12
1.0
 22
0.0
 32
0.0
 13
1.0
 23
0.0
 33
0.0
 40
0.0
 40
0.0
 40
0.0
 40
0.0
 40
0.1111111111111111
 40
0.1111111111111111
 40
0.1111111111111111
 40
0.1111111111111111
 40
0.2222222222222222
 40
0.2222222222222222
 40
0.2222222222222222
 40
0.2222222222222222
 40
0.3333333333333333
 40
0.3333333333333333
 40
0.3333333333333333
 40
0.3333333333333333
 40
0.4444444444444444
 40
0.4444444444444444
 40
0.4444444444444444
 40
0.4444444444444444
 40
0.5555555555555556
 40
0.5555555555555556
 40
0.5555555555555556
 40
0.5555555555555556
 40
0.6666666666666666
 40
0.6666666666666666
 40
0.6666666666666666
 40
0.6666666666666666
 40
0.7777777777777778
 40
0.7777777777777778
 40
0.7777777777777778
 40
0.7777777777777778
 40
1.0
 40
1.0
 40
1.0
 40
1.0
 10
-0.05336
 20
23.48683
 30
0.0
 10
-0.25106
 20
23.48683
 30
0.0
 10
-0.40769
 20
23.54991
 30
0.0
 10
-0.52284
 20
23.67606
 30
0.0
 10
-0.52284
 20
23.67606
 30
0.0
 10
-0.63841
 20
23.80221
 30
0.0
 10
-0.69598
 20
23.97366
 30
0.0
 10
-0.69598
 20
24.18999
 30
0.0
 10
-0.69598
 20
24.18999
 30
0.0
 10
-0.69598
 20
24.40589
 30
0.0
 10
-0.63841
 20
24.57691
 30
0.0
 10
-0.52284
 20
24.70264
 30
0.0
 10
-0.52284
 20
24.70264
 30
0.0
 10
-0.40769
 20
24.82837
 30
0.0
 10
-0.25106
 20
24.89145
 30
0.0
 10
-0.05336
 20
24.89145
 30
0.0
 10
-0.05336
 20
24.89145
 30
0.0
 10
0.14434
 20
24.89145
 30
0.0
 10
0.30097
 20
24.82837
 30
0.0
 10
0.41612
 20
24.70264
 30
0.0
 10
0.41612
 20
24.70264
 30
0.0
 10
0.53169
 20
24.57691
 30
0.0
 10
0.58926
 20
24.40589
 30
0.0
 10
0.58926
 20
24.18999
 30
0.0
 10
0.58926
 20
24.18999
 30
0.0
 10
0.58926
 20
23.97366
 30
0.0
 10
0.53169
 20
23.80221
 30
0.0
 10
0.41612
 20
23.67606
 30
0.0
 10
0.41612
 20
23.67606
 30
0.0
 10
0.30097
 20
23.54991
 30
0.0
 10
0.14434
 20
23.48683
 30
0.0
 10
-0.05336
 20
23.48683
 30
0.0
  0
SPLINE
  5
68
330
1F
100
AcDbEntity
  8
Layer 1
100
AcDbSpline
210
0.0
220
0.0
230
1.0
 70
    11
 71
     3
 72
    36
 73
    32
 74
     0
 42
0.0000000001
 43
0.0000000001
 12
1.0
 22
0.0
 32
0.0
 13
1.0
 23
0.0
 33
0.0
 40
0.0
 40
0.0
 40
0.0
 40
0.0
 40
0.1111111111111111
 40
0.1111111111111111
 40
0.1111111111111111
 40
0.1111111111111111
 40
0.2222222222222222
 40
0.2222222222222222
 40
0.2222222222222222
 40
0.2222222222222222
 40
0.3333333333333333
 40
0.3333333333333333
 40
0.3333333333333333
 40
0.3333333333333333
 40
0.4444444444444444
 40
0.4444444444444444
 40
0.4444444444444444
 40
0.4444444444444444
 40
0.5555555555555556
 40
0.5555555555555556
 40
0.5555555555555556
 40
0.5555555555555556
 40
0.6666666666666666
 40
0.6666666666666666
 40
0.6666666666666666
 40
0.6666666666666666
 40
0.7777777777777778
 40
0.7777777777777778
 40
0.7777777777777778
 40
0.7777777777777778
 40
1.0
 40
1.0
 40
1.0
 40
1.0
 10
-0.05378
 20
23.66971
 30
0.0
 10
0.06687
 20
23.66971
 30
0.0
 10
0.16085
 20
23.71501
 30
0.0
 10
0.22773
 20
23.80602
 30
0.0
 10
0.22773
 20
23.80602
 30
0.0
 10
0.2942
 20
23.89662
 30
0.0
 10
0.32764
 20
24.02489
 30
0.0
 10
0.32764
 20
24.18999
 30
0.0
 10
0.32764
 20
24.18999
 30
0.0
 10
0.32764
 20
24.35466
 30
0.0
 10
0.2942
 20
24.48251
 30
0.0
 10
0.22773
 20
24.5731
 30
0.0
 10
0.22773
 20
24.5731
 30
0.0
 10
0.16085
 20
24.66327
 30
0.0
 10
0.06687
 20
24.70857
 30
0.0
 10
-0.05378
 20
24.70857
 30
0.0
 10
-0.05378
 20
24.70857
 30
0.0
 10
-0.17486
 20
24.70857
 30
0.0
 10
-0.26884
 20
24.66327
 30
0.0
 10
-0.33488
 20
24.5731
 30
0.0
 10
-0.33488
 20
24.5731
 30
0.0
 10
-0.40134
 20
24.48251
 30
0.0
 10
-0.43436
 20
24.35466
 30
0.0
 10
-0.43436
 20
24.18999
 30
0.0
 10
-0.43436
 20
24.18999
 30
0.0
 10
-0.43436
 20
24.02489
 30
0.0
 10
-0.40134
 20
23.89662
 30
0.0
 10
-0.33488
 20
23.80602
 30
0.0
 10
-0.33488
 20
23.80602
 30
0.0
 10
-0.26884
 20
23.71501
 30
0.0
 10
-0.17486
 20
23.66971
 30
0.0
 10
-0.05378
 20
23.66971
 30
0.0
  0
SPLINE
  5
69
330
1F
100
AcDbEntity
  8
Layer 1
100
AcDbSpline
210
0.0
220
0.0
230
1.0
 70
    11
 71
     3
 72
    92
 73
    88
 74
     0
 42
0.0000000001
 43
0.0000000001
 12
1.0
 22
0.0
 32
0.0
 13
1.0
 23
0.0
 33
0.0
 40
0.0
 40
0.0
 40
0.0
 40
0.0
 40
0.0434782608695652
 40
0.0434782608695652
 40
0.0434782608695652
 40
0.0434782608695652
 40
0.0869565217391304
 40
0.0869565217391304
 40
0.0869565217391304
 40
0.0869565217391304
 40
0.1304347826086956
 40
0.1304347826086956
 40
0.1304347826086956
 40
0.1304347826086956
 40
0.1739130434782609
 40
0.1739130434782609
 40
0.1739130434782609
 40
0.1739130434782609
 40
0.2173913043478261
 40
0.2173913043478261
 40
0.2173913043478261
 40
0.2173913043478261
 40
0.2608695652173913
 40
0.2608695652173913
 40
0.2608695652173913
 40
0.2608695652173913
 40
0.3043478260869565
 40
0.3043478260869565
 40
0.3043478260869565
 40
0.3043478260869565
 40
0.3478260869565217
 40
0.3478260869565217
 40
0.3478260869565217
 40
0.3478260869565217
 40
0.391304347826087
 40
0.391304347826087
 40
0.391304347826087
 40
0.391304347826087
 40
0.4347826086956522
 40
0.4347826086956522
 40
0.4347826086956522
 40
0.4347826086956522
 40
0.4782608695652174
 40
0.4782608695652174
 40
0.4782608695652174
 40
0.4782608695652174
 40
0.5217391304347826
 40
0.5217391304347826
 40
0.5217391304347826
 40
0.5217391304347826
 40
0.5652173913043478
 40
0.5652173913043478
 40
0.5652173913043478
 40
0.5652173913043478
 40
0.6086956521739131
 40
0.6086956521739131
 40
0.6086956521739131
 40
0.6086956521739131
 40
0.6521739130434783
 40
0.6521739130434783
 40
0.6521739130434783
 40
0.6521739130434783
 40
0.6956521739130435
 40
0.6956521739130435
 40
0.6956521739130435
 40
0.6956521739130435
 40
0.7391304347826086
 40
0.7391304347826086
 40
0.7391304347826086
 40
0.7391304347826086
 40
0.782608695652174
 40
0.782608695652174
 40
0.782608695652174
 40
0.782608695652174
 40
0.8260869565217391
 40
0.8260869565217391
 40
0.8260869565217391
 40
0.8260869565217391
 40
0.8695652173913043
 40
0.8695652173913043
 40
0.8695652173913043
 40
0.8695652173913043
 40
0.9130434782608695
 40
0.9130434782608695
 40
0.9130434782608695
 40
0.9130434782608695
 40
1.0
 40
1.0
 40
1.0
 40
1.0
 10
0.92285
 20
23.56557
 30
0.0
 10
0.92285
 20
23.56557
 30
0.0
 10
0.92285
 20
23.78909
 30
0.0
 10
0.92285
 20
23.78909
 30
0.0
 10
0.92285
 20
23.78909
 30
0.0
 10
1.08245
 20
23.7095
 30
0.0
 10
1.22088
 20
23.66971
 30
0.0
 10
1.33899
 20
23.66971
 30
0.0
 10
1.33899
 20
23.66971
 30
0.0
 10
1.40926
 20
23.66971
 30
0.0
 10
1.46768
 20
23.68876
 30
0.0
 10
1.51382
 20
23.72686
 30
0.0
 10
1.51382
 20
23.72686
 30
0.0
 10
1.55997
 20
23.76454
 30
0.0
 10
1.58325
 20
23.81195
 30
0.0
 10
1.58325
 20
23.8691
 30
0.0
 10
1.58325
 20
23.8691
 30
0.0
 10
1.58325
 20
23.9525
 30
0.0
 10
1.51848
 20
24.0215
 30
0.0
 10
1.38894
 20
24.07611
 30
0.0
 10
1.38894
 20
24.07611
 30
0.0
 10
1.38894
 20
24.07611
 30
0.0
 10
1.24628
 20
24.13665
 30
0.0
 10
1.24628
 20
24.13665
 30
0.0
 10
1.24628
 20
24.13665
 30
0.0
 10
1.03588
 20
24.22385
 30
0.0
 10
0.93047
 20
24.35001
 30
0.0
 10
0.93047
 20
24.51384
 30
0.0
 10
0.93047
 20
24.51384
 30
0.0
 10
0.93047
 20
24.6311
 30
0.0
 10
0.97196
 20
24.72339
 30
0.0
 10
1.05493
 20
24.7907
 30
0.0
 10
1.05493
 20
24.7907
 30
0.0
 10
1.1379
 20
24.85801
 30
0.0
 10
1.25178
 20
24.89145
 30
0.0
 10
1.39614
 20
24.89145
 30
0.0
 10
1.39614
 20
24.89145
 30
0.0
 10
1.47107
 20
24.89145
 30
0.0
 10
1.5642
 20
24.88129
 30
0.0
 10
1.67469
 20
24.86055
 30
0.0
 10
1.67469
 20
24.86055
 30
0.0
 10
1.67469
 20
24.86055
 30
0.0
 10
1.72549
 20
24.85081
 30
0.0
 10
1.72549
 20
24.85081
 30
0.0
 10
1.72549
 20
24.85081
 30
0.0
 10
1.72549
 20
24.85081
 30
0.0
 10
1.72549
 20
24.64761
 30
0.0
 10
1.72549
 20
24.64761
 30
0.0
 10
1.72549
 20
24.64761
 30
0.0
 10
1.5896
 20
24.68825
 30
0.0
 10
1.48123
 20
24.70857
 30
0.0
 10
1.40037
 20
24.70857
 30
0.0
 10
1.40037
 20
24.70857
 30
0.0
 10
1.32925
 20
24.70857
 30
0.0
 10
1.27295
 20
24.69291
 30
0.0
 10
1.23019
 20
24.662
 30
0.0
 10
1.23019
 20
24.662
 30
0.0
 10
1.18786
 20
24.6311
 30
0.0
 10
1.16669
 20
24.58961
 30
0.0
 10
1.16669
 20
24.53754
 30
0.0
 10
1.16669
 20
24.53754
 30
0.0
 10
1.16669
 20
24.46431
 30
0.0
 10
1.22596
 20
24.40208
 30
0.0
 10
1.34491
 20
24.3517
 30
0.0
 10
1.34491
 20
24.3517
 30
0.0
 10
1.34491
 20
24.3517
 30
0.0
 10
1.46218
 20
24.30217
 30
0.0
 10
1.46218
 20
24.30217
 30
0.0
 10
1.46218
 20
24.30217
 30
0.0
 10
1.5951
 20
24.24629
 30
0.0
 10
1.68908
 20
24.18702
 30
0.0
 10
1.74412
 20
24.12479
 30
0.0
 10
1.74412
 20
24.12479
 30
0.0
 10
1.79957
 20
24.06256
 30
0.0
 10
1.82709
 20
23.98467
 30
0.0
 10
1.82709
 20
23.89154
 30
0.0
 10
1.82709
 20
23.89154
 30
0.0
 10
1.82709
 20
23.77343
 30
0.0
 10
1.78052
 20
23.67648
 30
0.0
 10
1.68697
 20
23.60071
 30
0.0
 10
1.68697
 20
23.60071
 30
0.0
 10
1.59383
 20
23.52493
 30
0.0
 10
1.47445
 20
23.48683
 30
0.0
 10
1.32925
 20
23.48683
 30
0.0
 10
1.32925
 20
23.48683
 30
0.0
 10
1.21749
 20
23.48683
 30
0.0
 10
1.08245
 20
23.51308
 30
0.0
 10
0.92285
 20
23.56557
 30
0.0
  0
SPLINE
  5
6A
330
1F
100
AcDbEntity
  8
Layer 1
100
AcDbSpline
210
0.0
220
0.0
230
1.0
 70
    11
 71
     3
 72
    36
 73
    32
 74
     0
 42
0.0000000001
 43
0.0000000001
 12
1.0
 22
0.0
 32
0.0
 13
1.0
 23
0.0
 33
0.0
 40
0.0
 40
0.0
 40
0.0
 40
0.0
 40
0.1111111111111111
 40
0.1111111111111111
 40
0.1111111111111111
 40
0.1111111111111111
 40
0.2222222222222222
 40
0.2222222222222222
 40
0.2222222222222222
 40
0.2222222222222222
 40
0.3333333333333333
 40
0.3333333333333333
 40
0.3333333333333333
 40
0.3333333333333333
 40
0.4444444444444444
 40
0.4444444444444444
 40
0.4444444444444444
 40
0.4444444444444444
 40
0.5555555555555556
 40
0.5555555555555556
 40
0.5555555555555556
 40
0.5555555555555556
 40
0.6666666666666666
 40
0.6666666666666666
 40
0.6666666666666666
 40
0.6666666666666666
 40
0.7777777777777778
 40
0.7777777777777778
 40
0.7777777777777778
 40
0.7777777777777778
 40
1.0
 40
1.0
 40
1.0
 40
1.0
 10
2.80203
 20
23.48683
 30
0.0
 10
2.60433
 20
23.48683
 30
0.0
 10
2.4477
 20
23.54991
 30
0.0
 10
2.33255
 20
23.67606
 30
0.0
 10
2.33255
 20
23.67606
 30
0.0
 10
2.21698
 20
23.80221
 30
0.0
 10
2.15941
 20
23.97366
 30
0.0
 10
2.15941
 20
24.18999
 30
0.0
 10
2.15941
 20
24.18999
 30
0.0
 10
2.15941
 20
24.40589
 30
0.0
 10
2.21698
 20
24.57691
 30
0.0
 10
2.33255
 20
24.70264
 30
0.0
 10
2.33255
 20
24.70264
 30
0.0
 10
2.4477
 20
24.82837
 30
0.0
 10
2.60433
 20
24.89145
 30
0.0
 10
2.80203
 20
24.89145
 30
0.0
 10
2.80203
 20
24.89145
 30
0.0
 10
2.99973
 20
24.89145
 30
0.0
 10
3.15636
 20
24.82837
 30
0.0
 10
3.27151
 20
24.70264
 30
0.0
 10
3.27151
 20
24.70264
 30
0.0
 10
3.38708
 20
24.57691
 30
0.0
 10
3.44465
 20
24.40589
 30
0.0
 10
3.44465
 20
24.18999
 30
0.0
 10
3.44465
 20
24.18999
 30
0.0
 10
3.44465
 20
23.97366
 30
0.0
 10
3.38708
 20
23.80221
 30
0.0
 10
3.27151
 20
23.67606
 30
0.0
 10
3.27151
 20
23.67606
 30
0.0
 10
3.15636
 20
23.54991
 30
0.0
 10
2.99973
 20
23.48683
 30
0.0
 10
2.80203
 20
23.48683
 30
0.0
  0
SPLINE
  5
6B
330
1F
100
AcDbEntity
  8
Layer 1
100
AcDbSpline
210
0.0
220
0.0
230
1.0
 70
    11
 71
     3
 72
    36
 73
    32
 74
     0
 42
0.0000000001
 43
0.0000000001
 12
1.0
 22
0.0
 32
0.0
 13
1.0
 23
0.0
 33
0.0
 40
0.0
 40
0.0
 40
0.0
 40
0.0
 40
0.1111111111111111
 40
0.1111111111111111
 40
0.1111111111111111
 40
0.1111111111111111
 40
0.2222222222222222
 40
0.2222222222222222
 40
0.2222222222222222
 40
0.2222222222222222
 40
0.3333333333333333
 40
0.3333333333333333
 40
0.3333333333333333
 40
0.3333333333333333
 40
0.4444444444444444
 40
0.4444444444444444
 40
0.4444444444444444
 40
0.4444444444444444
 40
0.5555555555555556
 40
0.5555555555555556
 40
0.5555555555555556
 40
0.5555555555555556
 40
0.6666666666666666
 40
0.6666666666666666
 40
0.6666666666666666
 40
0.6666666666666666
 40
0.7777777777777778
 40
0.7777777777777778
 40
0.7777777777777778
 40
0.7777777777777778
 40
1.0
 40
1.0
 40
1.0
 40
1.0
 10
2.80161
 20
23.66971
 30
0.0
 10
2.92226
 20
23.66971
 30
0.0
 10
3.01624
 20
23.71501
 30
0.0
 10
3.08312
 20
23.80602
 30
0.0
 10
3.08312
 20
23.80602
 30
0.0
 10
3.14959
 20
23.89662
 30
0.0
 10
3.18303
 20
24.02489
 30
0.0
 10
3.18303
 20
24.18999
 30
0.0
 10
3.18303
 20
24.18999
 30
0.0
 10
3.18303
 20
24.35466
 30
0.0
 10
3.14959
 20
24.48251
 30
0.0
 10
3.08312
 20
24.5731
 30
0.0
 10
3.08312
 20
24.5731
 30
0.0
 10
3.01624
 20
24.66327
 30
0.0
 10
2.92226
 20
24.70857
 30
0.0
 10
2.80161
 20
24.70857
 30
0.0
 10
2.80161
 20
24.70857
 30
0.0
 10
2.68053
 20
24.70857
 30
0.0
 10
2.58655
 20
24.66327
 30
0.0
 10
2.52051
 20
24.5731
 30
0.0
 10
2.52051
 20
24.5731
 30
0.0
 10
2.45405
 20
24.48251
 30
0.0
 10
2.42103
 20
24.35466
 30
0.0
 10
2.42103
 20
24.18999
 30
0.0
 10
2.42103
 20
24.18999
 30
0.0
 10
2.42103
 20
24.02489
 30
0.0
 10
2.45405
 20
23.89662
 30
0.0
 10
2.52051
 20
23.80602
 30
0.0
 10
2.52051
 20
23.80602
 30
0.0
 10
2.58655
 20
23.71501
 30
0.0
 10
2.68053
 20
23.66971
 30
0.0
 10
2.80161
 20
23.66971
 30
0.0
  0
SPLINE
  5
6C
330
1F
100
AcDbEntity
  8
Layer 1
100
AcDbSpline
210
0.0
220
0.0
230
1.0
 70
    11
 71
     3
 72
    72
 73
    68
 74
     0
 42
0.0000000001
 43
0.0000000001
 12
1.0
 22
0.0
 32
0.0
 13
1.0
 23
0.0
 33
0.0
 40
0.0
 40
0.0
 40
0.0
 40
0.0
 40
0.0555555555555556
 40
0.0555555555555556
 40
0.0555555555555556
 40
0.0555555555555556
 40
0.1111111111111111
 40
0.1111111111111111
 40
0.1111111111111111
 40
0.1111111111111111
 40
0.1666666666666667
 40
0.1666666666666667
 40
0.1666666666666667
 40
0.1666666666666667
 40
0.2222222222222222
 40
0.2222222222222222
 40
0.2222222222222222
 40
0.2222222222222222
 40
0.2777777777777778
 40
0.2777777777777778
 40
0.2777777777777778
 40
0.2777777777777778
 40
0.3333333333333333
 40
0.3333333333333333
 40
0.3333333333333333
 40
0.3333333333333333
 40
0.3888888888888889
 40
0.3888888888888889
 40
0.3888888888888889
 40
0.3888888888888889
 40
0.4444444444444444
 40
0.4444444444444444
 40
0.4444444444444444
 40
0.4444444444444444
 40
0.5
 40
0.5
 40
0.5
 40
0.5
 40
0.5555555555555556
 40
0.5555555555555556
 40
0.5555555555555556
 40
0.5555555555555556
 40
0.6111111111111112
 40
0.6111111111111112
 40
0.6111111111111112
 40
0.6111111111111112
 40
0.6666666666666666
 40
0.6666666666666666
 40
0.6666666666666666
 40
0.6666666666666666
 40
0.7222222222222222
 40
0.7222222222222222
 40
0.7222222222222222
 40
0.7222222222222222
 40
0.7777777777777778
 40
0.7777777777777778
 40
0.7777777777777778
 40
0.7777777777777778
 40
0.8333333333333334
 40
0.8333333333333334
 40
0.8333333333333334
 40
0.8333333333333334
 40
0.8888888888888888
 40
0.8888888888888888
 40
0.8888888888888888
 40
0.8888888888888888
 40
1.0
 40
1.0
 40
1.0
 40
1.0
 10
3.87222
 20
23.51731
 30
0.0
 10
3.87222
 20
23.51731
 30
0.0
 10
3.87222
 20
24.68063
 30
0.0
 10
3.87222
 20
24.68063
 30
0.0
 10
3.87222
 20
24.68063
 30
0.0
 10
3.87222
 20
24.68063
 30
0.0
 10
3.6813
 20
24.68063
 30
0.0
 10
3.6813
 20
24.68063
 30
0.0
 10
3.6813
 20
24.68063
 30
0.0
 10
3.6813
 20
24.68063
 30
0.0
 10
3.6813
 20
24.86351
 30
0.0
 10
3.6813
 20
24.86351
 30
0.0
 10
3.6813
 20
24.86351
 30
0.0
 10
3.6813
 20
24.86351
 30
0.0
 10
3.87222
 20
24.86351
 30
0.0
 10
3.87222
 20
24.86351
 30
0.0
 10
3.87222
 20
24.86351
 30
0.0
 10
3.87222
 20
24.86351
 30
0.0
 10
3.87222
 20
25.0248
 30
0.0
 10
3.87222
 20
25.0248
 30
0.0
 10
3.87222
 20
25.0248
 30
0.0
 10
3.87222
 20
25.34569
 30
0.0
 10
4.01869
 20
25.50613
 30
0.0
 10
4.31164
 20
25.50613
 30
0.0
 10
4.31164
 20
25.50613
 30
0.0
 10
4.39377
 20
25.50613
 30
0.0
 10
4.4869
 20
25.49258
 30
0.0
 10
4.59104
 20
25.46549
 30
0.0
 10
4.59104
 20
25.46549
 30
0.0
 10
4.59104
 20
25.46549
 30
0.0
 10
4.59104
 20
25.26991
 30
0.0
 10
4.59104
 20
25.26991
 30
0.0
 10
4.59104
 20
25.26991
 30
0.0
 10
4.48055
 20
25.30547
 30
0.0
 10
4.39207
 20
25.32325
 30
0.0
 10
4.32561
 20
25.32325
 30
0.0
 10
4.32561
 20
25.32325
 30
0.0
 10
4.24475
 20
25.32325
 30
0.0
 10
4.18972
 20
25.3042
 30
0.0
 10
4.16051
 20
25.26568
 30
0.0
 10
4.16051
 20
25.26568
 30
0.0
 10
4.13088
 20
25.22715
 30
0.0
 10
4.11606
 20
25.15561
 30
0.0
 10
4.11606
 20
25.05105
 30
0.0
 10
4.11606
 20
25.05105
 30
0.0
 10
4.11606
 20
25.05105
 30
0.0
 10
4.11606
 20
24.86351
 30
0.0
 10
4.11606
 20
24.86351
 30
0.0
 10
4.11606
 20
24.86351
 30
0.0
 10
4.11606
 20
24.86351
 30
0.0
 10
4.4543
 20
24.86351
 30
0.0
 10
4.4543
 20
24.86351
 30
0.0
 10
4.4543
 20
24.86351
 30
0.0
 10
4.4543
 20
24.86351
 30
0.0
 10
4.4543
 20
24.68063
 30
0.0
 10
4.4543
 20
24.68063
 30
0.0
 10
4.4543
 20
24.68063
 30
0.0
 10
4.4543
 20
24.68063
 30
0.0
 10
4.11606
 20
24.68063
 30
0.0
 10
4.11606
 20
24.68063
 30
0.0
 10
4.11606
 20
24.68063
 30
0.0
 10
4.11606
 20
24.68063
 30
0.0
 10
4.11606
 20
23.51731
 30
0.0
 10
4.11606
 20
23.51731
 30
0.0
 10
4.11606
 20
23.51731
 30
0.0
 10
4.11606
 20
23.51731
 30
0.0
 10
3.87222
 20
23.51731
 30
0.0
 10
3.87222
 20
23.51731
 30
0.0
  0
SPLINE
  5
6D
330
1F
100
AcDbEntity
  8
Layer 1
100
AcDbSpline
210
0.0
220
0.0
230
1.0
 70
    11
 71
     3
 72
    72
 73
    68
 74
     0
 42
0.0000000001
 43
0.0000000001
 12
1.0
 22
0.0
 32
0.0
 13
1.0
 23
0.0
 33
0.0
 40
0.0
 40
0.0
 40
0.0
 40
0.0
 40
0.0555555555555556
 40
0.0555555555555556
 40
0.0555555555555556
 40
0.0555555555555556
 40
0.1111111111111111
 40
0.1111111111111111
 40
0.1111111111111111
 40
0.1111111111111111
 40
0.1666666666666667
 40
0.1666666666666667
 40
0.1666666666666667
 40
0.1666666666666667
 40
0.2222222222222222
 40
0.2222222222222222
 40
0.2222222222222222
 40
0.2222222222222222
 40
0.2777777777777778
 40
0.2777777777777778
 40
0.2777777777777778
 40
0.2777777777777778
 40
0.3333333333333333
 40
0.3333333333333333
 40
0.3333333333333333
 40
0.3333333333333333
 40
0.3888888888888889
 40
0.3888888888888889
 40
0.3888888888888889
 40
0.3888888888888889
 40
0.4444444444444444
 40
0.4444444444444444
 40
0.4444444444444444
 40
0.4444444444444444
 40
0.5
 40
0.5
 40
0.5
 40
0.5
 40
0.5555555555555556
 40
0.5555555555555556
 40
0.5555555555555556
 40
0.5555555555555556
 40
0.6111111111111112
 40
0.6111111111111112
 40
0.6111111111111112
 40
0.6111111111111112
 40
0.6666666666666666
 40
0.6666666666666666
 40
0.6666666666666666
 40
0.6666666666666666
 40
0.7222222222222222
 40
0.7222222222222222
 40
0.7222222222222222
 40
0.7222222222222222
 40
0.7777777777777778
 40
0.7777777777777778
 40
0.7777777777777778
 40
0.7777777777777778
 40
0.8333333333333334
 40
0.8333333333333334
 40
0.8333333333333334
 40
0.8333333333333334
 40
0.8888888888888888
 40
0.8888888888888888
 40
0.8888888888888888
 40
0.8888888888888888
 40
1.0
 40
1.0
 40
1.0
 40
1.0
 10
5.36235
 20
23.51773
 30
0.0
 10
5.287
 20
23.49699
 30
0.0
 10
5.22138
 20
23.48683
 30
0.0
 10
5.16592
 20
23.48683
 30
0.0
 10
5.16592
 20
23.48683
 30
0.0
 10
5.04146
 20
23.48683
 30
0.0
 10
4.94452
 20
23.52239
 30
0.0
 10
4.87509
 20
23.59351
 30
0.0
 10
4.87509
 20
23.59351
 30
0.0
 10
4.80524
 20
23.66463
 30
0.0
 10
4.77053
 20
23.76327
 30
0.0
 10
4.77053
 20
23.88984
 30
0.0
 10
4.77053
 20
23.88984
 30
0.0
 10
4.77053
 20
23.88984
 30
0.0
 10
4.77053
 20
24.68063
 30
0.0
 10
4.77053
 20
24.68063
 30
0.0
 10
4.77053
 20
24.68063
 30
0.0
 10
4.77053
 20
24.68063
 30
0.0
 10
4.60204
 20
24.68063
 30
0.0
 10
4.60204
 20
24.68063
 30
0.0
 10
4.60204
 20
24.68063
 30
0.0
 10
4.60204
 20
24.68063
 30
0.0
 10
4.60204
 20
24.86351
 30
0.0
 10
4.60204
 20
24.86351
 30
0.0
 10
4.60204
 20
24.86351
 30
0.0
 10
4.60204
 20
24.86351
 30
0.0
 10
4.77053
 20
24.86351
 30
0.0
 10
4.77053
 20
24.86351
 30
0.0
 10
4.77053
 20
24.86351
 30
0.0
 10
4.77053
 20
24.86351
 30
0.0
 10
4.77053
 20
25.10693
 30
0.0
 10
4.77053
 20
25.10693
 30
0.0
 10
4.77053
 20
25.10693
 30
0.0
 10
4.77053
 20
25.10693
 30
0.0
 10
5.01437
 20
25.13021
 30
0.0
 10
5.01437
 20
25.13021
 30
0.0
 10
5.01437
 20
25.13021
 30
0.0
 10
5.01437
 20
25.13021
 30
0.0
 10
5.01437
 20
24.86351
 30
0.0
 10
5.01437
 20
24.86351
 30
0.0
 10
5.01437
 20
24.86351
 30
0.0
 10
5.01437
 20
24.86351
 30
0.0
 10
5.36743
 20
24.86351
 30
0.0
 10
5.36743
 20
24.86351
 30
0.0
 10
5.36743
 20
24.86351
 30
0.0
 10
5.36743
 20
24.86351
 30
0.0
 10
5.36743
 20
24.68063
 30
0.0
 10
5.36743
 20
24.68063
 30
0.0
 10
5.36743
 20
24.68063
 30
0.0
 10
5.36743
 20
24.68063
 30
0.0
 10
5.01437
 20
24.68063
 30
0.0
 10
5.01437
 20
24.68063
 30
0.0
 10
5.01437
 20
24.68063
 30
0.0
 10
5.01437
 20
24.68063
 30
0.0
 10
5.01437
 20
23.93387
 30
0.0
 10
5.01437
 20
23.93387
 30
0.0
 10
5.01437
 20
23.93387
 30
0.0
 10
5.01437
 20
23.75776
 30
0.0
 10
5.09099
 20
23.66971
 30
0.0
 10
5.24382
 20
23.66971
 30
0.0
 10
5.24382
 20
23.66971
 30
0.0
 10
5.27641
 20
23.66971
 30
0.0
 10
5.31578
 20
23.67521
 30
0.0
 10
5.36235
 20
23.6858
 30
0.0
 10
5.36235
 20
23.6858
 30
0.0
 10
5.36235
 20
23.6858
 30
0.0
 10
5.36235
 20
23.51773
 30
0.0
 10
5.36235
 20
23.51773
 30
0.0
  0
SPLINE
  5
6E
330
1F
100
AcDbEntity
  8
Layer 1
100
AcDbSpline
210
0.0
220
0.0
230
1.0
 70
    11
 71
     3
 72
    20
 73
    16
 74
     0
 42
0.0000000001
 43
0.0000000001
 12
1.0
 22
0.0
 32
0.0
 13
1.0
 23
0.0
 33
0.0
 40
0.0
 40
0.0
 40
0.0
 40
0.0
 40
0.2
 40
0.2
 40
0.2
 40
0.2
 40
0.4
 40
0.4
 40
0.4
 40
0.4
 40
0.6
 40
0.6
 40
0.6
 40
0.6
 40
1.0
 40
1.0
 40
1.0
 40
1.0
 10
5.57317
 20
23.33443
 30
0.0
 10
5.57317
 20
23.33443
 30
0.0
 10
5.57317
 20
23.51731
 30
0.0
 10
5.57317
 20
23.51731
 30
0.0
 10
5.57317
 20
23.51731
 30
0.0
 10
5.57317
 20
23.51731
 30
0.0
 10
6.62981
 20
23.51731
 30
0.0
 10
6.62981
 20
23.51731
 30
0.0
 10
6.62981
 20
23.51731
 30
0.0
 10
6.62981
 20
23.51731
 30
0.0
 10
6.62981
 20
23.33443
 30
0.0
 10
6.62981
 20
23.33443
 30
0.0
 10
6.62981
 20
23.33443
 30
0.0
 10
6.62981
 20
23.33443
 30
0.0
 10
5.57317
 20
23.33443
 30
0.0
 10
5.57317
 20
23.33443
 30
0.0
  0
SPLINE
  5
6F
330
1F
100
AcDbEntity
  8
Layer 1
100
AcDbSpline
210
0.0
220
0.0
230
1.0
 70
    11
 71
     3
 72
    60
 73
    56
 74
     0
 42
0.0000000001
 43
0.0000000001
 12
1.0
 22
0.0
 32
0.0
 13
1.0
 23
0.0
 33
0.0
 40
0.0
 40
0.0
 40
0.0
 40
0.0
 40
0.0666666666666667
 40
0.0666666666666667
 40
0.0666666666666667
 40
0.0666666666666667
 40
0.1333333333333333
 40
0.1333333333333333
 40
0.1333333333333333
 40
0.1333333333333333
 40
0.2
 40
0.2
 40
0.2
 40
0.2
 40
0.2666666666666667
 40
0.2666666666666667
 40
0.2666666666666667
 40
0.2666666666666667
 40
0.3333333333333333
 40
0.3333333333333333
 40
0.3333333333333333
 40
0.3333333333333333
 40
0.4
 40
0.4
 40
0.4
 40
0.4
 40
0.4666666666666667
 40
0.4666666666666667
 40
0.4666666666666667
 40
0.4666666666666667
 40
0.5333333333333333
 40
0.5333333333333333
 40
0.5333333333333333
 40
0.5333333333333333
 40
0.6
 40
0.6
 40
0.6
 40
0.6
 40
0.6666666666666666
 40
0.6666666666666666
 40
0.6666666666666666
 40
0.6666666666666666
 40
0.7333333333333333
 40
0.7333333333333333
 40
0.7333333333333333
 40
0.7333333333333333
 40
0.8
 40
0.8
 40
0.8
 40
0.8
 40
0.8666666666666667
 40
0.8666666666666667
 40
0.8666666666666667
 40
0.8666666666666667
 40
1.0
 40
1.0
 40
1.0
 40
1.0
 10
6.98033
 20
23.51731
 30
0.0
 10
6.98033
 20
23.51731
 30
0.0
 10
6.98033
 20
25.47565
 30
0.0
 10
6.98033
 20
25.47565
 30
0.0
 10
6.98033
 20
25.47565
 30
0.0
 10
6.98033
 20
25.47565
 30
0.0
 10
7.22417
 20
25.47565
 30
0.0
 10
7.22417
 20
25.47565
 30
0.0
 10
7.22417
 20
25.47565
 30
0.0
 10
7.22417
 20
25.47565
 30
0.0
 10
7.22417
 20
24.60909
 30
0.0
 10
7.22417
 20
24.60909
 30
0.0
 10
7.22417
 20
24.60909
 30
0.0
 10
7.35329
 20
24.79747
 30
0.0
 10
7.51161
 20
24.89145
 30
0.0
 10
7.69873
 20
24.89145
 30
0.0
 10
7.69873
 20
24.89145
 30
0.0
 10
7.81641
 20
24.89145
 30
0.0
 10
7.90997
 20
24.85462
 30
0.0
 10
7.97897
 20
24.78054
 30
0.0
 10
7.97897
 20
24.78054
 30
0.0
 10
8.04798
 20
24.70688
 30
0.0
 10
8.08269
 20
24.60739
 30
0.0
 10
8.08269
 20
24.48293
 30
0.0
 10
8.08269
 20
24.48293
 30
0.0
 10
8.08269
 20
24.48293
 30
0.0
 10
8.08269
 20
23.51731
 30
0.0
 10
8.08269
 20
23.51731
 30
0.0
 10
8.08269
 20
23.51731
 30
0.0
 10
8.08269
 20
23.51731
 30
0.0
 10
7.83885
 20
23.51731
 30
0.0
 10
7.83885
 20
23.51731
 30
0.0
 10
7.83885
 20
23.51731
 30
0.0
 10
7.83885
 20
23.51731
 30
0.0
 10
7.83885
 20
24.40335
 30
0.0
 10
7.83885
 20
24.40335
 30
0.0
 10
7.83885
 20
24.40335
 30
0.0
 10
7.83885
 20
24.50325
 30
0.0
 10
7.82403
 20
24.57437
 30
0.0
 10
7.79482
 20
24.61671
 30
0.0
 10
7.79482
 20
24.61671
 30
0.0
 10
7.76519
 20
24.65946
 30
0.0
 10
7.71651
 20
24.68063
 30
0.0
 10
7.64835
 20
24.68063
 30
0.0
 10
7.64835
 20
24.68063
 30
0.0
 10
7.49849
 20
24.68063
 30
0.0
 10
7.3571
 20
24.58284
 30
0.0
 10
7.22417
 20
24.38726
 30
0.0
 10
7.22417
 20
24.38726
 30
0.0
 10
7.22417
 20
24.38726
 30
0.0
 10
7.22417
 20
23.51731
 30
0.0
 10
7.22417
 20
23.51731
 30
0.0
 10
7.22417
 20
23.51731
 30
0.0
 10
7.22417
 20
23.51731
 30
0.0
 10
6.98033
 20
23.51731
 30
0.0
 10
6.98033
 20
23.51731
 30
0.0
  0
SPLINE
  5
70
330
1F
100
AcDbEntity
  8
Layer 1
100
AcDbSpline
210
0.0
220
0.0
230
1.0
 70
    11
 71
     3
 72
    48
 73
    44
 74
     0
 42
0.0000000001
 43
0.0000000001
 12
1.0
 22
0.0
 32
0.0
 13
1.0
 23
0.0
 33
0.0
 40
0.0
 40
0.0
 40
0.0
 40
0.0
 40
0.0833333333333333
 40
0.0833333333333333
 40
0.0833333333333333
 40
0.0833333333333333
 40
0.1666666666666667
 40
0.1666666666666667
 40
0.1666666666666667
 40
0.1666666666666667
 40
0.25
 40
0.25
 40
0.25
 40
0.25
 40
0.3333333333333333
 40
0.3333333333333333
 40
0.3333333333333333
 40
0.3333333333333333
 40
0.4166666666666667
 40
0.4166666666666667
 40
0.4166666666666667
 40
0.4166666666666667
 40
0.5
 40
0.5
 40
0.5
 40
0.5
 40
0.5833333333333334
 40
0.5833333333333334
 40
0.5833333333333334
 40
0.5833333333333334
 40
0.6666666666666666
 40
0.6666666666666666
 40
0.6666666666666666
 40
0.6666666666666666
 40
0.75
 40
0.75
 40
0.75
 40
0.75
 40
0.8333333333333334
 40
0.8333333333333334
 40
0.8333333333333334
 40
0.8333333333333334
 40
1.0
 40
1.0
 40
1.0
 40
1.0
 10
9.42296
 20
23.51731
 30
0.0
 10
9.42296
 20
23.51731
 30
0.0
 10
9.42296
 20
23.77004
 30
0.0
 10
9.42296
 20
23.77004
 30
0.0
 10
9.42296
 20
23.77004
 30
0.0
 10
9.32348
 20
23.58123
 30
0.0
 10
9.17362
 20
23.48683
 30
0.0
 10
8.97338
 20
23.48683
 30
0.0
 10
8.97338
 20
23.48683
 30
0.0
 10
8.81082
 20
23.48683
 30
0.0
 10
8.68297
 20
23.54567
 30
0.0
 10
8.58984
 20
23.66378
 30
0.0
 10
8.58984
 20
23.66378
 30
0.0
 10
8.49671
 20
23.78189
 30
0.0
 10
8.45014
 20
23.94318
 30
0.0
 10
8.45014
 20
24.14765
 30
0.0
 10
8.45014
 20
24.14765
 30
0.0
 10
8.45014
 20
24.37117
 30
0.0
 10
8.50306
 20
24.55109
 30
0.0
 10
8.60847
 20
24.6874
 30
0.0
 10
8.60847
 20
24.6874
 30
0.0
 10
8.7143
 20
24.82329
 30
0.0
 10
8.85315
 20
24.89145
 30
0.0
 10
9.02545
 20
24.89145
 30
0.0
 10
9.02545
 20
24.89145
 30
0.0
 10
9.18505
 20
24.89145
 30
0.0
 10
9.31797
 20
24.83049
 30
0.0
 10
9.42296
 20
24.70815
 30
0.0
 10
9.42296
 20
24.70815
 30
0.0
 10
9.42296
 20
24.70815
 30
0.0
 10
9.42296
 20
25.47565
 30
0.0
 10
9.42296
 20
25.47565
 30
0.0
 10
9.42296
 20
25.47565
 30
0.0
 10
9.42296
 20
25.47565
 30
0.0
 10
9.6668
 20
25.47565
 30
0.0
 10
9.6668
 20
25.47565
 30
0.0
 10
9.6668
 20
25.47565
 30
0.0
 10
9.6668
 20
25.47565
 30
0.0
 10
9.6668
 20
23.51731
 30
0.0
 10
9.6668
 20
23.51731
 30
0.0
 10
9.6668
 20
23.51731
 30
0.0
 10
9.6668
 20
23.51731
 30
0.0
 10
9.42296
 20
23.51731
 30
0.0
 10
9.42296
 20
23.51731
 30
0.0
  0
SPLINE
  5
71
330
1F
100
AcDbEntity
  8
Layer 1
100
AcDbSpline
210
0.0
220
0.0
230
1.0
 70
    11
 71
     3
 72
    28
 73
    24
 74
     0
 42
0.0000000001
 43
0.0000000001
 12
1.0
 22
0.0
 32
0.0
 13
1.0
 23
0.0
 33
0.0
 40
0.0
 40
0.0
 40
0.0
 40
0.0
 40
0.1428571428571428
 40
0.1428571428571428
 40
0.1428571428571428
 40
0.1428571428571428
 40
0.2857142857142857
 40
0.2857142857142857
 40
0.2857142857142857
 40
0.2857142857142857
 40
0.4285714285714285
 40
0.4285714285714285
 40
0.4285714285714285
 40
0.4285714285714285
 40
0.5714285714285714
 40
0.5714285714285714
 40
0.5714285714285714
 40
0.5714285714285714
 40
0.7142857142857143
 40
0.7142857142857143
 40
0.7142857142857143
 40
0.7142857142857143
 40
1.0
 40
1.0
 40
1.0
 40
1.0
 10
9.42296
 20
24.54135
 30
0.0
 10
9.29638
 20
24.65269
 30
0.0
 10
9.17658
 20
24.70857
 30
0.0
 10
9.06313
 20
24.70857
 30
0.0
 10
9.06313
 20
24.70857
 30
0.0
 10
8.95137
 20
24.70857
 30
0.0
 10
8.86501
 20
24.662
 30
0.0
 10
8.80362
 20
24.56845
 30
0.0
 10
8.80362
 20
24.56845
 30
0.0
 10
8.74224
 20
24.47531
 30
0.0
 10
8.71176
 20
24.34323
 30
0.0
 10
8.71176
 20
24.17221
 30
0.0
 10
8.71176
 20
24.17221
 30
0.0
 10
8.71176
 20
23.85767
 30
0.0
 10
8.8159
 20
23.70019
 30
0.0
 10
9.0246
 20
23.70019
 30
0.0
 10
9.0246
 20
23.70019
 30
0.0
 10
9.16007
 20
23.70019
 30
0.0
 10
9.293
 20
23.77427
 30
0.0
 10
9.42296
 20
23.92202
 30
0.0
 10
9.42296
 20
23.92202
 30
0.0
 10
9.42296
 20
23.92202
 30
0.0
 10
9.42296
 20
24.54135
 30
0.0
 10
9.42296
 20
24.54135
 30
0.0
  0
SPLINE
  5
72
330
1F
100
AcDbEntity
  8
Layer 1
100
AcDbSpline
210
0.0
220
0.0
230
1.0
 70
    11
 71
     3
 72
    20
 73
    16
 74
     0
 42
0.0000000001
 43
0.0000000001
 12
1.0
 22
0.0
 32
0.0
 13
1.0
 23
0.0
 33
0.0
 40
0.0
 40
0.0
 40
0.0
 40
0.0
 40
0.2
 40
0.2
 40
0.2
 40
0.2
 40
0.4
 40
0.4
 40
0.4
 40
0.4
 40
0.6
 40
0.6
 40
0.6
 40
0.6
 40
1.0
 40
1.0
 40
1.0
 40
1.0
 10
10.01817
 20
23.33443
 30
0.0
 10
10.01817
 20
23.33443
 30
0.0
 10
10.01817
 20
23.51731
 30
0.0
 10
10.01817
 20
23.51731
 30
0.0
 10
10.01817
 20
23.51731
 30
0.0
 10
10.01817
 20
23.51731
 30
0.0
 10
11.07481
 20
23.51731
 30
0.0
 10
11.07481
 20
23.51731
 30
0.0
 10
11.07481
 20
23.51731
 30
0.0
 10
11.07481
 20
23.51731
 30
0.0
 10
11.07481
 20
23.33443
 30
0.0
 10
11.07481
 20
23.33443
 30
0.0
 10
11.07481
 20
23.33443
 30
0.0
 10
11.07481
 20
23.33443
 30
0.0
 10
10.01817
 20
23.33443
 30
0.0
 10
10.01817
 20
23.33443
 30
0.0
  0
SPLINE
  5
73
330
1F
100
AcDbEntity
  8
Layer 1
100
AcDbSpline
210
0.0
220
0.0
230
1.0
 70
    11
 71
     3
 72
    84
 73
    80
 74
     0
 42
0.0000000001
 43
0.0000000001
 12
1.0
 22
0.0
 32
0.0
 13
1.0
 23
0.0
 33
0.0
 40
0.0
 40
0.0
 40
0.0
 40
0.0
 40
0.0476190476190476
 40
0.0476190476190476
 40
0.0476190476190476
 40
0.0476190476190476
 40
0.0952380952380952
 40
0.0952380952380952
 40
0.0952380952380952
 40
0.0952380952380952
 40
0.1428571428571428
 40
0.1428571428571428
 40
0.1428571428571428
 40
0.1428571428571428
 40
0.1904761904761905
 40
0.1904761904761905
 40
0.1904761904761905
 40
0.1904761904761905
 40
0.2380952380952381
 40
0.2380952380952381
 40
0.2380952380952381
 40
0.2380952380952381
 40
0.2857142857142857
 40
0.2857142857142857
 40
0.2857142857142857
 40
0.2857142857142857
 40
0.3333333333333333
 40
0.3333333333333333
 40
0.3333333333333333
 40
0.3333333333333333
 40
0.3809523809523809
 40
0.3809523809523809
 40
0.3809523809523809
 40
0.3809523809523809
 40
0.4285714285714285
 40
0.4285714285714285
 40
0.4285714285714285
 40
0.4285714285714285
 40
0.4761904761904762
 40
0.4761904761904762
 40
0.4761904761904762
 40
0.4761904761904762
 40
0.5238095238095238
 40
0.5238095238095238
 40
0.5238095238095238
 40
0.5238095238095238
 40
0.5714285714285714
 40
0.5714285714285714
 40
0.5714285714285714
 40
0.5714285714285714
 40
0.6190476190476191
 40
0.6190476190476191
 40
0.6190476190476191
 40
0.6190476190476191
 40
0.6666666666666666
 40
0.6666666666666666
 40
0.6666666666666666
 40
0.6666666666666666
 40
0.7142857142857143
 40
0.7142857142857143
 40
0.7142857142857143
 40
0.7142857142857143
 40
0.7619047619047619
 40
0.7619047619047619
 40
0.7619047619047619
 40
0.7619047619047619
 40
0.8095238095238095
 40
0.8095238095238095
 40
0.8095238095238095
 40
0.8095238095238095
 40
0.8571428571428571
 40
0.8571428571428571
 40
0.8571428571428571
 40
0.8571428571428571
 40
0.9047619047619048
 40
0.9047619047619048
 40
0.9047619047619048
 40
0.9047619047619048
 40
1.0
 40
1.0
 40
1.0
 40
1.0
 10
11.44057
 20
23.53001
 30
0.0
 10
11.44057
 20
23.53001
 30
0.0
 10
11.44057
 20
23.75861
 30
0.0
 10
11.44057
 20
23.75861
 30
0.0
 10
11.44057
 20
23.75861
 30
0.0
 10
11.61498
 20
23.68918
 30
0.0
 10
11.75172
 20
23.65447
 30
0.0
 10
11.85205
 20
23.65447
 30
0.0
 10
11.85205
 20
23.65447
 30
0.0
 10
11.97016
 20
23.65447
 30
0.0
 10
12.06541
 20
23.68834
 30
0.0
 10
12.13865
 20
23.75649
 30
0.0
 10
12.13865
 20
23.75649
 30
0.0
 10
12.21188
 20
23.82465
 30
0.0
 10
12.24829
 20
23.91355
 30
0.0
 10
12.24829
 20
24.02277
 30
0.0
 10
12.24829
 20
24.02277
 30
0.0
 10
12.24829
 20
24.28185
 30
0.0
 10
12.06795
 20
24.41139
 30
0.0
 10
11.70727
 20
24.41139
 30
0.0
 10
11.70727
 20
24.41139
 30
0.0
 10
11.70727
 20
24.41139
 30
0.0
 10
11.61075
 20
24.41139
 30
0.0
 10
11.61075
 20
24.41139
 30
0.0
 10
11.61075
 20
24.41139
 30
0.0
 10
11.61075
 20
24.41139
 30
0.0
 10
11.61075
 20
24.57522
 30
0.0
 10
11.61075
 20
24.57522
 30
0.0
 10
11.61075
 20
24.57522
 30
0.0
 10
11.61075
 20
24.57522
 30
0.0
 10
11.69626
 20
24.57649
 30
0.0
 10
11.69626
 20
24.57649
 30
0.0
 10
11.69626
 20
24.57649
 30
0.0
 10
12.03535
 20
24.57649
 30
0.0
 10
12.20511
 20
24.69587
 30
0.0
 10
12.20511
 20
24.93505
 30
0.0
 10
12.20511
 20
24.93505
 30
0.0
 10
12.20511
 20
25.12259
 30
0.0
 10
12.0925
 20
25.21657
 30
0.0
 10
11.86771
 20
25.21657
 30
0.0
 10
11.86771
 20
25.21657
 30
0.0
 10
11.74706
 20
25.21657
 30
0.0
 10
11.61329
 20
25.18186
 30
0.0
 10
11.46597
 20
25.11243
 30
0.0
 10
11.46597
 20
25.11243
 30
0.0
 10
11.46597
 20
25.11243
 30
0.0
 10
11.46597
 20
25.32579
 30
0.0
 10
11.46597
 20
25.32579
 30
0.0
 10
11.46597
 20
25.32579
 30
0.0
 10
11.61033
 20
25.3749
 30
0.0
 10
11.7496
 20
25.39945
 30
0.0
 10
11.88338
 20
25.39945
 30
0.0
 10
11.88338
 20
25.39945
 30
0.0
 10
12.06541
 20
25.39945
 30
0.0
 10
12.20553
 20
25.36304
 30
0.0
 10
12.3029
 20
25.29023
 30
0.0
 10
12.3029
 20
25.29023
 30
0.0
 10
12.40027
 20
25.21784
 30
0.0
 10
12.44895
 20
25.11243
 30
0.0
 10
12.44895
 20
24.97442
 30
0.0
 10
12.44895
 20
24.97442
 30
0.0
 10
12.44895
 20
24.75895
 30
0.0
 10
12.32153
 20
24.60528
 30
0.0
 10
12.06626
 20
24.51384
 30
0.0
 10
12.06626
 20
24.51384
 30
0.0
 10
12.36217
 20
24.44483
 30
0.0
 10
12.50991
 20
24.2827
 30
0.0
 10
12.50991
 20
24.02658
 30
0.0
 10
12.50991
 20
24.02658
 30
0.0
 10
12.50991
 20
23.85386
 30
0.0
 10
12.45276
 20
23.71797
 30
0.0
 10
12.33888
 20
23.61933
 30
0.0
 10
12.33888
 20
23.61933
 30
0.0
 10
12.22501
 20
23.5207
 30
0.0
 10
12.06837
 20
23.47159
 30
0.0
 10
11.86941
 20
23.47159
 30
0.0
 10
11.86941
 20
23.47159
 30
0.0
 10
11.75595
 20
23.47159
 30
0.0
 10
11.61329
 20
23.49106
 30
0.0
 10
11.44057
 20
23.53001
 30
0.0
  0
SPLINE
  5
74
330
1F
100
AcDbEntity
  8
Layer 1
100
AcDbSpline
210
0.0
220
0.0
230
1.0
 70
    11
 71
     3
 72
    36
 73
    32
 74
     0
 42
0.0000000001
 43
0.0000000001
 12
1.0
 22
0.0
 32
0.0
 13
1.0
 23
0.0
 33
0.0
 40
0.0
 40
0.0
 40
0.0
 40
0.0
 40
0.1111111111111111
 40
0.1111111111111111
 40
0.1111111111111111
 40
0.1111111111111111
 40
0.2222222222222222
 40
0.2222222222222222
 40
0.2222222222222222
 40
0.2222222222222222
 40
0.3333333333333333
 40
0.3333333333333333
 40
0.3333333333333333
 40
0.3333333333333333
 40
0.4444444444444444
 40
0.4444444444444444
 40
0.4444444444444444
 40
0.4444444444444444
 40
0.5555555555555556
 40
0.5555555555555556
 40
0.5555555555555556
 40
0.5555555555555556
 40
0.6666666666666666
 40
0.6666666666666666
 40
0.6666666666666666
 40
0.6666666666666666
 40
0.7777777777777778
 40
0.7777777777777778
 40
0.7777777777777778
 40
0.7777777777777778
 40
1.0
 40
1.0
 40
1.0
 40
1.0
 10
13.59026
 20
23.47159
 30
0.0
 10
13.39764
 20
23.47159
 30
0.0
 10
13.24228
 20
23.56007
 30
0.0
 10
13.12459
 20
23.7366
 30
0.0
 10
13.12459
 20
23.7366
 30
0.0
 10
13.00648
 20
23.91313
 30
0.0
 10
12.94764
 20
24.14596
 30
0.0
 10
12.94764
 20
24.43552
 30
0.0
 10
12.94764
 20
24.43552
 30
0.0
 10
12.94764
 20
24.72508
 30
0.0
 10
13.00648
 20
24.95791
 30
0.0
 10
13.12459
 20
25.13444
 30
0.0
 10
13.12459
 20
25.13444
 30
0.0
 10
13.24228
 20
25.31097
 30
0.0
 10
13.39764
 20
25.39945
 30
0.0
 10
13.59026
 20
25.39945
 30
0.0
 10
13.59026
 20
25.39945
 30
0.0
 10
13.78372
 20
25.39945
 30
0.0
 10
13.93909
 20
25.3114
 30
0.0
 10
14.05677
 20
25.13529
 30
0.0
 10
14.05677
 20
25.13529
 30
0.0
 10
14.17404
 20
24.95918
 30
0.0
 10
14.23288
 20
24.72593
 30
0.0
 10
14.23288
 20
24.43552
 30
0.0
 10
14.23288
 20
24.43552
 30
0.0
 10
14.23288
 20
24.14596
 30
0.0
 10
14.17404
 20
23.91313
 30
0.0
 10
14.05677
 20
23.7366
 30
0.0
 10
14.05677
 20
23.7366
 30
0.0
 10
13.93909
 20
23.56007
 30
0.0
 10
13.78372
 20
23.47159
 30
0.0
 10
13.59026
 20
23.47159
 30
0.0
  0
SPLINE
  5
75
330
1F
100
AcDbEntity
  8
Layer 1
100
AcDbSpline
210
0.0
220
0.0
230
1.0
 70
    11
 71
     3
 72
    20
 73
    16
 74
     0
 42
0.0000000001
 43
0.0000000001
 12
1.0
 22
0.0
 32
0.0
 13
1.0
 23
0.0
 33
0.0
 40
0.0
 40
0.0
 40
0.0
 40
0.0
 40
0.2
 40
0.2
 40
0.2
 40
0.2
 40
0.4
 40
0.4
 40
0.4
 40
0.4
 40
0.6
 40
0.6
 40
0.6
 40
0.6
 40
1.0
 40
1.0
 40
1.0
 40
1.0
 10
13.58984
 20
23.65447
 30
0.0
 10
13.84426
 20
23.65447
 30
0.0
 10
13.97126
 20
23.91482
 30
0.0
 10
13.97126
 20
24.43552
 30
0.0
 10
13.97126
 20
24.43552
 30
0.0
 10
13.97126
 20
24.95622
 30
0.0
 10
13.84426
 20
25.21657
 30
0.0
 10
13.58984
 20
25.21657
 30
0.0
 10
13.58984
 20
25.21657
 30
0.0
 10
13.33626
 20
25.21657
 30
0.0
 10
13.20926
 20
24.95622
 30
0.0
 10
13.20926
 20
24.43552
 30
0.0
 10
13.20926
 20
24.43552
 30
0.0
 10
13.20926
 20
23.91482
 30
0.0
 10
13.33626
 20
23.65447
 30
0.0
 10
13.58984
 20
23.65447
 30
0.0
  0
SPLINE
  5
76
330
1F
100
AcDbEntity
  8
Layer 1
100
AcDbSpline
210
0.0
220
0.0
230
1.0
 70
    11
 71
     3
 72
    36
 73
    32
 74
     0
 42
0.0000000001
 43
0.0000000001
 12
1.0
 22
0.0
 32
0.0
 13
1.0
 23
0.0
 33
0.0
 40
0.0
 40
0.0
 40
0.0
 40
0.0
 40
0.1111111111111111
 40
0.1111111111111111
 40
0.1111111111111111
 40
0.1111111111111111
 40
0.2222222222222222
 40
0.2222222222222222
 40
0.2222222222222222
 40
0.2222222222222222
 40
0.3333333333333333
 40
0.3333333333333333
 40
0.3333333333333333
 40
0.3333333333333333
 40
0.4444444444444444
 40
0.4444444444444444
 40
0.4444444444444444
 40
0.4444444444444444
 40
0.5555555555555556
 40
0.5555555555555556
 40
0.5555555555555556
 40
0.5555555555555556
 40
0.6666666666666666
 40
0.6666666666666666
 40
0.6666666666666666
 40
0.6666666666666666
 40
0.7777777777777778
 40
0.7777777777777778
 40
0.7777777777777778
 40
0.7777777777777778
 40
1.0
 40
1.0
 40
1.0
 40
1.0
 10
15.19639
 20
23.47159
 30
0.0
 10
15.00377
 20
23.47159
 30
0.0
 10
14.84841
 20
23.56007
 30
0.0
 10
14.73072
 20
23.7366
 30
0.0
 10
14.73072
 20
23.7366
 30
0.0
 10
14.61261
 20
23.91313
 30
0.0
 10
14.55377
 20
24.14596
 30
0.0
 10
14.55377
 20
24.43552
 30
0.0
 10
14.55377
 20
24.43552
 30
0.0
 10
14.55377
 20
24.72508
 30
0.0
 10
14.61261
 20
24.95791
 30
0.0
 10
14.73072
 20
25.13444
 30
0.0
 10
14.73072
 20
25.13444
 30
0.0
 10
14.84841
 20
25.31097
 30
0.0
 10
15.00377
 20
25.39945
 30
0.0
 10
15.19639
 20
25.39945
 30
0.0
 10
15.19639
 20
25.39945
 30
0.0
 10
15.38985
 20
25.39945
 30
0.0
 10
15.54522
 20
25.3114
 30
0.0
 10
15.6629
 20
25.13529
 30
0.0
 10
15.6629
 20
25.13529
 30
0.0
 10
15.78017
 20
24.95918
 30
0.0
 10
15.83901
 20
24.72593
 30
0.0
 10
15.83901
 20
24.43552
 30
0.0
 10
15.83901
 20
24.43552
 30
0.0
 10
15.83901
 20
24.14596
 30
0.0
 10
15.78017
 20
23.91313
 30
0.0
 10
15.6629
 20
23.7366
 30
0.0
 10
15.6629
 20
23.7366
 30
0.0
 10
15.54522
 20
23.56007
 30
0.0
 10
15.38985
 20
23.47159
 30
0.0
 10
15.19639
 20
23.47159
 30
0.0
  0
SPLINE
  5
77
330
1F
100
AcDbEntity
  8
Layer 1
100
AcDbSpline
210
0.0
220
0.0
230
1.0
 70
    11
 71
     3
 72
    20
 73
    16
 74
     0
 42
0.0000000001
 43
0.0000000001
 12
1.0
 22
0.0
 32
0.0
 13
1.0
 23
0.0
 33
0.0
 40
0.0
 40
0.0
 40
0.0
 40
0.0
 40
0.2
 40
0.2
 40
0.2
 40
0.2
 40
0.4
 40
0.4
 40
0.4
 40
0.4
 40
0.6
 40
0.6
 40
0.6
 40
0.6
 40
1.0
 40
1.0
 40
1.0
 40
1.0
 10
15.19597
 20
23.65447
 30
0.0
 10
15.45039
 20
23.65447
 30
0.0
 10
15.57739
 20
23.91482
 30
0.0
 10
15.57739
 20
24.43552
 30
0.0
 10
15.57739
 20
24.43552
 30
0.0
 10
15.57739
 20
24.95622
 30
0.0
 10
15.45039
 20
25.21657
 30
0.0
 10
15.19597
 20
25.21657
 30
0.0
 10
15.19597
 20
25.21657
 30
0.0
 10
14.94239
 20
25.21657
 30
0.0
 10
14.81539
 20
24.95622
 30
0.0
 10
14.81539
 20
24.43552
 30
0.0
 10
14.81539
 20
24.43552
 30
0.0
 10
14.81539
 20
23.91482
 30
0.0
 10
14.94239
 20
23.65447
 30
0.0
 10
15.19597
 20
23.65447
 30
0.0
  0
SPLINE
  5
78
330
1F
100
AcDbEntity
  8
Layer 1
100
AcDbSpline
210
0.0
220
0.0
230
1.0
 70
    11
 71
     3
 72
    36
 73
    32
 74
     0
 42
0.0000000001
 43
0.0000000001
 12
1.0
 22
0.0
 32
0.0
 13
1.0
 23
0.0
 33
0.0
 40
0.0
 40
0.0
 40
0.0
 40
0.0
 40
0.1111111111111111
 40
0.1111111111111111
 40
0.1111111111111111
 40
0.1111111111111111
 40
0.2222222222222222
 40
0.2222222222222222
 40
0.2222222222222222
 40
0.2222222222222222
 40
0.3333333333333333
 40
0.3333333333333333
 40
0.3333333333333333
 40
0.3333333333333333
 40
0.4444444444444444
 40
0.4444444444444444
 40
0.4444444444444444
 40
0.4444444444444444
 40
0.5555555555555556
 40
0.5555555555555556
 40
0.5555555555555556
 40
0.5555555555555556
 40
0.6666666666666666
 40
0.6666666666666666
 40
0.6666666666666666
 40
0.6666666666666666
 40
0.7777777777777778
 40
0.7777777777777778
 40
0.7777777777777778
 40
0.7777777777777778
 40
1.0
 40
1.0
 40
1.0
 40
1.0
 10
16.80252
 20
23.47159
 30
0.0
 10
16.6099
 20
23.47159
 30
0.0
 10
16.45454
 20
23.56007
 30
0.0
 10
16.33685
 20
23.7366
 30
0.0
 10
16.33685
 20
23.7366
 30
0.0
 10
16.21874
 20
23.91313
 30
0.0
 10
16.1599
 20
24.14596
 30
0.0
 10
16.1599
 20
24.43552
 30
0.0
 10
16.1599
 20
24.43552
 30
0.0
 10
16.1599
 20
24.72508
 30
0.0
 10
16.21874
 20
24.95791
 30
0.0
 10
16.33685
 20
25.13444
 30
0.0
 10
16.33685
 20
25.13444
 30
0.0
 10
16.45454
 20
25.31097
 30
0.0
 10
16.6099
 20
25.39945
 30
0.0
 10
16.80252
 20
25.39945
 30
0.0
 10
16.80252
 20
25.39945
 30
0.0
 10
16.99598
 20
25.39945
 30
0.0
 10
17.15135
 20
25.3114
 30
0.0
 10
17.26903
 20
25.13529
 30
0.0
 10
17.26903
 20
25.13529
 30
0.0
 10
17.3863
 20
24.95918
 30
0.0
 10
17.44514
 20
24.72593
 30
0.0
 10
17.44514
 20
24.43552
 30
0.0
 10
17.44514
 20
24.43552
 30
0.0
 10
17.44514
 20
24.14596
 30
0.0
 10
17.3863
 20
23.91313
 30
0.0
 10
17.26903
 20
23.7366
 30
0.0
 10
17.26903
 20
23.7366
 30
0.0
 10
17.15135
 20
23.56007
 30
0.0
 10
16.99598
 20
23.47159
 30
0.0
 10
16.80252
 20
23.47159
 30
0.0
  0
SPLINE
  5
79
330
1F
100
AcDbEntity
  8
Layer 1
100
AcDbSpline
210
0.0
220
0.0
230
1.0
 70
    11
 71
     3
 72
    20
 73
    16
 74
     0
 42
0.0000000001
 43
0.0000000001
 12
1.0
 22
0.0
 32
0.0
 13
1.0
 23
0.0
 33
0.0
 40
0.0
 40
0.0
 40
0.0
 40
0.0
 40
0.2
 40
0.2
 40
0.2
 40
0.2
 40
0.4
 40
0.4
 40
0.4
 40
0.4
 40
0.6
 40
0.6
 40
0.6
 40
0.6
 40
1.0
 40
1.0
 40
1.0
 40
1.0
 10
16.8021
 20
23.65447
 30
0.0
 10
17.05652
 20
23.65447
 30
0.0
 10
17.18352
 20
23.91482
 30
0.0
 10
17.18352
 20
24.43552
 30
0.0
 10
17.18352
 20
24.43552
 30
0.0
 10
17.18352
 20
24.95622
 30
0.0
 10
17.05652
 20
25.21657
 30
0.0
 10
16.8021
 20
25.21657
 30
0.0
 10
16.8021
 20
25.21657
 30
0.0
 10
16.54852
 20
25.21657
 30
0.0
 10
16.42152
 20
24.95622
 30
0.0
 10
16.42152
 20
24.43552
 30
0.0
 10
16.42152
 20
24.43552
 30
0.0
 10
16.42152
 20
23.91482
 30
0.0
 10
16.54852
 20
23.65447
 30
0.0
 10
16.8021
 20
23.65447
 30
0.0
  0
ENDSEC
  0
SECTION
  2
OBJECTS
  0
DICTIONARY
  5
C
330
0
100
AcDbDictionary
281
     1
  3
ACAD_GROUP
350
D
  3
ACAD_LAYOUT
350
1A
  3
ACAD_MATERIAL
350
3B
  3
ACAD_MLEADERSTYLE
350
9B
  3
ACAD_MLINESTYLE
350
17
  3
ACAD_PLOTSETTINGS
350
19
  3
ACAD_PLOTSTYLENAME
350
E
  3
ACAD_TABLESTYLE
350
9A
  3
ACAD_VISUALSTYLE
350
2A
  0
DICTIONARY
  5
D
102
{ACAD_REACTORS
330
C
102
}
330
C
100
AcDbDictionary
281
     1
  0
DICTIONARY
  5
1A
102
{ACAD_REACTORS
330
C
102
}
330
C
100
AcDbDictionary
281
     1
  3
Layout1
350
1E
  3
Layout2
350
26
  3
Model
350
22
  0
DICTIONARY
  5
3B
102
{ACAD_REACTORS
330
C
102
}
330
C
100
AcDbDictionary
281
     1
  3
ByBlock
350
3D
  3
ByLayer
350
3C
  3
Global
350
3E
  0
DICTIONARY
  5
9B
102
{ACAD_REACTORS
330
C
102
}
330
C
100
AcDbDictionary
281
     1
  0
DICTIONARY
  5
17
102
{ACAD_REACTORS
330
C
102
}
330
C
100
AcDbDictionary
281
     1
  3
Standard
350
18
  0
DICTIONARY
  5
19
102
{ACAD_REACTORS
330
C
102
}
330
C
100
AcDbDictionary
281
     1
  0
ACDBDICTIONARYWDFLT
  5
E
102
{ACAD_REACTORS
330
C
102
}
330
C
100
AcDbDictionary
281
     1
  3
Normal
350
F
100
AcDbDictionaryWithDefault
340
F
  0
DICTIONARY
  5
9A
102
{ACAD_REACTORS
330
C
102
}
330
C
100
AcDbDictionary
281
     1
  0
DICTIONARY
  5
2A
102
{ACAD_REACTORS
330
C
102
}
330
C
100
AcDbDictionary
281
     1
  3
2dWireframe
350
2F
  3
3D Hidden
350
31
  3
3dWireframe
350
30
  3
Basic
350
32
  3
Brighten
350
36
  3
ColorChange
350
3A
  3
Conceptual
350
34
  3
Dim
350
35
  3
Facepattern
350
39
  3
Flat
350
2B
  3
FlatWithEdges
350
2C
  3
Gouraud
350
2D
  3
GouraudWithEdges
350
2E
  3
Linepattern
350
38
  3
Realistic
350
33
  3
Thicken
350
37
  0
LAYOUT
  5
1E
102
{ACAD_REACTORS
330
1A
102
}
330
1A
100
AcDbPlotSettings
  1

  2
none_device
  4

  6

 40
0.0
 41
0.0
 42
0.0
 43
0.0
 44
0.0
 45
0.0
 46
0.0
 47
0.0
 48
0.0
 49
0.0
140
0.0
141
0.0
142
1.0
143
1.0
 70
   688
 72
     0
 73
     0
 74
     5
  7

 75
    16
 76
     0
 77
     2
 78
   300
147
1.0
148
0.0
149
0.0
100
AcDbLayout
  1
Layout1
 70
     1
 71
     1
 10
0.0
 20
0.0
 11
12.0
 21
9.0
 12
0.0
 22
0.0
 32
0.0
 14
1.000000000000000E+20
 24
1.000000000000000E+20
 34
1.000000000000000E+20
 15
-1.000000000000000E+20
 25
-1.000000000000000E+20
 35
-1.000000000000000E+20
146
0.0
 13
0.0
 23
0.0
 33
0.0
 16
1.0
 26
0.0
 36
0.0
 17
0.0
 27
1.0
 37
0.0
 76
     0
330
1B
  0
LAYOUT
  5
26
102
{ACAD_REACTORS
330
1A
102
}
330
1A
100
AcDbPlotSettings
  1

  2
none_device
  4

  6

 40
0.0
 41
0.0
 42
0.0
 43
0.0
 44
0.0
 45
0.0
 46
0.0
 47
0.0
 48
0.0
 49
0.0
140
0.0
141
0.0
142
1.0
143
1.0
 70
   688
 72
     0
 73
     0
 74
     5
  7

 75
    16
 76
     0
 77
     2
 78
   300
147
1.0
148
0.0
149
0.0
100
AcDbLayout
  1
Layout2
 70
     1
 71
     2
 10
0.0
 20
0.0
 11
0.0
 21
0.0
 12
0.0
 22
0.0
 32
0.0
 14
0.0
 24
0.0
 34
0.0
 15
0.0
 25
0.0
 35
0.0
146
0.0
 13
0.0
 23
0.0
 33
0.0
 16
1.0
 26
0.0
 36
0.0
 17
0.0
 27
1.0
 37
0.0
 76
     0
330
23
  0
LAYOUT
  5
22
102
{ACAD_REACTORS
330
1A
102
}
330
1A
100
AcDbPlotSettings
  1

  2
none_device
  4

  6

 40
0.0
 41
0.0
 42
0.0
 43
0.0
 44
0.0
 45
0.0
 46
0.0
 47
0.0
 48
0.0
 49
0.0
140
0.0
141
0.0
142
1.0
143
1.0
 70
  1712
 72
     0
 73
     0
 74
     0
  7

 75
     0
 76
     0
 77
     2
 78
   300
147
1.0
148
0.0
149
0.0
100
AcDbLayout
  1
Model
 70
     1
 71
     0
 10
0.0
 20
0.0
 11
12.0
 21
9.0
 12
0.0
 22
0.0
 32
0.0
 14
-17.50229
 24
23.33443
 34
0.0
 15
17.44514
 25
29.37878
 35
0.0
146
0.0
 13
0.0
 23
0.0
 33
0.0
 16
1.0
 26
0.0
 36
0.0
 17
0.0
 27
1.0
 37
0.0
 76
     0
330
1F
331
29
  0
MATERIAL
  5
3D
102
{ACAD_REACTORS
330
3B
102
}
330
3B
100
AcDbMaterial
  1
ByBlock
 72
     1
 94
      127
  0
MATERIAL
  5
3C
102
{ACAD_REACTORS
330
3B
102
}
330
3B
100
AcDbMaterial
  1
ByLayer
 72
     1
 94
      127
  0
MATERIAL
  5
3E
102
{ACAD_REACTORS
330
3B
102
}
330
3B
100
AcDbMaterial
  1
Global
 72
     1
 94
      127
  0
MLINESTYLE
  5
18
102
{ACAD_REACTORS
330
17
102
}
330
17
100
AcDbMlineStyle
  2
Standard
 70
     0
  3

 62
   256
 51
90.0
 52
90.0
 71
     2
 49
0.5
 62
   256
  6
BYLAYER
 49
-0.5
 62
   256
  6
BYLAYER
  0
ACDBPLACEHOLDER
  5
F
102
{ACAD_REACTORS
330
E
102
}
330
E
  0
VISUALSTYLE
  5
2F
102
{ACAD_REACTORS
330
2A
102
}
102
{ACAD_XDICTIONARY
360
82
102
}
330
2A
100
AcDbVisualStyle
  2
2dWireframe
 70
     4
 71
     0
 72
     2
 73
     0
 90
        0
 40
-0.6
 41
-30.0
 62
     5
 63
     7
421
 16777215
 74
     1
 91
        4
 64
     7
 65
   257
 75
     1
175
     1
 42
1.0
 92
        0
 66
   257
 43
1.0
 76
     1
 77
     6
 78
     2
 67
     7
 79
     5
170
     0
171
     0
290
     0
174
     0
 93
        1
 44
0.0
173
     0
291
     0
 45
0.0
  0
VISUALSTYLE
  5
31
102
{ACAD_REACTORS
330
2A
102
}
102
{ACAD_XDICTIONARY
360
86
102
}
330
2A
100
AcDbVisualStyle
  2
3D Hidden
 70
     6
 71
     1
 72
     2
 73
     2
 90
        0
 40
-0.6
 41
-30.0
 62
     5
 63
     7
421
 16777215
 74
     2
 91
        2
 64
     7
 65
   257
 75
     2
175
     1
 42
40.0
 92
        0
 66
   257
 43
1.0
 76
     1
 77
     6
 78
     2
 67
     7
 79
     3
170
     0
171
     0
290
     0
174
     0
 93
        1
 44
0.0
173
     0
291
     0
 45
0.0
  0
VISUALSTYLE
  5
30
102
{ACAD_REACTORS
330
2A
102
}
102
{ACAD_XDICTIONARY
360
84
102
}
330
2A
100
AcDbVisualStyle
  2
3dWireframe
 70
     5
 71
     0
 72
     2
 73
     0
 90
        0
 40
-0.6
 41
-30.0
 62
     5
 63
     7
421
 16777215
 74
     1
 91
        4
 64
     7
 65
   257
 75
     1
175
     1
 42
1.0
 92
        0
 66
   257
 43
1.0
 76
     1
 77
     6
 78
     2
 67
     7
 79
     5
170
     0
171
     0
290
     0
174
     0
 93
        1
 44
0.0
173
     0
291
     0
 45
0.0
  0
VISUALSTYLE
  5
32
102
{ACAD_REACTORS
330
2A
102
}
102
{ACAD_XDICTIONARY
360
88
102
}
330
2A
100
AcDbVisualStyle
  2
Basic
 70
     7
 71
     1
 72
     0
 73
     1
 90
        0
 40
-0.6
 41
-30.0
 62
     5
 63
     7
421
 16777215
 74
     0
 91
        4
 64
     7
 65
   257
 75
     1
175
     1
 42
1.0
 92
        8
 66
     7
 43
1.0
 76
     1
 77
     6
 78
     2
 67
     7
 79
     5
170
     0
171
     0
290
     0
174
     0
 93
        1
 44
0.0
173
     0
291
     1
 45
0.0
  0
VISUALSTYLE
  5
36
102
{ACAD_REACTORS
330
2A
102
}
102
{ACAD_XDICTIONARY
360
90
102
}
330
2A
100
AcDbVisualStyle
  2
Brighten
 70
    12
 71
     2
 72
     2
 73
     0
 90
        0
 40
-0.6
 41
-30.0
 62
     5
 63
     7
421
 16777215
 74
     1
 91
        4
 64
     7
 65
   257
 75
     1
175
     1
 42
1.0
 92
        8
 66
     7
 43
1.0
 76
     1
 77
     6
 78
     2
 67
     7
 79
     5
170
     0
171
     0
290
     0
174
     0
 93
        1
 44
50.0
173
     0
291
     1
 45
0.0
  0
VISUALSTYLE
  5
3A
102
{ACAD_REACTORS
330
2A
102
}
102
{ACAD_XDICTIONARY
360
98
102
}
330
2A
100
AcDbVisualStyle
  2
ColorChange
 70
    16
 71
     2
 72
     2
 73
     3
 90
        0
 40
-0.6
 41
-30.0
 62
     5
 63
     8
421
  8421504
 74
     1
 91
        4
 64
     7
 65
   257
 75
     1
175
     1
 42
1.0
 92
        8
 66
     8
424
  8421504
 43
1.0
 76
     1
 77
     6
 78
     2
 67
     7
 79
     5
170
     0
171
     0
290
     0
174
     0
 93
        1
 44
0.0
173
     0
291
     1
 45
0.0
  0
VISUALSTYLE
  5
34
102
{ACAD_REACTORS
330
2A
102
}
102
{ACAD_XDICTIONARY
360
8C
102
}
330
2A
100
AcDbVisualStyle
  2
Conceptual
 70
     9
 71
     3
 72
     2
 73
     0
 90
        0
 40
-0.6
 41
-30.0
 62
     5
 63
     7
421
 16777215
 74
     2
 91
        2
 64
     7
 65
   257
 75
     1
175
     1
 42
40.0
 92
        8
 66
     7
 43
1.0
 76
     1
 77
     6
 78
     2
 67
     7
 79
     3
170
     0
171
     0
290
     0
174
     0
 93
        1
 44
0.0
173
     0
291
     0
 45
0.0
  0
VISUALSTYLE
  5
35
102
{ACAD_REACTORS
330
2A
102
}
102
{ACAD_XDICTIONARY
360
8E
102
}
330
2A
100
AcDbVisualStyle
  2
Dim
 70
    11
 71
     2
 72
     2
 73
     0
 90
        0
 40
-0.6
 41
-30.0
 62
     5
 63
     7
421
 16777215
 74
     1
 91
        4
 64
     7
 65
   257
 75
     1
175
     1
 42
1.0
 92
        8
 66
     7
 43
1.0
 76
     1
 77
     6
 78
     2
 67
     7
 79
     5
170
     0
171
     0
290
     0
174
     0
 93
        1
 44
-50.0
173
     0
291
     1
 45
0.0
  0
VISUALSTYLE
  5
39
102
{ACAD_REACTORS
330
2A
102
}
102
{ACAD_XDICTIONARY
360
96
102
}
330
2A
100
AcDbVisualStyle
  2
Facepattern
 70
    15
 71
     2
 72
     2
 73
     0
 90
        0
 40
-0.6
 41
-30.0
 62
     5
 63
     7
421
 16777215
 74
     1
 91
        4
 64
     7
 65
   257
 75
     1
175
     1
 42
1.0
 92
        8
 66
     7
 43
1.0
 76
     1
 77
     6
 78
     2
 67
     7
 79
     5
170
     0
171
     0
290
     0
174
     0
 93
        1
 44
0.0
173
     0
291
     1
 45
0.0
  0
VISUALSTYLE
  5
2B
102
{ACAD_REACTORS
330
2A
102
}
102
{ACAD_XDICTIONARY
360
7A
102
}
330
2A
100
AcDbVisualStyle
  2
Flat
 70
     0
 71
     2
 72
     1
 73
     1
 90
        2
 40
-0.6
 41
30.0
 62
     5
 63
     7
421
 16777215
 74
     0
 91
        4
 64
     7
 65
   257
 75
     1
175
     1
 42
1.0
 92
        8
 66
     7
 43
1.0
 76
     1
 77
     6
 78
     2
 67
     7
 79
     5
170
     0
171
     0
290
     0
174
     0
 93
       13
 44
0.0
173
     0
291
     1
 45
0.0
  0
VISUALSTYLE
  5
2C
102
{ACAD_REACTORS
330
2A
102
}
102
{ACAD_XDICTIONARY
360
7C
102
}
330
2A
100
AcDbVisualStyle
  2
FlatWithEdges
 70
     1
 71
     2
 72
     1
 73
     1
 90
        2
 40
-0.6
 41
30.0
 62
     5
 63
     7
421
 16777215
 74
     1
 91
        4
 64
     7
 65
   257
 75
     1
175
     1
 42
1.0
 92
        0
 66
   257
 43
1.0
 76
     1
 77
     6
 78
     2
 67
     7
 79
     5
170
     0
171
     0
290
     0
174
     0
 93
       13
 44
0.0
173
     0
291
     1
 45
0.0
  0
VISUALSTYLE
  5
2D
102
{ACAD_REACTORS
330
2A
102
}
102
{ACAD_XDICTIONARY
360
7E
102
}
330
2A
100
AcDbVisualStyle
  2
Gouraud
 70
     2
 71
     2
 72
     2
 73
     1
 90
        2
 40
-0.6
 41
30.0
 62
     5
 63
     7
421
 16777215
 74
     0
 91
        4
 64
     7
 65
   257
 75
     1
175
     1
 42
1.0
 92
        0
 66
     7
 43
1.0
 76
     1
 77
     6
 78
     2
 67
     7
 79
     5
170
     0
171
     0
290
     0
174
     0
 93
       13
 44
0.0
173
     0
291
     1
 45
0.0
  0
VISUALSTYLE
  5
2E
102
{ACAD_REACTORS
330
2A
102
}
102
{ACAD_XDICTIONARY
360
80
102
}
330
2A
100
AcDbVisualStyle
  2
GouraudWithEdges
 70
     3
 71
     2
 72
     2
 73
     1
 90
        2
 40
-0.6
 41
30.0
 62
     5
 63
     7
421
 16777215
 74
     1
 91
        4
 64
     7
 65
   257
 75
     1
175
     1
 42
1.0
 92
        0
 66
   257
 43
1.0
 76
     1
 77
     6
 78
     2
 67
     7
 79
     5
170
     0
171
     0
290
     0
174
     0
 93
       13
 44
0.0
173
     0
291
     1
 45
0.0
  0
VISUALSTYLE
  5
38
102
{ACAD_REACTORS
330
2A
102
}
102
{ACAD_XDICTIONARY
360
94
102
}
330
2A
100
AcDbVisualStyle
  2
Linepattern
 70
    14
 71
     2
 72
     2
 73
     0
 90
        0
 40
-0.6
 41
-30.0
 62
     5
 63
     7
421
 16777215
 74
     1
 91
        4
 64
     7
 65
   257
 75
     7
175
     7
 42
1.0
 92
        8
 66
     7
 43
1.0
 76
     1
 77
     6
 78
     2
 67
     7
 79
     5
170
     0
171
     0
290
     0
174
     0
 93
        1
 44
0.0
173
     0
291
     1
 45
0.0
  0
VISUALSTYLE
  5
33
102
{ACAD_REACTORS
330
2A
102
}
102
{ACAD_XDICTIONARY
360
8A
102
}
330
2A
100
AcDbVisualStyle
  2
Realistic
 70
     8
 71
     2
 72
     2
 73
     0
 90
        0
 40
-0.6
 41
-30.0
 62
     5
 63
     7
421
 16777215
 74
     1
 91
        0
 64
     7
 65
   257
 75
     1
175
     1
 42
1.0
 92
        8
 66
     8
424
  7895160
 43
1.0
 76
     1
 77
     6
 78
     2
 67
     7
 79
     5
170
     0
171
     0
290
     0
174
     0
 93
       13
 44
0.0
173
     0
291
     0
 45
0.0
  0
VISUALSTYLE
  5
37
102
{ACAD_REACTORS
330
2A
102
}
102
{ACAD_XDICTIONARY
360
92
102
}
330
2A
100
AcDbVisualStyle
  2
Thicken
 70
    13
 71
     2
 72
     2
 73
     0
 90
        0
 40
-0.6
 41
-30.0
 62
     5
 63
     7
421
 16777215
 74
     1
 91
        4
 64
     7
 65
   257
 75
     1
175
     1
 42
1.0
 92
       12
 66
     7
 43
1.0
 76
     1
 77
     6
 78
     2
 67
     7
 79
     5
170
     0
171
     0
290
     0
174
     0
 93
        1
 44
0.0
173
     0
291
     1
 45
0.0
  0
DICTIONARY
  5
82
330
2F
100
AcDbDictionary
280
     1
281
     1
  3
ACAD_XREC_ROUNDTRIP
360
83
  0
DICTIONARY
  5
86
330
31
100
AcDbDictionary
280
     1
281
     1
  3
ACAD_XREC_ROUNDTRIP
360
87
  0
DICTIONARY
  5
84
330
30
100
AcDbDictionary
280
     1
281
     1
  3
ACAD_XREC_ROUNDTRIP
360
85
  0
DICTIONARY
  5
88
330
32
100
AcDbDictionary
280
     1
281
     1
  3
ACAD_XREC_ROUNDTRIP
360
89
  0
DICTIONARY
  5
90
330
36
100
AcDbDictionary
280
     1
281
     1
  3
ACAD_XREC_ROUNDTRIP
360
91
  0
DICTIONARY
  5
98
330
3A
100
AcDbDictionary
280
     1
281
     1
  3
ACAD_XREC_ROUNDTRIP
360
99
  0
DICTIONARY
  5
8C
330
34
100
AcDbDictionary
280
     1
281
     1
  3
ACAD_XREC_ROUNDTRIP
360
8D
  0
DICTIONARY
  5
8E
330
35
100
AcDbDictionary
280
     1
281
     1
  3
ACAD_XREC_ROUNDTRIP
360
8F
  0
DICTIONARY
  5
96
330
39
100
AcDbDictionary
280
     1
281
     1
  3
ACAD_XREC_ROUNDTRIP
360
97
  0
DICTIONARY
  5
7A
330
2B
100
AcDbDictionary
280
     1
281
     1
  3
ACAD_XREC_ROUNDTRIP
360
7B
  0
DICTIONARY
  5
7C
330
2C
100
AcDbDictionary
280
     1
281
     1
  3
ACAD_XREC_ROUNDTRIP
360
7D
  0
DICTIONARY
  5
7E
330
2D
100
AcDbDictionary
280
     1
281
     1
  3
ACAD_XREC_ROUNDTRIP
360
7F
  0
DICTIONARY
  5
80
330
2E
100
AcDbDictionary
280
     1
281
     1
  3
ACAD_XREC_ROUNDTRIP
360
81
  0
DICTIONARY
  5
94
330
38
100
AcDbDictionary
280
     1
281
     1
  3
ACAD_XREC_ROUNDTRIP
360
95
  0
DICTIONARY
  5
8A
330
33
100
AcDbDictionary
280
     1
281
     1
  3
ACAD_XREC_ROUNDTRIP
360
8B
  0
DICTIONARY
  5
92
330
37
100
AcDbDictionary
280
     1
281
     1
  3
ACAD_XREC_ROUNDTRIP
360
93
  0
XRECORD
  5
83
102
{ACAD_REACTORS
330
82
102
}
330
82
100
AcDbXrecord
280
     1
102
RTVSPropertyOp0
 70
     1
102
RTVSPropertyOp1
 70
     1
102
RTVSPropertyOp2
 70
     1
102
RTVSPropertyOp3
 70
     1
102
RTVSPropertyOp4
 70
     1
102
RTVSPropertyOp5
 70
     1
102
RTVSPropertyOp6
 70
     1
102
RTVSPropertyOp7
 70
     1
102
RTVSPropertyOp8
 70
     1
102
RTVSPropertyOp9
 70
     1
102
RTVSPropertyOp10
 70
     1
102
RTVSPropertyOp11
 70
     1
102
RTVSPropertyOp12
 70
     1
102
RTVSPropertyOp13
 70
     1
102
RTVSPropertyOp14
 70
     1
102
RTVSPropertyOp15
 70
     1
102
RTVSPropertyOp16
 70
     1
102
RTVSPropertyOp17
 70
     1
102
RTVSPropertyOp18
 70
     1
102
RTVSPropertyOp19
 70
     1
102
RTVSPropertyOp20
 70
     1
102
RTVSPropertyOp21
 70
     1
102
RTVSPropertyOp22
 70
     1
102
RTVSPropertyOp23
 70
     1
102
RTVSPropertyOp24
 70
     1
102
RTVSPropertyOp25
 70
     1
102
RTVSPropertyOp26
 70
     1
102
RTVSPropertyOp27
 70
     1
102
RTVSPropertyOp28
 70
     1
102
RTVSPropertyOp29
 70
     1
102
RTVSPropertyOp30
 70
     1
102
RTVSPropertyOp31
 70
     1
102
RTVSPropertyOp32
 70
     1
  0
XRECORD
  5
87
102
{ACAD_REACTORS
330
86
102
}
330
86
100
AcDbXrecord
280
     1
102
RTVSPropertyOp0
 70
     1
102
RTVSPropertyOp1
 70
     1
102
RTVSPropertyOp2
 70
     1
102
RTVSPropertyOp3
 70
     1
102
RTVSPropertyOp4
 70
     1
102
RTVSPropertyOp5
 70
     1
102
RTVSPropertyOp6
 70
     1
102
RTVSPropertyOp7
 70
     1
102
RTVSPropertyOp8
 70
     1
102
RTVSPropertyOp9
 70
     1
102
RTVSPropertyOp10
 70
     1
102
RTVSPropertyOp11
 70
     1
102
RTVSPropertyOp12
 70
     1
102
RTVSPropertyOp13
 70
     1
102
RTVSPropertyOp14
 70
     1
102
RTVSPropertyOp15
 70
     1
102
RTVSPropertyOp16
 70
     1
102
RTVSPropertyOp17
 70
     1
102
RTVSPropertyOp18
 70
     1
102
RTVSPropertyOp19
 70
     1
102
RTVSPropertyOp20
 70
     1
102
RTVSPropertyOp21
 70
     1
102
RTVSPropertyOp22
 70
     1
102
RTVSPropertyOp23
 70
     1
102
RTVSPropertyOp24
 70
     1
102
RTVSPropertyOp25
 70
     1
102
RTVSPropertyOp26
 70
     1
102
RTVSPropertyOp27
 70
     1
102
RTVSPropertyOp28
 70
     1
102
RTVSPropertyOp29
 70
     1
102
RTVSPropertyOp30
 70
     1
102
RTVSPropertyOp31
 70
     1
102
RTVSPropertyOp32
 70
     1
  0
XRECORD
  5
85
102
{ACAD_REACTORS
330
84
102
}
330
84
100
AcDbXrecord
280
     1
102
RTVSPropertyOp0
 70
     1
102
RTVSPropertyOp1
 70
     1
102
RTVSPropertyOp2
 70
     1
102
RTVSPropertyOp3
 70
     1
102
RTVSPropertyOp4
 70
     1
102
RTVSPropertyOp5
 70
     1
102
RTVSPropertyOp6
 70
     1
102
RTVSPropertyOp7
 70
     1
102
RTVSPropertyOp8
 70
     1
102
RTVSPropertyOp9
 70
     1
102
RTVSPropertyOp10
 70
     1
102
RTVSPropertyOp11
 70
     1
102
RTVSPropertyOp12
 70
     1
102
RTVSPropertyOp13
 70
     1
102
RTVSPropertyOp14
 70
     1
102
RTVSPropertyOp15
 70
     1
102
RTVSPropertyOp16
 70
     1
102
RTVSPropertyOp17
 70
     1
102
RTVSPropertyOp18
 70
     1
102
RTVSPropertyOp19
 70
     1
102
RTVSPropertyOp20
 70
     1
102
RTVSPropertyOp21
 70
     1
102
RTVSPropertyOp22
 70
     1
102
RTVSPropertyOp23
 70
     1
102
RTVSPropertyOp24
 70
     1
102
RTVSPropertyOp25
 70
     1
102
RTVSPropertyOp26
 70
     1
102
RTVSPropertyOp27
 70
     1
102
RTVSPropertyOp28
 70
     1
102
RTVSPropertyOp29
 70
     1
102
RTVSPropertyOp30
 70
     1
102
RTVSPropertyOp31
 70
     1
102
RTVSPropertyOp32
 70
     1
  0
XRECORD
  5
89
102
{ACAD_REACTORS
330
88
102
}
330
88
100
AcDbXrecord
280
     1
102
RTVSPropertyOp0
 70
     1
102
RTVSPropertyOp1
 70
     1
102
RTVSPropertyOp2
 70
     1
102
RTVSPropertyOp3
 70
     1
102
RTVSPropertyOp4
 70
     1
102
RTVSPropertyOp5
 70
     1
102
RTVSPropertyOp6
 70
     1
102
RTVSPropertyOp7
 70
     1
102
RTVSPropertyOp8
 70
     1
102
RTVSPropertyOp9
 70
     1
102
RTVSPropertyOp10
 70
     1
102
RTVSPropertyOp11
 70
     1
102
RTVSPropertyOp12
 70
     1
102
RTVSPropertyOp13
 70
     1
102
RTVSPropertyOp14
 70
     1
102
RTVSPropertyOp15
 70
     1
102
RTVSPropertyOp16
 70
     1
102
RTVSPropertyOp17
 70
     1
102
RTVSPropertyOp18
 70
     1
102
RTVSPropertyOp19
 70
     1
102
RTVSPropertyOp20
 70
     1
102
RTVSPropertyOp21
 70
     1
102
RTVSPropertyOp22
 70
     1
102
RTVSPropertyOp23
 70
     1
102
RTVSPropertyOp24
 70
     1
102
RTVSPropertyOp25
 70
     1
102
RTVSPropertyOp26
 70
     1
102
RTVSPropertyOp27
 70
     1
102
RTVSPropertyOp28
 70
     1
102
RTVSPropertyOp29
 70
     1
102
RTVSPropertyOp30
 70
     1
102
RTVSPropertyOp31
 70
     1
102
RTVSPropertyOp32
 70
     1
  0
XRECORD
  5
91
102
{ACAD_REACTORS
330
90
102
}
330
90
100
AcDbXrecord
280
     1
102
RTVSPropertyOp0
 70
     1
102
RTVSPropertyOp1
 70
     1
102
RTVSPropertyOp2
 70
     1
102
RTVSPropertyOp3
 70
     1
102
RTVSPropertyOp4
 70
     1
102
RTVSPropertyOp5
 70
     1
102
RTVSPropertyOp6
 70
     1
102
RTVSPropertyOp7
 70
     1
102
RTVSPropertyOp8
 70
     1
102
RTVSPropertyOp9
 70
     1
102
RTVSPropertyOp10
 70
     1
102
RTVSPropertyOp11
 70
     1
102
RTVSPropertyOp12
 70
     1
102
RTVSPropertyOp13
 70
     1
102
RTVSPropertyOp14
 70
     1
102
RTVSPropertyOp15
 70
     1
102
RTVSPropertyOp16
 70
     1
102
RTVSPropertyOp17
 70
     1
102
RTVSPropertyOp18
 70
     1
102
RTVSPropertyOp19
 70
     1
102
RTVSPropertyOp20
 70
     1
102
RTVSPropertyOp21
 70
     1
102
RTVSPropertyOp22
 70
     1
102
RTVSPropertyOp23
 70
     1
102
RTVSPropertyOp24
 70
     1
102
RTVSPropertyOp25
 70
     1
102
RTVSPropertyOp26
 70
     1
102
RTVSPropertyOp27
 70
     1
102
RTVSPropertyOp28
 70
     1
102
RTVSPropertyOp29
 70
     1
102
RTVSPropertyOp30
 70
     1
102
RTVSPropertyOp31
 70
     1
102
RTVSPropertyOp32
 70
     1
  0
XRECORD
  5
99
102
{ACAD_REACTORS
330
98
102
}
330
98
100
AcDbXrecord
280
     1
102
RTVSPropertyOp0
 70
     1
102
RTVSPropertyOp1
 70
     1
102
RTVSPropertyOp2
 70
     1
102
RTVSPropertyOp3
 70
     1
102
RTVSPropertyOp4
 70
     1
102
RTVSPropertyOp5
 70
     1
102
RTVSPropertyOp6
 70
     1
102
RTVSPropertyOp7
 70
     1
102
RTVSPropertyOp8
 70
     1
102
RTVSPropertyOp9
 70
     1
102
RTVSPropertyOp10
 70
     1
102
RTVSPropertyOp11
 70
     1
102
RTVSPropertyOp12
 70
     1
102
RTVSPropertyOp13
 70
     1
102
RTVSPropertyOp14
 70
     1
102
RTVSPropertyOp15
 70
     1
102
RTVSPropertyOp16
 70
     1
102
RTVSPropertyOp17
 70
     1
102
RTVSPropertyOp18
 70
     1
102
RTVSPropertyOp19
 70
     1
102
RTVSPropertyOp20
 70
     1
102
RTVSPropertyOp21
 70
     1
102
RTVSPropertyOp22
 70
     1
102
RTVSPropertyOp23
 70
     1
102
RTVSPropertyOp24
 70
     1
102
RTVSPropertyOp25
 70
     1
102
RTVSPropertyOp26
 70
     1
102
RTVSPropertyOp27
 70
     1
102
RTVSPropertyOp28
 70
     1
102
RTVSPropertyOp29
 70
     1
102
RTVSPropertyOp30
 70
     1
102
RTVSPropertyOp31
 70
     1
102
RTVSPropertyOp32
 70
     1
  0
XRECORD
  5
8D
102
{ACAD_REACTORS
330
8C
102
}
330
8C
100
AcDbXrecord
280
     1
102
RTVSPropertyOp0
 70
     1
102
RTVSPropertyOp1
 70
     1
102
RTVSPropertyOp2
 70
     1
102
RTVSPropertyOp3
 70
     1
102
RTVSPropertyOp4
 70
     1
102
RTVSPropertyOp5
 70
     1
102
RTVSPropertyOp6
 70
     1
102
RTVSPropertyOp7
 70
     1
102
RTVSPropertyOp8
 70
     1
102
RTVSPropertyOp9
 70
     1
102
RTVSPropertyOp10
 70
     1
102
RTVSPropertyOp11
 70
     1
102
RTVSPropertyOp12
 70
     1
102
RTVSPropertyOp13
 70
     1
102
RTVSPropertyOp14
 70
     1
102
RTVSPropertyOp15
 70
     1
102
RTVSPropertyOp16
 70
     1
102
RTVSPropertyOp17
 70
     1
102
RTVSPropertyOp18
 70
     1
102
RTVSPropertyOp19
 70
     1
102
RTVSPropertyOp20
 70
     1
102
RTVSPropertyOp21
 70
     1
102
RTVSPropertyOp22
 70
     1
102
RTVSPropertyOp23
 70
     1
102
RTVSPropertyOp24
 70
     1
102
RTVSPropertyOp25
 70
     1
102
RTVSPropertyOp26
 70
     1
102
RTVSPropertyOp27
 70
     1
102
RTVSPropertyOp28
 70
     1
102
RTVSPropertyOp29
 70
     1
102
RTVSPropertyOp30
 70
     1
102
RTVSPropertyOp31
 70
     1
102
RTVSPropertyOp32
 70
     1
  0
XRECORD
  5
8F
102
{ACAD_REACTORS
330
8E
102
}
330
8E
100
AcDbXrecord
280
     1
102
RTVSPropertyOp0
 70
     1
102
RTVSPropertyOp1
 70
     1
102
RTVSPropertyOp2
 70
     1
102
RTVSPropertyOp3
 70
     1
102
RTVSPropertyOp4
 70
     1
102
RTVSPropertyOp5
 70
     1
102
RTVSPropertyOp6
 70
     1
102
RTVSPropertyOp7
 70
     1
102
RTVSPropertyOp8
 70
     1
102
RTVSPropertyOp9
 70
     1
102
RTVSPropertyOp10
 70
     1
102
RTVSPropertyOp11
 70
     1
102
RTVSPropertyOp12
 70
     1
102
RTVSPropertyOp13
 70
     1
102
RTVSPropertyOp14
 70
     1
102
RTVSPropertyOp15
 70
     1
102
RTVSPropertyOp16
 70
     1
102
RTVSPropertyOp17
 70
     1
102
RTVSPropertyOp18
 70
     1
102
RTVSPropertyOp19
 70
     1
102
RTVSPropertyOp20
 70
     1
102
RTVSPropertyOp21
 70
     1
102
RTVSPropertyOp22
 70
     1
102
RTVSPropertyOp23
 70
     1
102
RTVSPropertyOp24
 70
     1
102
RTVSPropertyOp25
 70
     1
102
RTVSPropertyOp26
 70
     1
102
RTVSPropertyOp27
 70
     1
102
RTVSPropertyOp28
 70
     1
102
RTVSPropertyOp29
 70
     1
102
RTVSPropertyOp30
 70
     1
102
RTVSPropertyOp31
 70
     1
102
RTVSPropertyOp32
 70
     1
  0
XRECORD
  5
97
102
{ACAD_REACTORS
330
96
102
}
330
96
100
AcDbXrecord
280
     1
102
RTVSPropertyOp0
 70
     1
102
RTVSPropertyOp1
 70
     1
102
RTVSPropertyOp2
 70
     1
102
RTVSPropertyOp3
 70
     1
102
RTVSPropertyOp4
 70
     1
102
RTVSPropertyOp5
 70
     1
102
RTVSPropertyOp6
 70
     1
102
RTVSPropertyOp7
 70
     1
102
RTVSPropertyOp8
 70
     1
102
RTVSPropertyOp9
 70
     1
102
RTVSPropertyOp10
 70
     1
102
RTVSPropertyOp11
 70
     1
102
RTVSPropertyOp12
 70
     1
102
RTVSPropertyOp13
 70
     1
102
RTVSPropertyOp14
 70
     1
102
RTVSPropertyOp15
 70
     1
102
RTVSPropertyOp16
 70
     1
102
RTVSPropertyOp17
 70
     1
102
RTVSPropertyOp18
 70
     1
102
RTVSPropertyOp19
 70
     1
102
RTVSPropertyOp20
 70
     1
102
RTVSPropertyOp21
 70
     1
102
RTVSPropertyOp22
 70
     1
102
RTVSPropertyOp23
 70
     1
102
RTVSPropertyOp24
 70
     1
102
RTVSPropertyOp25
 70
     1
102
RTVSPropertyOp26
 70
     1
102
RTVSPropertyOp27
 70
     1
102
RTVSPropertyOp28
 70
     1
102
RTVSPropertyOp29
 70
     1
102
RTVSPropertyOp30
 70
     1
102
RTVSPropertyOp31
 70
     1
102
RTVSPropertyOp32
 70
     1
  0
XRECORD
  5
7B
102
{ACAD_REACTORS
330
7A
102
}
330
7A
100
AcDbXrecord
280
     1
102
RTVSPropertyOp0
 70
     1
102
RTVSPropertyOp1
 70
     1
102
RTVSPropertyOp2
 70
     1
102
RTVSPropertyOp3
 70
     1
102
RTVSPropertyOp4
 70
     1
102
RTVSPropertyOp5
 70
     1
102
RTVSPropertyOp6
 70
     1
102
RTVSPropertyOp7
 70
     1
102
RTVSPropertyOp8
 70
     1
102
RTVSPropertyOp9
 70
     1
102
RTVSPropertyOp10
 70
     1
102
RTVSPropertyOp11
 70
     1
102
RTVSPropertyOp12
 70
     1
102
RTVSPropertyOp13
 70
     1
102
RTVSPropertyOp14
 70
     1
102
RTVSPropertyOp15
 70
     1
102
RTVSPropertyOp16
 70
     1
102
RTVSPropertyOp17
 70
     1
102
RTVSPropertyOp18
 70
     1
102
RTVSPropertyOp19
 70
     1
102
RTVSPropertyOp20
 70
     1
102
RTVSPropertyOp21
 70
     1
102
RTVSPropertyOp22
 70
     1
102
RTVSPropertyOp23
 70
     1
102
RTVSPropertyOp24
 70
     1
102
RTVSPropertyOp25
 70
     1
102
RTVSPropertyOp26
 70
     1
102
RTVSPropertyOp27
 70
     1
102
RTVSPropertyOp28
 70
     1
102
RTVSPropertyOp29
 70
     1
102
RTVSPropertyOp30
 70
     1
102
RTVSPropertyOp31
 70
     1
102
RTVSPropertyOp32
 70
     1
  0
XRECORD
  5
7D
102
{ACAD_REACTORS
330
7C
102
}
330
7C
100
AcDbXrecord
280
     1
102
RTVSPropertyOp0
 70
     1
102
RTVSPropertyOp1
 70
     1
102
RTVSPropertyOp2
 70
     1
102
RTVSPropertyOp3
 70
     1
102
RTVSPropertyOp4
 70
     1
102
RTVSPropertyOp5
 70
     1
102
RTVSPropertyOp6
 70
     1
102
RTVSPropertyOp7
 70
     1
102
RTVSPropertyOp8
 70
     1
102
RTVSPropertyOp9
 70
     1
102
RTVSPropertyOp10
 70
     1
102
RTVSPropertyOp11
 70
     1
102
RTVSPropertyOp12
 70
     1
102
RTVSPropertyOp13
 70
     1
102
RTVSPropertyOp14
 70
     1
102
RTVSPropertyOp15
 70
     1
102
RTVSPropertyOp16
 70
     1
102
RTVSPropertyOp17
 70
     1
102
RTVSPropertyOp18
 70
     1
102
RTVSPropertyOp19
 70
     1
102
RTVSPropertyOp20
 70
     1
102
RTVSPropertyOp21
 70
     1
102
RTVSPropertyOp22
 70
     1
102
RTVSPropertyOp23
 70
     1
102
RTVSPropertyOp24
 70
     1
102
RTVSPropertyOp25
 70
     1
102
RTVSPropertyOp26
 70
     1
102
RTVSPropertyOp27
 70
     1
102
RTVSPropertyOp28
 70
     1
102
RTVSPropertyOp29
 70
     1
102
RTVSPropertyOp30
 70
     1
102
RTVSPropertyOp31
 70
     1
102
RTVSPropertyOp32
 70
     1
  0
XRECORD
  5
7F
102
{ACAD_REACTORS
330
7E
102
}
330
7E
100
AcDbXrecord
280
     1
102
RTVSPropertyOp0
 70
     1
102
RTVSPropertyOp1
 70
     1
102
RTVSPropertyOp2
 70
     1
102
RTVSPropertyOp3
 70
     1
102
RTVSPropertyOp4
 70
     1
102
RTVSPropertyOp5
 70
     1
102
RTVSPropertyOp6
 70
     1
102
RTVSPropertyOp7
 70
     1
102
RTVSPropertyOp8
 70
     1
102
RTVSPropertyOp9
 70
     1
102
RTVSPropertyOp10
 70
     1
102
RTVSPropertyOp11
 70
     1
102
RTVSPropertyOp12
 70
     1
102
RTVSPropertyOp13
 70
     1
102
RTVSPropertyOp14
 70
     1
102
RTVSPropertyOp15
 70
     1
102
RTVSPropertyOp16
 70
     1
102
RTVSPropertyOp17
 70
     1
102
RTVSPropertyOp18
 70
     1
102
RTVSPropertyOp19
 70
     1
102
RTVSPropertyOp20
 70
     1
102
RTVSPropertyOp21
 70
     1
102
RTVSPropertyOp22
 70
     1
102
RTVSPropertyOp23
 70
     1
102
RTVSPropertyOp24
 70
     1
102
RTVSPropertyOp25
 70
     1
102
RTVSPropertyOp26
 70
     1
102
RTVSPropertyOp27
 70
     1
102
RTVSPropertyOp28
 70
     1
102
RTVSPropertyOp29
 70
     1
102
RTVSPropertyOp30
 70
     1
102
RTVSPropertyOp31
 70
     1
102
RTVSPropertyOp32
 70
     1
  0
XRECORD
  5
81
102
{ACAD_REACTORS
330
80
102
}
330
80
100
AcDbXrecord
280
     1
102
RTVSPropertyOp0
 70
     1
102
RTVSPropertyOp1
 70
     1
102
RTVSPropertyOp2
 70
     1
102
RTVSPropertyOp3
 70
     1
102
RTVSPropertyOp4
 70
     1
102
RTVSPropertyOp5
 70
     1
102
RTVSPropertyOp6
 70
     1
102
RTVSPropertyOp7
 70
     1
102
RTVSPropertyOp8
 70
     1
102
RTVSPropertyOp9
 70
     1
102
RTVSPropertyOp10
 70
     1
102
RTVSPropertyOp11
 70
     1
102
RTVSPropertyOp12
 70
     1
102
RTVSPropertyOp13
 70
     1
102
RTVSPropertyOp14
 70
     1
102
RTVSPropertyOp15
 70
     1
102
RTVSPropertyOp16
 70
     1
102
RTVSPropertyOp17
 70
     1
102
RTVSPropertyOp18
 70
     1
102
RTVSPropertyOp19
 70
     1
102
RTVSPropertyOp20
 70
     1
102
RTVSPropertyOp21
 70
     1
102
RTVSPropertyOp22
 70
     1
102
RTVSPropertyOp23
 70
     1
102
RTVSPropertyOp24
 70
     1
102
RTVSPropertyOp25
 70
     1
102
RTVSPropertyOp26
 70
     1
102
RTVSPropertyOp27
 70
     1
102
RTVSPropertyOp28
 70
     1
102
RTVSPropertyOp29
 70
     1
102
RTVSPropertyOp30
 70
     1
102
RTVSPropertyOp31
 70
     1
102
RTVSPropertyOp32
 70
     1
  0
XRECORD
  5
95
102
{ACAD_REACTORS
330
94
102
}
330
94
100
AcDbXrecord
280
     1
102
RTVSPropertyOp0
 70
     1
102
RTVSPropertyOp1
 70
     1
102
RTVSPropertyOp2
 70
     1
102
RTVSPropertyOp3
 70
     1
102
RTVSPropertyOp4
 70
     1
102
RTVSPropertyOp5
 70
     1
102
RTVSPropertyOp6
 70
     1
102
RTVSPropertyOp7
 70
     1
102
RTVSPropertyOp8
 70
     1
102
RTVSPropertyOp9
 70
     1
102
RTVSPropertyOp10
 70
     1
102
RTVSPropertyOp11
 70
     1
102
RTVSPropertyOp12
 70
     1
102
RTVSPropertyOp13
 70
     1
102
RTVSPropertyOp14
 70
     1
102
RTVSPropertyOp15
 70
     1
102
RTVSPropertyOp16
 70
     1
102
RTVSPropertyOp17
 70
     1
102
RTVSPropertyOp18
 70
     1
102
RTVSPropertyOp19
 70
     1
102
RTVSPropertyOp20
 70
     1
102
RTVSPropertyOp21
 70
     1
102
RTVSPropertyOp22
 70
     1
102
RTVSPropertyOp23
 70
     1
102
RTVSPropertyOp24
 70
     1
102
RTVSPropertyOp25
 70
     1
102
RTVSPropertyOp26
 70
     1
102
RTVSPropertyOp27
 70
     1
102
RTVSPropertyOp28
 70
     1
102
RTVSPropertyOp29
 70
     1
102
RTVSPropertyOp30
 70
     1
102
RTVSPropertyOp31
 70
     1
102
RTVSPropertyOp32
 70
     1
  0
XRECORD
  5
8B
102
{ACAD_REACTORS
330
8A
102
}
330
8A
100
AcDbXrecord
280
     1
102
RTVSPropertyOp0
 70
     1
102
RTVSPropertyOp1
 70
     1
102
RTVSPropertyOp2
 70
     1
102
RTVSPropertyOp3
 70
     1
102
RTVSPropertyOp4
 70
     1
102
RTVSPropertyOp5
 70
     1
102
RTVSPropertyOp6
 70
     1
102
RTVSPropertyOp7
 70
     1
102
RTVSPropertyOp8
 70
     1
102
RTVSPropertyOp9
 70
     1
102
RTVSPropertyOp10
 70
     1
102
RTVSPropertyOp11
 70
     1
102
RTVSPropertyOp12
 70
     1
102
RTVSPropertyOp13
 70
     1
102
RTVSPropertyOp14
 70
     1
102
RTVSPropertyOp15
 70
     1
102
RTVSPropertyOp16
 70
     1
102
RTVSPropertyOp17
 70
     1
102
RTVSPropertyOp18
 70
     1
102
RTVSPropertyOp19
 70
     1
102
RTVSPropertyOp20
 70
     1
102
RTVSPropertyOp21
 70
     1
102
RTVSPropertyOp22
 70
     1
102
RTVSPropertyOp23
 70
     1
102
RTVSPropertyOp24
 70
     1
102
RTVSPropertyOp25
 70
     1
102
RTVSPropertyOp26
 70
     1
102
RTVSPropertyOp27
 70
     1
102
RTVSPropertyOp28
 70
     1
102
RTVSPropertyOp29
 70
     1
102
RTVSPropertyOp30
 70
     1
102
RTVSPropertyOp31
 70
     1
102
RTVSPropertyOp32
 70
     1
  0
XRECORD
  5
93
102
{ACAD_REACTORS
330
92
102
}
330
92
100
AcDbXrecord
280
     1
102
RTVSPropertyOp0
 70
     1
102
RTVSPropertyOp1
 70
     1
102
RTVSPropertyOp2
 70
     1
102
RTVSPropertyOp3
 70
     1
102
RTVSPropertyOp4
 70
     1
102
RTVSPropertyOp5
 70
     1
102
RTVSPropertyOp6
 70
     1
102
RTVSPropertyOp7
 70
     1
102
RTVSPropertyOp8
 70
     1
102
RTVSPropertyOp9
 70
     1
102
RTVSPropertyOp10
 70
     1
102
RTVSPropertyOp11
 70
     1
102
RTVSPropertyOp12
 70
     1
102
RTVSPropertyOp13
 70
     1
102
RTVSPropertyOp14
 70
     1
102
RTVSPropertyOp15
 70
     1
102
RTVSPropertyOp16
 70
     1
102
RTVSPropertyOp17
 70
     1
102
RTVSPropertyOp18
 70
     1
102
RTVSPropertyOp19
 70
     1
102
RTVSPropertyOp20
 70
     1
102
RTVSPropertyOp21
 70
     1
102
RTVSPropertyOp22
 70
     1
102
RTVSPropertyOp23
 70
     1
102
RTVSPropertyOp24
 70
     1
102
RTVSPropertyOp25
 70
     1
102
RTVSPropertyOp26
 70
     1
102
RTVSPropertyOp27
 70
     1
102
RTVSPropertyOp28
 70
     1
102
RTVSPropertyOp29
 70
     1
102
RTVSPropertyOp30
 70
     1
102
RTVSPropertyOp31
 70
     1
102
RTVSPropertyOp32
 70
     1
  0
ENDSEC
  0
EOF
